<svg xmlns="http://www.w3.org/2000/svg" xmlns:xlink="http://www.w3.org/1999/xlink" width="200" height="184.09" viewBox="0 0 200 184.09">
  <defs>
    <radialGradient id="radial-gradient" cx="0.353" cy="0.228" r="0.857" gradientTransform="translate(0.045) scale(0.91 1)" gradientUnits="objectBoundingBox">
      <stop offset="0" stop-color="#828282"/>
      <stop offset="0.301" stop-color="#838384" stop-opacity="0.98"/>
      <stop offset="0.469" stop-color="#8a8a8a" stop-opacity="0.918"/>
      <stop offset="0.604" stop-color="#959696" stop-opacity="0.812"/>
      <stop offset="0.721" stop-color="#a6a6a7" stop-opacity="0.663"/>
      <stop offset="0.828" stop-color="#bbbbbc" stop-opacity="0.467"/>
      <stop offset="0.924" stop-color="#d4d5d6" stop-opacity="0.231"/>
      <stop offset="1" stop-color="#edeef0" stop-opacity="0"/>
    </radialGradient>
    <linearGradient id="linear-gradient" y1="0.5" x2="1" y2="0.5" gradientUnits="objectBoundingBox">
      <stop offset="0" stop-color="#1ad99d"/>
      <stop offset="1" stop-color="#fc17f7"/>
    </linearGradient>
    <radialGradient id="radial-gradient-2" cx="0.076" cy="0.019" r="1.465" gradientTransform="translate(0.001)" gradientUnits="objectBoundingBox">
      <stop offset="0" stop-color="#f7f7f8"/>
      <stop offset="0.505" stop-color="#fafafb"/>
      <stop offset="0.715" stop-color="#fff"/>
    </radialGradient>
  </defs>
  <g id="Grupo_1675" data-name="Grupo 1675" transform="translate(-291.352 -1044)">
    <g id="Grupo_1649" data-name="Grupo 1649" transform="translate(244.409 877.798)">
      <path id="Trazado_25425" data-name="Trazado 25425" d="M127,312.948l48.894,48.9a12.571,12.571,0,0,0,4.418.014c35.786-5.8,74.361-34.865,78.249-80.46.1-1.216-.205.359-.264-.849L220.08,242.338Z" transform="translate(-14.917 -14.187)" fill="url(#radial-gradient)"/>
      <path id="Trazado_25426" data-name="Trazado 25426" d="M154.9,166.2a92.073,92.073,0,0,0-59.6,21.9l3.162,3.718A87.16,87.16,0,1,1,90.6,317.108H51.825v-20.53H76.869V231.3h-22.1V216.221c11.821-2.45,20.1-5.611,28.821-10.975h20.065v91.332h23.433V291.7H108.539V200.363H82.2l-.593.371c-8.871,5.545-17.21,8.654-29.74,11.09l-1.975.385v23.972h22.1V291.7H46.943V321.99H88.5A92.043,92.043,0,1,0,154.9,166.2Z" fill="url(#linear-gradient)"/>
      <g id="Grupo_1647" data-name="Grupo 1647" transform="translate(95.81 199.37)">
        <g id="Grupo_1646" data-name="Grupo 1646">
          <g id="Grupo_1644" data-name="Grupo 1644">
            <g id="Grupo_1643" data-name="Grupo 1643">
              <g id="Grupo_1642" data-name="Grupo 1642">
                <path id="Trazado_25427" data-name="Trazado 25427" d="M224.589,265.76A58.794,58.794,0,1,1,165.8,206.966,58.792,58.792,0,0,1,224.589,265.76Z" transform="translate(-107.001 -206.966)" fill="#fff"/>
              </g>
            </g>
          </g>
          <path id="Trazado_25428" data-name="Trazado 25428" d="M224.932,266.135a58.792,58.792,0,1,0-58.793,58.793A58.566,58.566,0,0,0,224.932,266.135Z" transform="translate(-107.345 -207.341)" fill="url(#radial-gradient-2)"/>
          <g id="Grupo_1645" data-name="Grupo 1645" transform="translate(10.416 33.009)">
            <path id="Trazado_25429" data-name="Trazado 25429" d="M221.03,247.534A58.8,58.8,0,0,1,119.8,306.084a58.614,58.614,0,0,0,101.227-58.55Z" transform="translate(-119.803 -247.534)" fill="#edeef0"/>
          </g>
        </g>
      </g>
      <g id="Grupo_1648" data-name="Grupo 1648" transform="translate(118.803 234.63)">
        <path id="Trazado_25456" data-name="Trazado 25456" d="M-25.785-6.678V0H-26.4V-.936a1.949,1.949,0,0,1-.761.729,2.231,2.231,0,0,1-1.066.252A2.4,2.4,0,0,1-29.43-.261a2.187,2.187,0,0,1-.846-.855,2.526,2.526,0,0,1-.306-1.251,2.526,2.526,0,0,1,.306-1.251,2.156,2.156,0,0,1,.846-.85,2.431,2.431,0,0,1,1.206-.3,2.238,2.238,0,0,1,1.04.238,1.97,1.97,0,0,1,.76.7V-6.678ZM-28.17-.522a1.769,1.769,0,0,0,.9-.23,1.63,1.63,0,0,0,.63-.653,1.987,1.987,0,0,0,.229-.963,1.987,1.987,0,0,0-.229-.963,1.63,1.63,0,0,0-.63-.653,1.769,1.769,0,0,0-.9-.229,1.786,1.786,0,0,0-.9.229,1.63,1.63,0,0,0-.63.653,1.987,1.987,0,0,0-.229.963A1.987,1.987,0,0,0-29.7-1.4a1.63,1.63,0,0,0,.63.653A1.786,1.786,0,0,0-28.17-.522Zm8.289-1.647h-3.96a1.692,1.692,0,0,0,.567,1.192,1.882,1.882,0,0,0,1.3.455,2.042,2.042,0,0,0,.81-.158,1.769,1.769,0,0,0,.639-.464l.36.414a2.027,2.027,0,0,1-.788.576A2.663,2.663,0,0,1-22,.045a2.628,2.628,0,0,1-1.292-.311,2.239,2.239,0,0,1-.878-.859,2.45,2.45,0,0,1-.315-1.242,2.537,2.537,0,0,1,.3-1.242,2.183,2.183,0,0,1,.828-.855,2.312,2.312,0,0,1,1.184-.306,2.288,2.288,0,0,1,1.179.306,2.169,2.169,0,0,1,.819.85,2.561,2.561,0,0,1,.3,1.246Zm-2.286-2.052a1.61,1.61,0,0,0-1.147.437,1.714,1.714,0,0,0-.527,1.139h3.357a1.714,1.714,0,0,0-.527-1.139A1.621,1.621,0,0,0-22.167-4.221Zm8.451,3.933a1.21,1.21,0,0,1-.446.248,1.794,1.794,0,0,1-.553.085,1.388,1.388,0,0,1-1.026-.36,1.375,1.375,0,0,1-.36-1.017V-4.194h-.846v-.54h.846V-5.769h.639v1.035h1.44v.54h-1.44v2.826a.9.9,0,0,0,.211.643.8.8,0,0,0,.608.22,1.176,1.176,0,0,0,.383-.063.951.951,0,0,0,.319-.18Zm1.773-3.519a1.548,1.548,0,0,1,.67-.72,2.278,2.278,0,0,1,1.1-.243v.621l-.153-.009a1.512,1.512,0,0,0-1.17.459,1.829,1.829,0,0,0-.423,1.287V0h-.639V-4.734h.612Zm4.572-.963a2,2,0,0,1,1.422.463,1.791,1.791,0,0,1,.495,1.372V0h-.612V-.738A1.465,1.465,0,0,1-6.7-.162,2.221,2.221,0,0,1-7.7.045a1.947,1.947,0,0,1-1.26-.378,1.221,1.221,0,0,1-.468-1A1.21,1.21,0,0,1-8.987-2.3,2.136,2.136,0,0,1-7.6-2.673h1.5v-.288a1.213,1.213,0,0,0-.342-.931,1.412,1.412,0,0,0-1-.319,2.54,2.54,0,0,0-.864.148,2.177,2.177,0,0,0-.711.41L-9.3-4.131A2.554,2.554,0,0,1-8.433-4.6,3.364,3.364,0,0,1-7.371-4.77ZM-7.6-.459a1.684,1.684,0,0,0,.927-.248,1.478,1.478,0,0,0,.576-.715V-2.2H-7.578q-1.215,0-1.215.846A.774.774,0,0,0-8.478-.7,1.434,1.434,0,0,0-7.6-.459ZM.171-4.734-2.2.567a2.262,2.262,0,0,1-.666.945,1.488,1.488,0,0,1-.909.279,1.856,1.856,0,0,1-.639-.108,1.385,1.385,0,0,1-.513-.324l.3-.477a1.178,1.178,0,0,0,.864.36.87.87,0,0,0,.554-.18A1.634,1.634,0,0,0-2.781.45l.207-.459L-4.689-4.734h.666L-2.241-.711-.459-4.734ZM5.058-2.169H1.1A1.692,1.692,0,0,0,1.665-.976a1.882,1.882,0,0,0,1.3.455,2.042,2.042,0,0,0,.81-.158,1.769,1.769,0,0,0,.639-.464l.36.414a2.027,2.027,0,0,1-.787.576,2.663,2.663,0,0,1-1.039.2A2.628,2.628,0,0,1,1.651-.266a2.239,2.239,0,0,1-.877-.859A2.45,2.45,0,0,1,.459-2.367a2.537,2.537,0,0,1,.3-1.242,2.183,2.183,0,0,1,.828-.855A2.312,2.312,0,0,1,2.772-4.77a2.288,2.288,0,0,1,1.179.306,2.169,2.169,0,0,1,.819.85,2.561,2.561,0,0,1,.3,1.246ZM2.772-4.221a1.61,1.61,0,0,0-1.147.437A1.714,1.714,0,0,0,1.1-2.646H4.455a1.714,1.714,0,0,0-.526-1.139A1.621,1.621,0,0,0,2.772-4.221ZM8.334.045A2.551,2.551,0,0,1,7.079-.261,2.215,2.215,0,0,1,6.21-1.12,2.475,2.475,0,0,1,5.9-2.367,2.45,2.45,0,0,1,6.21-3.609a2.224,2.224,0,0,1,.868-.855A2.551,2.551,0,0,1,8.334-4.77a2.431,2.431,0,0,1,1.094.238,1.816,1.816,0,0,1,.76.7l-.477.324a1.492,1.492,0,0,0-.594-.527,1.763,1.763,0,0,0-.783-.175,1.854,1.854,0,0,0-.922.229,1.613,1.613,0,0,0-.639.653,1.987,1.987,0,0,0-.229.963,1.98,1.98,0,0,0,.229.968,1.62,1.62,0,0,0,.639.648,1.854,1.854,0,0,0,.922.23,1.8,1.8,0,0,0,.783-.171,1.459,1.459,0,0,0,.594-.522l.477.324a1.81,1.81,0,0,1-.765.7A2.439,2.439,0,0,1,8.334.045Zm5.652-.333a1.21,1.21,0,0,1-.446.248,1.794,1.794,0,0,1-.553.085,1.388,1.388,0,0,1-1.026-.36,1.375,1.375,0,0,1-.36-1.017V-4.194h-.846v-.54H11.6V-5.769h.639v1.035h1.44v.54H12.24v2.826a.9.9,0,0,0,.211.643.8.8,0,0,0,.608.22,1.176,1.176,0,0,0,.383-.063.951.951,0,0,0,.319-.18Zm2.925.333a2.46,2.46,0,0,1-1.233-.311,2.264,2.264,0,0,1-.864-.859A2.45,2.45,0,0,1,14.5-2.367a2.45,2.45,0,0,1,.315-1.242,2.232,2.232,0,0,1,.864-.855,2.489,2.489,0,0,1,1.233-.306,2.489,2.489,0,0,1,1.233.306,2.2,2.2,0,0,1,.86.855,2.478,2.478,0,0,1,.31,1.242A2.478,2.478,0,0,1,19-1.125a2.232,2.232,0,0,1-.86.859A2.46,2.46,0,0,1,16.911.045Zm0-.567a1.786,1.786,0,0,0,.9-.23,1.6,1.6,0,0,0,.626-.653,2.019,2.019,0,0,0,.225-.963,2.019,2.019,0,0,0-.225-.963,1.6,1.6,0,0,0-.626-.653,1.786,1.786,0,0,0-.9-.229,1.786,1.786,0,0,0-.9.229,1.63,1.63,0,0,0-.63.653,1.987,1.987,0,0,0-.229.963,1.987,1.987,0,0,0,.229.963,1.63,1.63,0,0,0,.63.653A1.786,1.786,0,0,0,16.911-.522Zm4.32-3.285a1.548,1.548,0,0,1,.67-.72A2.278,2.278,0,0,1,23-4.77v.621l-.153-.009a1.512,1.512,0,0,0-1.17.459,1.829,1.829,0,0,0-.423,1.287V0h-.639V-4.734h.612Zm2.925-.927H24.8V0h-.639Zm.324-1.035a.452.452,0,0,1-.333-.135.442.442,0,0,1-.135-.324.432.432,0,0,1,.135-.315.452.452,0,0,1,.333-.135.461.461,0,0,1,.333.13.417.417,0,0,1,.135.311.452.452,0,0,1-.135.333A.452.452,0,0,1,24.48-5.769Zm3.753,1a2,2,0,0,1,1.422.463,1.791,1.791,0,0,1,.495,1.372V0h-.612V-.738a1.465,1.465,0,0,1-.634.576,2.221,2.221,0,0,1-.995.207,1.947,1.947,0,0,1-1.26-.378,1.221,1.221,0,0,1-.468-1,1.21,1.21,0,0,1,.436-.972,2.136,2.136,0,0,1,1.391-.369h1.5v-.288a1.213,1.213,0,0,0-.342-.931,1.412,1.412,0,0,0-1-.319,2.54,2.54,0,0,0-.864.148,2.177,2.177,0,0,0-.711.41l-.288-.477a2.554,2.554,0,0,1,.864-.472A3.364,3.364,0,0,1,28.233-4.77ZM28.008-.459a1.684,1.684,0,0,0,.927-.248,1.478,1.478,0,0,0,.576-.715V-2.2H28.026q-1.215,0-1.215.846a.774.774,0,0,0,.315.653A1.434,1.434,0,0,0,28.008-.459Z" transform="translate(34.323 45.717)" fill="#3c4357"/>
        <path id="Trazado_25455" data-name="Trazado 25455" d="M-10.224-6.336V0H-35.616V-5.04l12.96-12.24a13.763,13.763,0,0,0,2.784-3.384,6.156,6.156,0,0,0,.72-2.808,3.713,3.713,0,0,0-1.368-3.1,6.366,6.366,0,0,0-4.008-1.08,9.2,9.2,0,0,0-3.984.84,7.629,7.629,0,0,0-2.976,2.52l-5.664-3.648a13.287,13.287,0,0,1,5.424-4.584,18.115,18.115,0,0,1,7.92-1.656,16.283,16.283,0,0,1,6.552,1.224A10.1,10.1,0,0,1-12.888-29.5a8.942,8.942,0,0,1,1.56,5.256A11.716,11.716,0,0,1-12.48-19.1a19.771,19.771,0,0,1-4.464,5.472l-7.728,7.3ZM7.3.576A13.624,13.624,0,0,1-.144-1.488,13.851,13.851,0,0,1-5.256-7.464,21.69,21.69,0,0,1-7.1-16.8a21.69,21.69,0,0,1,1.848-9.336A13.851,13.851,0,0,1-.144-32.112,13.624,13.624,0,0,1,7.3-34.176a13.624,13.624,0,0,1,7.44,2.064,13.851,13.851,0,0,1,5.112,5.976A21.69,21.69,0,0,1,21.7-16.8a21.69,21.69,0,0,1-1.848,9.336,13.851,13.851,0,0,1-5.112,5.976A13.624,13.624,0,0,1,7.3.576ZM7.3-6A5.5,5.5,0,0,0,12.12-8.64q1.752-2.64,1.752-8.16T12.12-24.96A5.5,5.5,0,0,0,7.3-27.6,5.454,5.454,0,0,0,2.52-24.96Q.768-22.32.768-16.8T2.52-8.64A5.454,5.454,0,0,0,7.3-6Z" transform="translate(40 21.994)" fill="#38d5ae"/>
        <text id="años" transform="translate(15.14 22.572)" fill="#38d5ae" font-size="12" font-family="Montserrat-Regular, Montserrat" letter-spacing="0.2em"><tspan x="1.59" y="12">años</tspan></text>
      </g>
    </g>
  </g>
</svg>
