<svg xmlns="http://www.w3.org/2000/svg" xmlns:xlink="http://www.w3.org/1999/xlink" width="205.422" height="184.858" viewBox="0 0 205.422 184.858">
  <defs>
    <radialGradient id="radial-gradient" cx="0.353" cy="0.228" r="0.857" gradientTransform="translate(0.045) scale(0.91 1)" gradientUnits="objectBoundingBox">
      <stop offset="0" stop-color="#828282"/>
      <stop offset="0.301" stop-color="#838384" stop-opacity="0.98"/>
      <stop offset="0.469" stop-color="#8a8a8a" stop-opacity="0.918"/>
      <stop offset="0.604" stop-color="#959696" stop-opacity="0.812"/>
      <stop offset="0.721" stop-color="#a6a6a7" stop-opacity="0.663"/>
      <stop offset="0.828" stop-color="#bbbbbc" stop-opacity="0.467"/>
      <stop offset="0.924" stop-color="#d4d5d6" stop-opacity="0.231"/>
      <stop offset="1" stop-color="#edeef0" stop-opacity="0"/>
    </radialGradient>
    <linearGradient id="linear-gradient" y1="0.5" x2="1" y2="0.5" gradientUnits="objectBoundingBox">
      <stop offset="0" stop-color="#339eed"/>
      <stop offset="1" stop-color="#38d5ae"/>
    </linearGradient>
    <radialGradient id="radial-gradient-2" cx="0.076" cy="0.019" r="1.465" gradientTransform="translate(0.001)" gradientUnits="objectBoundingBox">
      <stop offset="0" stop-color="#f7f7f8"/>
      <stop offset="0.505" stop-color="#fafafb"/>
      <stop offset="0.715" stop-color="#fff"/>
    </radialGradient>
  </defs>
  <g id="Grupo_1676" data-name="Grupo 1676" transform="translate(-326.939 -159.202)">
    <g id="Grupo_1662" data-name="Grupo 1662" transform="translate(326.939 159.202)">
      <path id="Trazado_25431" data-name="Trazado 25431" d="M411.972,313.242l49.1,49.1a12.624,12.624,0,0,0,4.437.014c35.936-5.821,74.671-35.011,78.576-80.795.1-1.221-.207.36-.265-.852l-38.372-38.37Z" transform="translate(-341.679 -180.131)" fill="url(#radial-gradient)"/>
      <path id="Trazado_25432" data-name="Trazado 25432" d="M438.932,166.2a91.573,91.573,0,0,0-56.194,19.039l2.983,3.891A86.711,86.711,0,0,1,438.932,171.1a87.526,87.526,0,0,1,0,175.053c-24.154,0-48.123-10.762-64.621-28.42H333.286V303.143c28.56-26.275,49.185-45.27,49.185-62.095,0-11.261-6.308-17.983-16.874-17.983-8.129,0-14.425,5.388-19.224,10.086L332.79,219.567c11.734-11.9,22.034-16.378,37.244-16.378,22.645,0,37.859,14.472,37.859,36.01,0,18.087-17.611,38.428-32.955,54.128l-4.9,5.014,6.956-.869a186.291,186.291,0,0,1,19.3-1.459h17.15v24.176h4.9V291.11H396.291c-3.567,0-8.537.334-13.165.769,14.687-15.6,29.67-34.739,29.67-52.68,0-12.041-4.167-22.329-12.05-29.752-7.755-7.3-18.374-11.16-30.711-11.16-17.237,0-29.143,5.5-42.463,19.63l-1.632,1.732,20.428,20.427,1.733-1.733c5.678-5.678,10.913-10.377,17.5-10.377,7.831,0,11.971,4.523,11.971,13.081,0,14.7-21.054,34.064-47.71,58.587l-1.475,1.356v21.648h43.881A92.425,92.425,0,1,0,438.932,166.2Z" transform="translate(-325.939 -166.202)" fill="url(#linear-gradient)"/>
      <g id="Grupo_1658" data-name="Grupo 1658" transform="translate(53.957 33.306)">
        <g id="Grupo_1657" data-name="Grupo 1657">
          <g id="Grupo_1655" data-name="Grupo 1655">
            <g id="Grupo_1654" data-name="Grupo 1654">
              <g id="Grupo_1653" data-name="Grupo 1653">
                <path id="Trazado_25433" data-name="Trazado 25433" d="M510.056,266.005a59.039,59.039,0,1,1-59.038-59.039A59.037,59.037,0,0,1,510.056,266.005Z" transform="translate(-391.978 -206.966)" fill="#fff"/>
              </g>
            </g>
          </g>
          <path id="Trazado_25434" data-name="Trazado 25434" d="M510.394,266.373a59.038,59.038,0,1,0-59.038,59.038A58.81,58.81,0,0,0,510.394,266.373Z" transform="translate(-392.316 -207.334)" fill="url(#radial-gradient-2)"/>
          <g id="Grupo_1656" data-name="Grupo 1656" transform="translate(10.46 33.146)">
            <path id="Trazado_25435" data-name="Trazado 25435" d="M506.428,247.534A59.046,59.046,0,0,1,404.78,306.328a58.858,58.858,0,0,0,101.648-58.794Z" transform="translate(-404.78 -247.534)" fill="#edeef0"/>
          </g>
        </g>
      </g>
      <g id="Grupo_1660" data-name="Grupo 1660" transform="translate(74.08 78.762)">
        <path id="Trazado_25453" data-name="Trazado 25453" d="M-40.811-4.77a2.431,2.431,0,0,1,1.206.3,2.156,2.156,0,0,1,.846.85,2.526,2.526,0,0,1,.306,1.251,2.544,2.544,0,0,1-.306,1.26,2.165,2.165,0,0,1-.841.85,2.424,2.424,0,0,1-1.211.3A2.238,2.238,0,0,1-41.85-.194a1.97,1.97,0,0,1-.761-.7V1.746h-.639v-6.48h.612V-3.8a1.968,1.968,0,0,1,.761-.72A2.231,2.231,0,0,1-40.811-4.77Zm-.045,4.248a1.793,1.793,0,0,0,.9-.23,1.621,1.621,0,0,0,.634-.653,1.987,1.987,0,0,0,.229-.963,1.961,1.961,0,0,0-.229-.958,1.66,1.66,0,0,0-.634-.652,1.766,1.766,0,0,0-.9-.234,1.759,1.759,0,0,0-.9.234,1.669,1.669,0,0,0-.63.652,1.961,1.961,0,0,0-.229.958,1.987,1.987,0,0,0,.229.963,1.63,1.63,0,0,0,.63.653A1.786,1.786,0,0,0-40.855-.522Zm5.337-4.248a2,2,0,0,1,1.422.463A1.791,1.791,0,0,1-33.6-2.934V0h-.612V-.738a1.465,1.465,0,0,1-.635.576,2.221,2.221,0,0,1-.994.207A1.947,1.947,0,0,1-37.1-.333a1.221,1.221,0,0,1-.468-1,1.21,1.21,0,0,1,.437-.972,2.136,2.136,0,0,1,1.39-.369h1.5v-.288a1.213,1.213,0,0,0-.342-.931,1.412,1.412,0,0,0-1-.319,2.54,2.54,0,0,0-.864.148,2.177,2.177,0,0,0-.711.41l-.288-.477A2.554,2.554,0,0,1-36.58-4.6,3.364,3.364,0,0,1-35.518-4.77Zm-.225,4.311a1.684,1.684,0,0,0,.927-.248,1.478,1.478,0,0,0,.576-.715V-2.2h-1.485q-1.215,0-1.215.846a.774.774,0,0,0,.315.653A1.434,1.434,0,0,0-35.743-.459Zm5.859.5A2.551,2.551,0,0,1-31.14-.261a2.215,2.215,0,0,1-.868-.859,2.475,2.475,0,0,1-.315-1.247,2.45,2.45,0,0,1,.315-1.242,2.224,2.224,0,0,1,.868-.855,2.551,2.551,0,0,1,1.256-.306,2.431,2.431,0,0,1,1.093.238,1.816,1.816,0,0,1,.761.7l-.477.324a1.492,1.492,0,0,0-.594-.527,1.763,1.763,0,0,0-.783-.175,1.854,1.854,0,0,0-.923.229,1.613,1.613,0,0,0-.639.653,1.987,1.987,0,0,0-.229.963,1.98,1.98,0,0,0,.229.968,1.62,1.62,0,0,0,.639.648,1.854,1.854,0,0,0,.923.23A1.8,1.8,0,0,0-29.1-.693a1.459,1.459,0,0,0,.594-.522l.477.324a1.81,1.81,0,0,1-.765.7A2.439,2.439,0,0,1-29.884.045Zm3.1-4.779h.639V0h-.639Zm.324-1.035a.452.452,0,0,1-.333-.135.442.442,0,0,1-.135-.324.432.432,0,0,1,.135-.315.452.452,0,0,1,.333-.135.461.461,0,0,1,.333.13.417.417,0,0,1,.135.311.452.452,0,0,1-.135.333A.452.452,0,0,1-26.455-5.769Zm6.219,3.6H-24.2a1.692,1.692,0,0,0,.567,1.192,1.882,1.882,0,0,0,1.3.455,2.042,2.042,0,0,0,.81-.158,1.769,1.769,0,0,0,.639-.464l.36.414a2.027,2.027,0,0,1-.788.576,2.663,2.663,0,0,1-1.039.2,2.628,2.628,0,0,1-1.292-.311,2.239,2.239,0,0,1-.878-.859,2.45,2.45,0,0,1-.315-1.242,2.537,2.537,0,0,1,.3-1.242,2.183,2.183,0,0,1,.828-.855,2.312,2.312,0,0,1,1.183-.306,2.288,2.288,0,0,1,1.179.306,2.169,2.169,0,0,1,.819.85,2.561,2.561,0,0,1,.3,1.246Zm-2.286-2.052a1.61,1.61,0,0,0-1.147.437A1.714,1.714,0,0,0-24.2-2.646h3.357a1.714,1.714,0,0,0-.527-1.139A1.621,1.621,0,0,0-22.522-4.221Zm6.012-.549a1.934,1.934,0,0,1,1.418.517,2.021,2.021,0,0,1,.526,1.507V0h-.639V-2.682a1.569,1.569,0,0,0-.369-1.125,1.386,1.386,0,0,0-1.053-.387,1.617,1.617,0,0,0-1.211.454,1.717,1.717,0,0,0-.445,1.255V0h-.639V-4.734h.612v.873a1.778,1.778,0,0,1,.725-.671A2.319,2.319,0,0,1-16.51-4.77Zm6.174,4.482a1.21,1.21,0,0,1-.446.248,1.794,1.794,0,0,1-.553.085,1.388,1.388,0,0,1-1.026-.36,1.375,1.375,0,0,1-.36-1.017V-4.194h-.846v-.54h.846V-5.769h.639v1.035h1.44v.54h-1.44v2.826a.9.9,0,0,0,.211.643.8.8,0,0,0,.608.22,1.176,1.176,0,0,0,.383-.063.951.951,0,0,0,.319-.18Zm5.112-1.881h-3.96A1.692,1.692,0,0,0-8.617-.976a1.882,1.882,0,0,0,1.3.455,2.042,2.042,0,0,0,.81-.158,1.769,1.769,0,0,0,.639-.464l.36.414A2.027,2.027,0,0,1-6.3-.153a2.663,2.663,0,0,1-1.04.2A2.628,2.628,0,0,1-8.631-.266a2.239,2.239,0,0,1-.877-.859,2.45,2.45,0,0,1-.315-1.242,2.537,2.537,0,0,1,.3-1.242,2.183,2.183,0,0,1,.828-.855A2.312,2.312,0,0,1-7.51-4.77a2.288,2.288,0,0,1,1.179.306,2.169,2.169,0,0,1,.819.85,2.561,2.561,0,0,1,.3,1.246ZM-7.51-4.221a1.61,1.61,0,0,0-1.148.437,1.714,1.714,0,0,0-.527,1.139h3.357a1.714,1.714,0,0,0-.526-1.139A1.621,1.621,0,0,0-7.51-4.221ZM-2.641.045a3.635,3.635,0,0,1-1.1-.166A2.371,2.371,0,0,1-4.567-.54l.288-.5a2.425,2.425,0,0,0,.747.382A2.967,2.967,0,0,0-2.6-.513a1.787,1.787,0,0,0,.959-.2.644.644,0,0,0,.31-.572A.514.514,0,0,0-1.5-1.7a1.136,1.136,0,0,0-.432-.225,6.162,6.162,0,0,0-.693-.148,7.945,7.945,0,0,1-.927-.22,1.362,1.362,0,0,1-.6-.382A1.064,1.064,0,0,1-4.4-3.42,1.171,1.171,0,0,1-3.9-4.392,2.223,2.223,0,0,1-2.524-4.77a3.574,3.574,0,0,1,.918.121,2.526,2.526,0,0,1,.756.319l-.279.513a2.389,2.389,0,0,0-1.395-.405,1.618,1.618,0,0,0-.922.216.662.662,0,0,0-.311.567.56.56,0,0,0,.176.432,1.079,1.079,0,0,0,.437.239,7.044,7.044,0,0,0,.72.158,8.282,8.282,0,0,1,.909.216,1.335,1.335,0,0,1,.585.369,1.015,1.015,0,0,1,.243.72,1.145,1.145,0,0,1-.517.985A2.46,2.46,0,0,1-2.641.045Zm7.425,0A2.46,2.46,0,0,1,3.551-.266a2.264,2.264,0,0,1-.864-.859,2.45,2.45,0,0,1-.315-1.242,2.45,2.45,0,0,1,.315-1.242,2.232,2.232,0,0,1,.864-.855A2.489,2.489,0,0,1,4.784-4.77a2.489,2.489,0,0,1,1.233.306,2.2,2.2,0,0,1,.86.855,2.478,2.478,0,0,1,.31,1.242,2.478,2.478,0,0,1-.31,1.242,2.232,2.232,0,0,1-.86.859A2.46,2.46,0,0,1,4.784.045Zm0-.567a1.786,1.786,0,0,0,.9-.23A1.6,1.6,0,0,0,6.314-1.4a2.019,2.019,0,0,0,.225-.963,2.019,2.019,0,0,0-.225-.963,1.6,1.6,0,0,0-.625-.653,1.786,1.786,0,0,0-.9-.229,1.786,1.786,0,0,0-.9.229,1.63,1.63,0,0,0-.63.653,1.987,1.987,0,0,0-.23.963,1.987,1.987,0,0,0,.23.963,1.63,1.63,0,0,0,.63.653A1.786,1.786,0,0,0,4.784-.522ZM10.931-4.77a2.431,2.431,0,0,1,1.206.3,2.156,2.156,0,0,1,.846.85,2.526,2.526,0,0,1,.306,1.251,2.544,2.544,0,0,1-.306,1.26,2.165,2.165,0,0,1-.842.85,2.424,2.424,0,0,1-1.21.3,2.238,2.238,0,0,1-1.04-.239,1.97,1.97,0,0,1-.76-.7V1.746H8.492v-6.48H9.1V-3.8a1.968,1.968,0,0,1,.76-.72A2.231,2.231,0,0,1,10.931-4.77ZM10.886-.522a1.793,1.793,0,0,0,.9-.23A1.621,1.621,0,0,0,12.42-1.4a1.987,1.987,0,0,0,.229-.963,1.961,1.961,0,0,0-.229-.958,1.66,1.66,0,0,0-.635-.652,1.766,1.766,0,0,0-.9-.234,1.759,1.759,0,0,0-.9.234,1.669,1.669,0,0,0-.63.652,1.961,1.961,0,0,0-.229.958,1.987,1.987,0,0,0,.229.963,1.63,1.63,0,0,0,.63.653A1.786,1.786,0,0,0,10.886-.522Zm7.83-1.647h-3.96a1.692,1.692,0,0,0,.567,1.192,1.882,1.882,0,0,0,1.3.455,2.042,2.042,0,0,0,.81-.158,1.769,1.769,0,0,0,.639-.464l.36.414a2.027,2.027,0,0,1-.788.576,2.663,2.663,0,0,1-1.039.2,2.628,2.628,0,0,1-1.292-.311,2.239,2.239,0,0,1-.877-.859,2.45,2.45,0,0,1-.315-1.242,2.537,2.537,0,0,1,.3-1.242,2.183,2.183,0,0,1,.828-.855,2.312,2.312,0,0,1,1.183-.306,2.288,2.288,0,0,1,1.179.306,2.169,2.169,0,0,1,.819.85,2.561,2.561,0,0,1,.3,1.246ZM16.429-4.221a1.61,1.61,0,0,0-1.147.437,1.714,1.714,0,0,0-.527,1.139h3.357a1.714,1.714,0,0,0-.527-1.139A1.621,1.621,0,0,0,16.429-4.221Zm4.212.414a1.548,1.548,0,0,1,.67-.72,2.278,2.278,0,0,1,1.1-.243v.621l-.153-.009a1.512,1.512,0,0,0-1.17.459,1.829,1.829,0,0,0-.423,1.287V0H20.03V-4.734h.612Zm4.572-.963a2,2,0,0,1,1.422.463,1.791,1.791,0,0,1,.5,1.372V0h-.612V-.738a1.465,1.465,0,0,1-.634.576,2.221,2.221,0,0,1-.995.207,1.947,1.947,0,0,1-1.26-.378,1.221,1.221,0,0,1-.468-1A1.21,1.21,0,0,1,23.6-2.3a2.136,2.136,0,0,1,1.391-.369h1.5v-.288a1.213,1.213,0,0,0-.342-.931,1.412,1.412,0,0,0-1-.319,2.54,2.54,0,0,0-.864.148,2.177,2.177,0,0,0-.711.41l-.288-.477a2.554,2.554,0,0,1,.864-.472A3.364,3.364,0,0,1,25.214-4.77ZM24.989-.459a1.684,1.684,0,0,0,.927-.248,1.478,1.478,0,0,0,.576-.715V-2.2H25.007q-1.215,0-1.215.846a.774.774,0,0,0,.315.653A1.434,1.434,0,0,0,24.989-.459Zm8.217-6.219V0h-.612V-.936a1.949,1.949,0,0,1-.76.729,2.231,2.231,0,0,1-1.067.252,2.4,2.4,0,0,1-1.206-.306,2.187,2.187,0,0,1-.846-.855,2.526,2.526,0,0,1-.306-1.251,2.526,2.526,0,0,1,.306-1.251,2.156,2.156,0,0,1,.846-.85,2.431,2.431,0,0,1,1.206-.3,2.238,2.238,0,0,1,1.04.238,1.97,1.97,0,0,1,.76.7V-6.678ZM30.821-.522a1.769,1.769,0,0,0,.9-.23,1.63,1.63,0,0,0,.63-.653,1.987,1.987,0,0,0,.229-.963,1.987,1.987,0,0,0-.229-.963,1.63,1.63,0,0,0-.63-.653,1.769,1.769,0,0,0-.9-.229,1.786,1.786,0,0,0-.9.229,1.63,1.63,0,0,0-.63.653,1.987,1.987,0,0,0-.229.963,1.987,1.987,0,0,0,.229.963,1.63,1.63,0,0,0,.63.653A1.786,1.786,0,0,0,30.821-.522Zm6.1.567a2.46,2.46,0,0,1-1.233-.311,2.264,2.264,0,0,1-.864-.859,2.45,2.45,0,0,1-.315-1.242,2.45,2.45,0,0,1,.315-1.242,2.232,2.232,0,0,1,.864-.855,2.489,2.489,0,0,1,1.233-.306,2.489,2.489,0,0,1,1.233.306,2.2,2.2,0,0,1,.859.855,2.478,2.478,0,0,1,.311,1.242,2.478,2.478,0,0,1-.311,1.242,2.232,2.232,0,0,1-.859.859A2.46,2.46,0,0,1,36.923.045Zm0-.567a1.786,1.786,0,0,0,.9-.23,1.6,1.6,0,0,0,.625-.653,2.019,2.019,0,0,0,.225-.963,2.019,2.019,0,0,0-.225-.963,1.6,1.6,0,0,0-.625-.653,1.786,1.786,0,0,0-.9-.229,1.786,1.786,0,0,0-.9.229,1.63,1.63,0,0,0-.63.653,1.987,1.987,0,0,0-.229.963,1.987,1.987,0,0,0,.229.963,1.63,1.63,0,0,0,.63.653A1.786,1.786,0,0,0,36.923-.522ZM41.9.045a3.635,3.635,0,0,1-1.1-.166,2.371,2.371,0,0,1-.823-.418l.288-.5a2.425,2.425,0,0,0,.747.382,2.967,2.967,0,0,0,.936.148,1.787,1.787,0,0,0,.959-.2.644.644,0,0,0,.31-.572.514.514,0,0,0-.171-.41,1.136,1.136,0,0,0-.432-.225,6.162,6.162,0,0,0-.693-.148,7.945,7.945,0,0,1-.927-.22,1.362,1.362,0,0,1-.6-.382,1.064,1.064,0,0,1-.248-.747,1.171,1.171,0,0,1,.5-.972,2.223,2.223,0,0,1,1.377-.378,3.574,3.574,0,0,1,.918.121,2.526,2.526,0,0,1,.756.319l-.279.513a2.389,2.389,0,0,0-1.4-.405,1.618,1.618,0,0,0-.923.216.662.662,0,0,0-.311.567.56.56,0,0,0,.176.432,1.079,1.079,0,0,0,.436.239,7.044,7.044,0,0,0,.72.158,8.282,8.282,0,0,1,.909.216,1.335,1.335,0,0,1,.585.369,1.015,1.015,0,0,1,.243.72,1.145,1.145,0,0,1-.517.985A2.46,2.46,0,0,1,41.9.045Z" transform="translate(42 32.843)" fill="#3c4357"/>
        <path id="Trazado_25454" data-name="Trazado 25454" d="M-27.8-26.6v3.99L-37.677,0h-6.688l9.538-21.584h-8.816v4.332h-5.472V-26.6ZM-14.421.456a10.785,10.785,0,0,1-5.89-1.634,10.965,10.965,0,0,1-4.047-4.731A17.171,17.171,0,0,1-25.821-13.3a17.171,17.171,0,0,1,1.463-7.391,10.965,10.965,0,0,1,4.047-4.731,10.785,10.785,0,0,1,5.89-1.634,10.785,10.785,0,0,1,5.89,1.634,10.965,10.965,0,0,1,4.047,4.731A17.171,17.171,0,0,1-3.021-13.3,17.171,17.171,0,0,1-4.484-5.909,10.965,10.965,0,0,1-8.531-1.178,10.785,10.785,0,0,1-14.421.456Zm0-5.206A4.35,4.35,0,0,0-10.6-6.84q1.387-2.09,1.387-6.46T-10.6-19.76a4.35,4.35,0,0,0-3.819-2.09A4.318,4.318,0,0,0-18.2-19.76q-1.387,2.09-1.387,6.46T-18.2-6.84A4.318,4.318,0,0,0-14.421-4.75ZM11.381.456a10.785,10.785,0,0,1-5.89-1.634A10.965,10.965,0,0,1,1.444-5.909,17.171,17.171,0,0,1-.019-13.3a17.171,17.171,0,0,1,1.463-7.391,10.965,10.965,0,0,1,4.047-4.731,10.785,10.785,0,0,1,5.89-1.634,10.785,10.785,0,0,1,5.89,1.634,10.965,10.965,0,0,1,4.047,4.731A17.171,17.171,0,0,1,22.781-13.3a17.171,17.171,0,0,1-1.463,7.391,10.965,10.965,0,0,1-4.047,4.731A10.785,10.785,0,0,1,11.381.456Zm0-5.206A4.35,4.35,0,0,0,15.2-6.84q1.387-2.09,1.387-6.46T15.2-19.76a4.35,4.35,0,0,0-3.819-2.09A4.318,4.318,0,0,0,7.6-19.76Q6.213-17.67,6.213-13.3T7.6-6.84A4.318,4.318,0,0,0,11.381-4.75ZM37.183.456a10.785,10.785,0,0,1-5.89-1.634,10.965,10.965,0,0,1-4.047-4.731A17.171,17.171,0,0,1,25.783-13.3a17.171,17.171,0,0,1,1.463-7.391,10.965,10.965,0,0,1,4.047-4.731,10.785,10.785,0,0,1,5.89-1.634,10.785,10.785,0,0,1,5.89,1.634,10.965,10.965,0,0,1,4.047,4.731A17.171,17.171,0,0,1,48.583-13.3,17.171,17.171,0,0,1,47.12-5.909a10.965,10.965,0,0,1-4.047,4.731A10.785,10.785,0,0,1,37.183.456Zm0-5.206A4.35,4.35,0,0,0,41-6.84q1.387-2.09,1.387-6.46T41-19.76a4.35,4.35,0,0,0-3.819-2.09A4.318,4.318,0,0,0,33.4-19.76q-1.387,2.09-1.387,6.46T33.4-6.84A4.318,4.318,0,0,0,37.183-4.75Z" transform="translate(41.342 20)" fill="#38d5ae"/>
      </g>
    </g>
  </g>
</svg>
