<svg xmlns="http://www.w3.org/2000/svg" width="66.012" height="49.761" viewBox="0 0 66.012 49.761">
  <g id="Grupo_1670" data-name="Grupo 1670" transform="translate(-652.825 -376.167)">
    <path id="Trazado_25436" data-name="Trazado 25436" d="M658.325,419.915V407.728a4.062,4.062,0,0,0,4.062-4.062H709.1a4.062,4.062,0,0,0,4.062,4.062v12.187a4.062,4.062,0,0,0-4.062,4.062H662.387A4.062,4.062,0,0,0,658.325,419.915Z" transform="translate(0.086 0.428)" fill="#d6ffef"/>
    <path id="Trazado_25437" data-name="Trazado 25437" d="M715.282,425.648h-58.9a3.558,3.558,0,0,1-3.554-3.554V397.72a3.558,3.558,0,0,1,3.554-3.554h58.9a3.558,3.558,0,0,1,3.555,3.554v24.374A3.558,3.558,0,0,1,715.282,425.648Zm-58.9-28.436a.509.509,0,0,0-.508.508v24.374a.509.509,0,0,0,.508.508h58.9a.509.509,0,0,0,.508-.508V397.72a.509.509,0,0,0-.508-.508Z" transform="translate(0 0.28)" fill="#38d5ae"/>
    <path id="Trazado_25438" data-name="Trazado 25438" d="M709.127,421.524H662.411A1.524,1.524,0,0,1,660.887,420a2.541,2.541,0,0,0-2.539-2.539,1.524,1.524,0,0,1-1.523-1.523V403.752a1.524,1.524,0,0,1,1.523-1.523,2.541,2.541,0,0,0,2.539-2.539,1.524,1.524,0,0,1,1.523-1.523h46.716a1.524,1.524,0,0,1,1.523,1.523,2.541,2.541,0,0,0,2.539,2.539,1.524,1.524,0,0,1,1.523,1.523v12.187a1.524,1.524,0,0,1-1.523,1.523A2.541,2.541,0,0,0,710.65,420,1.524,1.524,0,0,1,709.127,421.524Zm-45.4-3.047h44.092a5.608,5.608,0,0,1,3.851-3.851v-9.563a5.606,5.606,0,0,1-3.851-3.851H663.723a5.6,5.6,0,0,1-3.851,3.851v9.563A5.606,5.606,0,0,1,663.723,418.477Z" transform="translate(0.062 0.342)" fill="#38d5ae"/>
    <path id="Trazado_25439" data-name="Trazado 25439" d="M665.379,413.275a3.554,3.554,0,1,1,3.555-3.555A3.558,3.558,0,0,1,665.379,413.275Zm0-4.062a.508.508,0,1,0,.508.508A.509.509,0,0,0,665.379,409.213Z" transform="translate(0.14 0.467)" fill="#38d5ae"/>
    <path id="Trazado_25440" data-name="Trazado 25440" d="M705.38,413.275a3.554,3.554,0,1,1,3.554-3.555A3.558,3.558,0,0,1,705.38,413.275Zm0-4.062a.508.508,0,1,0,.508.508A.509.509,0,0,0,705.38,409.213Z" transform="translate(0.763 0.467)" fill="#38d5ae"/>
    <path id="Trazado_25441" data-name="Trazado 25441" d="M685.442,417.4a7.617,7.617,0,1,1,7.617-7.617A7.625,7.625,0,0,1,685.442,417.4Zm0-12.187a4.57,4.57,0,1,0,4.57,4.57A4.576,4.576,0,0,0,685.442,405.213Z" transform="translate(0.389 0.405)" fill="#38d5ae"/>
    <path id="Trazado_25442" data-name="Trazado 25442" d="M671.345,411.216a1.53,1.53,0,0,1-1.077-2.61,1.593,1.593,0,0,1,2.153,0,1.531,1.531,0,0,1,0,2.162A1.519,1.519,0,0,1,671.345,411.216Z" transform="translate(0.265 0.498)" fill="#38d5ae"/>
    <path id="Trazado_25443" data-name="Trazado 25443" d="M675.345,411.216a1.523,1.523,0,0,1-1.077-2.6,1.574,1.574,0,0,1,2.153,0,1.524,1.524,0,0,1-1.076,2.6Z" transform="translate(0.327 0.498)" fill="#38d5ae"/>
    <path id="Trazado_25444" data-name="Trazado 25444" d="M695.345,411.217a1.53,1.53,0,0,1-1.076-2.61,1.523,1.523,0,0,1,2.6,1.087,1.59,1.59,0,0,1-.437,1.075A1.56,1.56,0,0,1,695.345,411.217Z" transform="translate(0.638 0.498)" fill="#38d5ae"/>
    <path id="Trazado_25445" data-name="Trazado 25445" d="M699.345,411.217a1.527,1.527,0,0,1-1.523-1.523,1.563,1.563,0,0,1,.447-1.087,1.582,1.582,0,0,1,2.153,0,1.564,1.564,0,0,1,.447,1.087,1.536,1.536,0,0,1-.447,1.075A1.519,1.519,0,0,1,699.345,411.217Z" transform="translate(0.7 0.498)" fill="#38d5ae"/>
    <path id="Trazado_25446" data-name="Trazado 25446" d="M670.1,397.493a1.523,1.523,0,0,1-.787-2.827l29.837-18a3.512,3.512,0,0,1,4.794,1.167l10.615,17.339a1.523,1.523,0,0,1-2.6,1.59l-10.613-17.336a.469.469,0,0,0-.627-.152l-29.836,18A1.51,1.51,0,0,1,670.1,397.493Z" transform="translate(0.245)" fill="#38d5ae"/>
    <path id="Trazado_25447" data-name="Trazado 25447" d="M685.983,392.385a1.523,1.523,0,0,1-.787-2.827l8.77-5.29a1.523,1.523,0,1,1,1.573,2.608l-8.771,5.29A1.5,1.5,0,0,1,685.983,392.385Z" transform="translate(0.492 0.123)" fill="#38d5ae"/>
    <path id="Trazado_25448" data-name="Trazado 25448" d="M698.074,385.028a1.524,1.524,0,0,1-.789-2.827l1.755-1.059a1.523,1.523,0,0,1,1.575,2.608l-1.755,1.059A1.509,1.509,0,0,1,698.074,385.028Z" transform="translate(0.681 0.074)" fill="#38d5ae"/>
  </g>
</svg>
