<svg xmlns="http://www.w3.org/2000/svg" width="59" height="63" viewBox="0 0 59 63">
  <g id="Grupo_1535" data-name="Grupo 1535" transform="translate(-670 -1059)">
    <g id="_014-clipboard" data-name="014-clipboard" transform="translate(677 1059)">
      <g id="Grupo_1434" data-name="Grupo 1434" transform="translate(0)">
        <g id="Grupo_1433" data-name="Grupo 1433">
          <path id="Trazado_25371" data-name="Trazado 25371" d="M106.457,2.934V0H88.631V2.934H75.367V62.861h44.355V2.934Zm-14.143.749h10.459V8.6H92.315Zm17.755,8.6v40.9H85.019v-40.9Zm5.969,46.9H79.05V6.618h9.581V8.6h-7.3V56.87h32.416V8.6h-7.3V6.618h9.581v52.56Z" transform="translate(-75.367)" fill="#38d5ae"/>
        </g>
      </g>
      <g id="Grupo_1436" data-name="Grupo 1436" transform="translate(13.334 29.466)">
        <g id="Grupo_1435" data-name="Grupo 1435">
          <rect id="Rectángulo_1128" data-name="Rectángulo 1128" width="17.688" height="3.683" fill="#38d5ae"/>
        </g>
      </g>
      <g id="Grupo_1438" data-name="Grupo 1438" transform="translate(13.334 37.048)">
        <g id="Grupo_1437" data-name="Grupo 1437">
          <rect id="Rectángulo_1129" data-name="Rectángulo 1129" width="17.688" height="3.683" fill="#38d5ae"/>
        </g>
      </g>
      <g id="Grupo_1440" data-name="Grupo 1440" transform="translate(13.334 44.628)">
        <g id="Grupo_1439" data-name="Grupo 1439">
          <rect id="Rectángulo_1130" data-name="Rectángulo 1130" width="17.688" height="3.683" fill="#38d5ae"/>
        </g>
      </g>
      <g id="Grupo_1442" data-name="Grupo 1442" transform="translate(14.587 15.035)">
        <g id="Grupo_1441" data-name="Grupo 1441">
          <path id="Trazado_25372" data-name="Trazado 25372" d="M207.546,122.461l-6.524,6.419-4.762-3.269-2.085,3.037,7.265,4.988,8.688-8.548Z" transform="translate(-194.176 -122.461)" fill="#38d5ae"/>
        </g>
      </g>
    </g>
    <rect id="Rectángulo_1148" data-name="Rectángulo 1148" width="59" height="63" transform="translate(670 1059)" fill="none"/>
  </g>
</svg>
