<svg xmlns="http://www.w3.org/2000/svg" xmlns:xlink="http://www.w3.org/1999/xlink" width="226.275" height="170.768" viewBox="0 0 226.275 170.768">
  <defs>
    <linearGradient id="linear-gradient" x1="0.5" y1="1" x2="0.5" gradientUnits="objectBoundingBox">
      <stop offset="0" stop-color="gray" stop-opacity="0.251"/>
      <stop offset="0.54" stop-color="gray" stop-opacity="0.122"/>
      <stop offset="1" stop-color="gray" stop-opacity="0.102"/>
    </linearGradient>
  </defs>
  <g id="Grupo_1639" data-name="Grupo 1639" transform="translate(-33.088 -144.98)">
    <g id="f1" transform="translate(33.088 144.98)">
      <path id="Trazado_1257" data-name="Trazado 1257" d="M202.538,103.533c-15.51-.539-30.294-5.546-44.389-11.024s-28.066-11.547-43.213-14.45c-9.739-1.869-20.876-2.132-28.721,3.089-7.551,5.023-9.99,13.695-11.3,21.74-.987,6.054,14.471,55.878,17.168,61.547,1.878,3.934-23.634,39.67-12.384,62.766s31.16,8.912,47.6,10.048c36.384,2.488,72.963,1.41,109.442.332,13.5-.4,31.613,11.873,44.893,9.781,26.269-7.726,13.311-43.405,8.756-50.477-7.64-11.859,35.54-77.262-11.7-109.921-11.966-5.433-28.561-4.747-37.388,4.232C232.205,100.448,216.23,104.007,202.538,103.533Z" transform="translate(-74.867 -76.836)" fill="rgba(51,237,117,0.1)"/>
      <g id="Grupo_1638" data-name="Grupo 1638" transform="translate(85.005 10.944)" opacity="0.76">
        <g id="Grupo_1637" data-name="Grupo 1637" transform="translate(0 0)">
          <path id="Rectángulo_730" data-name="Rectángulo 730" d="M20.286,0h5.2A20.287,20.287,0,0,1,45.772,20.287V39.609A20.286,20.286,0,0,1,25.486,59.895h-5.2A20.286,20.286,0,0,1,0,39.608V20.286A20.286,20.286,0,0,1,20.286,0Z" transform="translate(0 0)" fill="#fff"/>
          <g id="Grupo_1636" data-name="Grupo 1636" transform="translate(9.974 4.549)">
            <path id="Trazado_1471" data-name="Trazado 1471" d="M1269.107,276.727h-5.147v1.61h4.73v2.586h-4.73v2h5.326v2.586h-8.864V274.125h8.685Z" transform="translate(-1251.942 -274.125)" fill="#545151"/>
            <g id="Grupo_1630" data-name="Grupo 1630" transform="translate(3.681 14.288)">
              <path id="Trazado_1472" data-name="Trazado 1472" d="M1211.7,431.37v2.435h-2.386V426.3h5.715v1.717H1211.7v1.641h2.949v1.716Z" transform="translate(-1209.314 -426.296)" fill="#545151"/>
              <path id="Trazado_1473" data-name="Trazado 1473" d="M1327.859,433.806V426.3h4.038c4.391.011,4.391,5.589,0,5.589h-1.691v1.92Zm4.025-5.793c-.551-.011-1.141,0-1.678,0v2.146h1.678A1.076,1.076,0,0,0,1331.884,428.013Z" transform="translate(-1316.728 -426.296)" fill="#545151"/>
            </g>
            <g id="Grupo_1631" data-name="Grupo 1631" transform="translate(0.17 24.306)">
              <path id="Trazado_1474" data-name="Trazado 1474" d="M1171.916,535.4v-1.343h5.334V535.4H1175.5v4.534h-1.816V535.4Z" transform="translate(-1171.916 -533.957)" fill="#545151"/>
              <path id="Trazado_1475" data-name="Trazado 1475" d="M1266.216,536.033c0-4.063,7.366-4.063,7.366,0S1266.216,540.1,1266.216,536.033Zm5.488,0c0-2.116-3.6-2.116-3.6,0C1268.1,538.165,1271.7,538.165,1271.7,536.033Z" transform="translate(-1257.361 -532.986)" fill="#545151"/>
              <path id="Trazado_1476" data-name="Trazado 1476" d="M1387.969,534.285l-2.944,4.307H1388v1.343h-5.734v-.227l2.934-4.307h-2.667v-1.343h5.437Z" transform="translate(-1362.514 -533.957)" fill="#545151"/>
            </g>
            <g id="Grupo_1632" data-name="Grupo 1632" transform="translate(0.127 32.145)">
              <path id="Trazado_1477" data-name="Trazado 1477" d="M1172.864,619.909h1.979v1.026h-3.381v-4.463h1.4Z" transform="translate(-1171.462 -616.473)" fill="#545151"/>
              <path id="Trazado_1478" data-name="Trazado 1478" d="M1240.5,620.936v-4.463h2.4c2.61.006,2.61,3.321,0,3.321h-1v1.141Zm2.392-3.443c-.327-.006-.678,0-1,0v1.275h1A.639.639,0,0,0,1242.892,617.493Z" transform="translate(-1234.018 -616.473)" fill="#545151"/>
              <path id="Trazado_1479" data-name="Trazado 1479" d="M1324.31,617.493h-2.018v.631h1.854v1.014h-1.854v.784h2.088v1.014h-3.475v-4.463h3.4Z" transform="translate(-1306.873 -616.473)" fill="#545151"/>
              <path id="Trazado_1480" data-name="Trazado 1480" d="M1395.569,620.936h-2.057v-4.463h2.057C1399.121,616.486,1399.121,620.923,1395.569,620.936Zm-.662-1.039h.662a1.2,1.2,0,1,0,0-2.384h-.662Z" transform="translate(-1372.662 -616.473)" fill="#545151"/>
            </g>
            <g id="Grupo_1633" data-name="Grupo 1633" transform="translate(0.379 38.624)">
              <path id="Trazado_1481" data-name="Trazado 1481" d="M1174.144,689.171v-3.293h1.771a1.242,1.242,0,1,1,0,2.451h-.741v.842Zm1.765-2.54c-.241-.005-.5,0-.736,0v.94h.736A.472.472,0,0,0,1175.909,686.631Z" transform="translate(-1174.144 -685.84)" fill="#545151"/>
              <path id="Trazado_1482" data-name="Trazado 1482" d="M1235.988,686.631H1234.5v.466h1.368v.748H1234.5v.579h1.541v.748h-2.564v-3.293h2.512Z" transform="translate(-1227.905 -685.84)" fill="#545151"/>
              <path id="Trazado_1483" data-name="Trazado 1483" d="M1286.547,685.475a1.754,1.754,0,0,1,1.891,1.252h-1.012a.857.857,0,0,0-.879-.485.909.909,0,0,0-1,.917.94.94,0,0,0,1,.913.855.855,0,0,0,.9-.532h1.012a1.739,1.739,0,0,1-1.908,1.3,1.717,1.717,0,1,1,0-3.364Z" transform="translate(-1274.123 -685.475)" fill="#545151"/>
              <path id="Trazado_1484" data-name="Trazado 1484" d="M1353.066,688.1v1.068h-1.046v-3.293h2.506v.753h-1.46v.72h1.293v.753Z" transform="translate(-1335.318 -685.84)" fill="#545151"/>
              <path id="Trazado_1485" data-name="Trazado 1485" d="M1405.525,689.171h-1.518v-3.293h1.518C1408.146,685.888,1408.146,689.162,1405.525,689.171Zm-.489-.767h.489a.883.883,0,1,0,0-1.759h-.489Z" transform="translate(-1382.424 -685.84)" fill="#545151"/>
            </g>
            <g id="Grupo_1634" data-name="Grupo 1634" transform="translate(0.3 44.162)">
              <path id="Trazado_1486" data-name="Trazado 1486" d="M1175.4,745.414h-1.245v.389h1.144v.625h-1.144v.484h1.288v.626H1173.3v-2.754h2.1Z" transform="translate(-1173.303 -744.753)" fill="#545151"/>
              <path id="Trazado_1487" data-name="Trazado 1487" d="M1219.37,747.539H1218.1v-2.754h1.269C1221.562,744.793,1221.562,747.531,1219.37,747.539Zm-.408-.641h.408a.739.739,0,1,0,0-1.471h-.408Z" transform="translate(-1213.895 -744.753)" fill="#545151"/>
              <path id="Trazado_1488" data-name="Trazado 1488" d="M1271.045,746.646v.893h-.875v-2.754h2.1v.629h-1.221v.6h1.082v.629Z" transform="translate(-1261.075 -744.753)" fill="#545151"/>
              <path id="Trazado_1489" data-name="Trazado 1489" d="M1313.213,744.448a1.467,1.467,0,0,1,1.581,1.047h-.846a.717.717,0,0,0-.735-.405.76.76,0,0,0-.836.767.786.786,0,0,0,.836.763.715.715,0,0,0,.75-.445h.846a1.454,1.454,0,0,1-1.6,1.086,1.436,1.436,0,1,1,0-2.813Z" transform="translate(-1298.512 -744.448)" fill="#545151"/>
              <path id="Trazado_1490" data-name="Trazado 1490" d="M1367.253,744.891l-1.38,2.018h1.394v.629h-2.687v-.106l1.375-2.018h-1.25v-.629h2.548Z" transform="translate(-1346.62 -744.753)" fill="#545151"/>
              <path id="Trazado_1491" data-name="Trazado 1491" d="M1413.319,747.539v-2.754h1.481a1.039,1.039,0,1,1,0,2.049h-.62v.7Zm1.476-2.124c-.2,0-.418,0-.615,0v.786h.615A.394.394,0,0,0,1414.795,745.414Z" transform="translate(-1390.782 -744.753)" fill="#545151"/>
            </g>
            <g id="Grupo_1635" data-name="Grupo 1635" transform="translate(0 48.65)">
              <path id="Trazado_1492" data-name="Trazado 1492" d="M1171.062,794.691h-.953v-2.067h.953C1172.707,792.63,1172.707,794.685,1171.062,794.691Zm-.307-.481h.307a.554.554,0,1,0,0-1.1h-.307Z" transform="translate(-1170.109 -792.589)" fill="#545151"/>
              <path id="Trazado_1493" data-name="Trazado 1493" d="M1210.774,793.1h-.934v.293h.859v.469h-.859v.363h.967v.469H1209.2v-2.067h1.577Z" transform="translate(-1205.527 -792.589)" fill="#545151"/>
              <path id="Trazado_1494" data-name="Trazado 1494" d="M1243.484,794.021v.67h-.657v-2.067h1.573v.472h-.917v.452h.812v.473Z" transform="translate(-1235.999 -792.589)" fill="#545151"/>
              <path id="Trazado_1495" data-name="Trazado 1495" d="M1275.457,794.691v-2.067h1.111a.78.78,0,1,1,0,1.539h-.465v.528Zm1.108-1.595c-.151,0-.314,0-.462,0v.591h.462A.3.3,0,0,0,1276.565,793.1Z" transform="translate(-1265.565 -792.589)" fill="#545151"/>
              <path id="Trazado_1496" data-name="Trazado 1496" d="M1311.048,793.319c0-1.429,2.591-1.429,2.591,0S1311.048,794.751,1311.048,793.319Zm1.93,0c0-.744-1.267-.744-1.267,0S1312.979,794.069,1312.979,793.319Z" transform="translate(-1297.814 -792.247)" fill="#545151"/>
              <path id="Trazado_1497" data-name="Trazado 1497" d="M1351.75,793.1v-.472h1.876v.472h-.617v1.595h-.639V793.1Z" transform="translate(-1334.694 -792.589)" fill="#545151"/>
              <path id="Trazado_1498" data-name="Trazado 1498" d="M1388.148,793.1h-.934v.293h.859v.469h-.859v.363h.967v.469h-1.609v-2.067h1.577Z" transform="translate(-1366.246 -792.589)" fill="#545151"/>
              <path id="Trazado_1499" data-name="Trazado 1499" d="M1419.884,792.374a1.1,1.1,0,0,1,1.187.785h-.635a.538.538,0,0,0-.552-.3.571.571,0,0,0-.628.576.59.59,0,0,0,.628.573.537.537,0,0,0,.563-.334h.635a1.091,1.091,0,0,1-1.2.815,1.078,1.078,0,1,1,0-2.111Z" transform="translate(-1395.257 -792.362)" fill="#545151"/>
            </g>
          </g>
        </g>
      </g>
      <g id="Grupo_1622" data-name="Grupo 1622" transform="translate(96.806 17.032)">
        <path id="Trazado_1270" data-name="Trazado 1270" d="M873.445,376.06c-1.514-.25-5.445-3.724-5.445-3.724s4.845-2.018,6.357-1.768a2.782,2.782,0,1,1-.9,5.49Z" transform="translate(-797.91 -312.911)" fill="#6c63ff"/>
        <path id="Trazado_1273" data-name="Trazado 1273" d="M834.852,353.022c.2,1.514,3.552,5.56,3.552,5.56s2.16-4.78,1.956-6.3a2.779,2.779,0,1,0-5.507.74Z" transform="translate(-771.01 -296.098)" fill="#6c63ff"/>
        <path id="Trazado_1277" data-name="Trazado 1277" d="M873.445,376.06c-1.514-.25-5.445-3.724-5.445-3.724s4.845-2.018,6.357-1.768a2.782,2.782,0,1,1-.9,5.49Z" transform="translate(-797.91 -312.911)" opacity="0.25"/>
        <path id="Trazado_1280" data-name="Trazado 1280" d="M834.852,353.022c.2,1.514,3.552,5.56,3.552,5.56s2.16-4.78,1.956-6.3a2.779,2.779,0,1,0-5.507.74Z" transform="translate(-771.01 -296.098)" opacity="0.25"/>
        <path id="Trazado_1285" data-name="Trazado 1285" d="M855.592,351.506c-1.486.379-6.492-1.187-6.492-1.187s3.61-3.807,5.1-4.193a2.779,2.779,0,0,1,1.4,5.38Z" transform="translate(-782.588 -293.041)" fill="#6c63ff"/>
        <path id="Trazado_1287" data-name="Trazado 1287" d="M841.491,289.248c1.013,1.153,6.037,2.664,6.037,2.664s-.848-5.178-1.861-6.331a2.779,2.779,0,1,0-4.177,3.667Z" transform="translate(-775.859 -243.263)" fill="#6c63ff"/>
        <path id="Trazado_1288" data-name="Trazado 1288" d="M812.018,352.091c.8,1.306,5.5,3.644,5.5,3.644s.04-5.246-.757-6.554a2.779,2.779,0,0,0-4.733,2.91Z" transform="translate(-752.234 -294.574)" fill="#6c63ff"/>
        <path id="Trazado_1289" data-name="Trazado 1289" d="M784.44,139.17c.314-1.153.693-2.312.958-3.48C785.08,136.858,784.7,138.02,784.44,139.17Z" transform="translate(-730.169 -122.516)" fill="url(#linear-gradient)"/>
        <path id="Trazado_1291" data-name="Trazado 1291" d="M521.93,355.3l-1.136.5s-7.4,28.764-7.4,31.089,15.7,15.261,15.7,15.261l2.45-16.535S528.022,347.7,521.93,355.3Z" transform="translate(-510.432 -299.732)" fill="#d6e8f5"/>
        <path id="Trazado_1292" data-name="Trazado 1292" d="M685.512,214.825l-6.56-3.423a13.14,13.14,0,0,0-1.923-4.383,9.764,9.764,0,0,0-3.826-3.457c-4.019-1.8,17-11.262,17-11.262a34.2,34.2,0,0,0,1.168,3.351c1.083,2.673,2.879,6.13,5.195,7.114C700.5,204.441,685.512,214.825,685.512,214.825Z" transform="translate(-639.576 -168.409)" fill="#ffc1c7"/>
        <path id="Trazado_1293" data-name="Trazado 1293" d="M691.371,195.651a15.671,15.671,0,0,1-14.342,11.368,9.763,9.763,0,0,0-3.826-3.457c-4.019-1.8,17-11.262,17-11.262A34.216,34.216,0,0,0,691.371,195.651Z" transform="translate(-639.576 -168.409)" opacity="0.1"/>
        <path id="Trazado_1295" data-name="Trazado 1295" d="M628.355,229.807l-4.271,9.966-3.767,6.615H608.257l-3.517-9.044,1.426-9.379h9.21l5.946-.335,2.009-.67,1.295.735Z" transform="translate(-573.709 -185.402)" fill="#575a89"/>
        <path id="Trazado_1296" data-name="Trazado 1296" d="M734.386,230.46s2.664.568.278,2.524-10.615,8.175-10.615,8.175,2.891,2.575,2.293,5.59l9.577-5.339,1.7-8.542S737.815,230.3,734.386,230.46Z" transform="translate(-681.212 -199.339)" opacity="0.1"/>
        <path id="Trazado_1297" data-name="Trazado 1297" d="M699.757,287l-6.092,1.005s1.257,4.648.628,5.967a.892.892,0,0,0-.047.127l-2.486,6.719,1.863,5.276,6.448-8.794-2.2-3.328a30.633,30.633,0,0,1,3.7-4.146C702.96,288.759,699.757,287,699.757,287Z" transform="translate(-655.035 -245.181)" opacity="0.1"/>
        <path id="Trazado_1298" data-name="Trazado 1298" d="M699.757,285.63l-6.092,1s1.257,4.648.628,5.967a.893.893,0,0,0-.047.127l-2.486,6.719,1.863,5.276,6.448-8.8-2.2-3.328a30.637,30.637,0,0,1,3.7-4.146C702.96,287.381,699.757,285.63,699.757,285.63Z" transform="translate(-655.035 -244.07)" fill="#dce6f2"/>
        <path id="Trazado_1299" data-name="Trazado 1299" d="M734.642,227.81s2.664.568.276,2.524-10.869,8.676-10.869,8.676,3.141,2.073,2.544,5.087l9.578-5.337,1.7-8.542S738.065,227.651,734.642,227.81Z" transform="translate(-681.212 -197.19)" fill="#575a89"/>
        <path id="Trazado_1300" data-name="Trazado 1300" d="M667.709,273.18a11.992,11.992,0,0,0,3.146,3.046s-4.271,2.272-2.637,5.465l-6.533-1.7-1.005-3.141Z" transform="translate(-629.838 -233.977)" opacity="0.1"/>
        <path id="Trazado_1301" data-name="Trazado 1301" d="M666.387,271.86a11.991,11.991,0,0,0,3.146,3.046s-4.271,2.26-2.637,5.464l-6.531-1.7-1.005-3.139Z" transform="translate(-628.768 -232.907)" fill="#575a89"/>
        <path id="Trazado_1302" data-name="Trazado 1302" d="M685.3,291.613l-4.271,9.965-3.76,6.615H665.2l-3.518-9.044,1.424-9.379h2.562c-.042,2.188.757,4.759.706,5.715-.087,1.571,2.344,10.049,2.344,10.049s5.087-8.228,7.1-8.96c1.263-.46,3.938-4.288,5.753-7.075Z" transform="translate(-630.649 -247.207)" opacity="0.1"/>
        <path id="Trazado_1303" data-name="Trazado 1303" d="M613.665,328.035l-.433.545s3.141,15.764,2.272,19.344a10.162,10.162,0,0,0-.252,1.965v.028a37.9,37.9,0,0,0,.947,8.37s.878,13.934.379,19.664h-58.8c-.344-8.474-.716-19.452-.379-20.669.568-2.009,1.7-9.3,1.7-9.3l.125-3.453s0-3.338.1-7.056c.043-1.672.108-3.427.2-4.983a26.322,26.322,0,0,1,.515-4.417,9.729,9.729,0,0,0,.242-1.87.968.968,0,0,1,.011-.18c0-.189.019-.394.026-.6v-.189c.036-1.219.023-2.666-.017-4.165v-.248c-.032-1.125-.08-2.272-.133-3.362-.165-3.408-.379-6.289-.379-6.289l-7.222-23.929,1.946-4.793,5.4-3.309,9.986-6.03c4.871-4,8.078-3.523,9.3-3.084a3.226,3.226,0,0,1,.348.142c.038.019.068.034.1.051a.808.808,0,0,1,.112.064h0a2.306,2.306,0,0,0-.848.7,3.089,3.089,0,0,0-.524,1.136,5.29,5.29,0,0,0-.134.774c-.025.275-.034.558-.034.844a14.639,14.639,0,0,0,.161,1.872c0,.011,0,.026,0,.042.063.443.14.877.216,1.284a.092.092,0,0,0,0,.021c.087.475.174.914.233,1.293.011.068.021.131.03.189a4.329,4.329,0,0,1,.059.757,9.2,9.2,0,0,0,.246,1.817c.049.25.106.517.168.8.085.379.178.791.278,1.212.055.231.114.469.174.706.023.095.047.189.07.286l.038.15c.4,1.6.841,3.2,1.109,4.165.159.568.259.918.259.918a70.694,70.694,0,0,1,5.127-7.234c.034-.038.064-.074.1-.108.225-.259.447-.5.659-.7a3.892,3.892,0,0,1,1.215-.913,1.336,1.336,0,0,0,.206-.1c.931-.528,2.435-2.446,3.841-4.455.138-.189.273-.4.409-.591.312-.451.615-.9.9-1.337.22-.331.43-.653.629-.96.947-1.473,1.613-2.571,1.613-2.571l1.314-.059.229-.011h.153l5.965-.276s.258.044.682.129a.121.121,0,0,1,.07.015c2.116.42,8,1.751,8.356,3.6.439,2.26,9.924,5.276,9.924,5.276.125,1.514,2.448,2.512,2.448,2.512s3.518,9.3,2.577,12.938c-.93,3.6,2.419,12.495,2.508,12.745h0l-.642.81Z" transform="translate(-542.195 -231.187)" fill="#fff"/>
        <path id="Trazado_1304" data-name="Trazado 1304" d="M744.5,225.287s5.806-1.647,7.126,1.744,4.271,17.084,4.271,17.084-7.663,1.444-9.672,0a5.787,5.787,0,0,0-4.083-1.068L737.81,246l-1.28-.379s6.933-10.306,8.44-13.809S746.986,226.743,744.5,225.287Z" transform="translate(-691.329 -194.827)" opacity="0.1"/>
        <path id="Trazado_1305" data-name="Trazado 1305" d="M743.2,221.287s5.81-1.647,7.135,1.744,4.271,17.084,4.271,17.084-7.662,1.444-9.672,0a5.782,5.782,0,0,0-4.082-1.068L736.52,242l-1.28-.379s6.933-10.306,8.44-13.809S745.688,222.747,743.2,221.287Z" transform="translate(-690.283 -191.585)" fill="#d6e8f5"/>
        <path id="Trazado_1306" data-name="Trazado 1306" d="M571.15,511.55s4.333,1.068,5.151,3.517-3.2,2.512-3.2,2.512S570.648,513.246,571.15,511.55Z" transform="translate(-557.203 -427.22)" opacity="0.1"/>
        <path id="Trazado_1307" data-name="Trazado 1307" d="M620.171,607.09s-10.613,21.731-8.163,23.8S620.171,607.09,620.171,607.09Z" transform="translate(-590.083 -504.673)" opacity="0.1"/>
        <path id="Trazado_1308" data-name="Trazado 1308" d="M734,522.5s8.479,21.109,6.783,24.369,3.642,0,3.642,0Z" transform="translate(-689.278 -436.097)" opacity="0.1"/>
        <path id="Trazado_1309" data-name="Trazado 1309" d="M702.964,632.64s-28.639,1.382-20.285,10.3,25.5.379,25.5.379Z" transform="translate(-646.434 -525.387)" fill="#ffc1c7"/>
        <path id="Trazado_1312" data-name="Trazado 1312" d="M507.913,511.968l-1.444.5s.568,8.542-1.325,10.992S511.36,532,511.36,532s11.117-.063,11.431-.947-.568-15.827-.568-15.827-5.967-2.325-5.465-6.03c0,0-1.821,8.729-4.521,8.353S506.472,514.921,507.913,511.968Z" transform="translate(-503.515 -425.315)" fill="#d6e8f5"/>
        <ellipse id="Elipse_300" data-name="Elipse 300" cx="3.811" cy="3.485" rx="3.811" ry="3.485" transform="translate(5.405 87.909)" opacity="0.1"/>
        <path id="Trazado_1313" data-name="Trazado 1313" d="M511.151,445.028s-.757-23.112-7.349-17.962-6.656,11.308-5.4,13.127,5.28,10.927,5.28,10.927h0a4.606,4.606,0,0,0,6.815-3.029Z" transform="translate(-497.768 -358.123)" fill="#ffc1c7"/>
        <g id="Grupo_1622-2" data-name="Grupo 1622" transform="translate(18.347 0)">
          <path id="Trazado_1294" data-name="Trazado 1294" d="M640.344,117.717a15.588,15.588,0,1,1-4.566-11.093A15.663,15.663,0,0,1,640.344,117.717Z" transform="translate(-606.306 -95.252)" fill="#ffc1c7"/>
          <path id="Trazado_1310" data-name="Trazado 1310" d="M642.59,117.726a15.589,15.589,0,0,1-1.187,5.986c-.263.03-.526.049-.78.061a6.341,6.341,0,0,1-.168-2.705c.008-.914-.329-1.99-1.21-2.236-1.755-.494-2.967,2.787-4.7,2.194-1.325-.451-.979-2.461-1.742-3.622-.6-.918-1.814-1.178-2.755-1.753-2-1.229-1.94-3.194-2.87-5.053-.973-1.948-3.029-1.373-4.814-.223a38.868,38.868,0,0,1-3.976,2.743,9.834,9.834,0,0,1-4.057.858,8.915,8.915,0,0,1-2.544-.269,15.662,15.662,0,0,1,30.8,4.019Z" transform="translate(-608.551 -95.261)" opacity="0.1"/>
          <path id="Trazado_1311" data-name="Trazado 1311" d="M608.5,80.716a39.723,39.723,0,0,1-3.976,2.745,9.863,9.863,0,0,1-4.057.856,6.168,6.168,0,0,1-4.7-1.492,4.536,4.536,0,0,1-.873-4.373,7.1,7.1,0,0,1,2.811-3.622c1.274-.9,2.753-1.515,3.6-2.8a22.614,22.614,0,0,0,1.034-2.2,7.666,7.666,0,0,1,6.437-3.712,20.237,20.237,0,0,1,7.6,1.446,29.979,29.979,0,0,0,7.527,1.922,10.734,10.734,0,0,1,3.427.437,6.225,6.225,0,0,1,3.029,3.408,11.4,11.4,0,0,1,1.094,5.111c-.159,3.743-2.632,7.415-1.545,11,.288.956.827,1.937.539,2.893-.42,1.4-2.221,1.713-3.676,1.78a6.342,6.342,0,0,1-.168-2.705c.008-.912-.329-1.99-1.208-2.236-1.757-.49-2.969,2.785-4.7,2.194-1.316-.452-.975-2.461-1.74-3.622-.6-.92-1.815-1.178-2.755-1.753-2-1.229-1.94-3.194-2.87-5.053C612.349,78.99,610.291,79.565,608.5,80.716Z" transform="translate(-594.682 -66.104)" fill="#99607e"/>
          <g id="Grupo_1616" data-name="Grupo 1616" transform="translate(0.162 12.082)" opacity="0.1">
            <path id="Trazado_1318" data-name="Trazado 1318" d="M783,146.294c.31-1.147.685-2.3.946-3.464C783.634,144,783.258,145.147,783,146.294Z" transform="translate(-747.51 -140.386)"/>
            <path id="Trazado_1319" data-name="Trazado 1319" d="M627.858,144.844a6.344,6.344,0,0,1-.169-2.705c.008-.912-.329-1.98-1.208-2.236-1.757-.49-2.968,2.787-4.7,2.194-1.325-.452-.975-2.461-1.74-3.622-.6-.92-1.814-1.178-2.753-1.753-2-1.229-1.942-3.194-2.87-5.053-.975-1.95-3.029-1.374-4.816-.223a39.407,39.407,0,0,1-3.976,2.745,9.863,9.863,0,0,1-4.057.856,6.172,6.172,0,0,1-4.7-1.492,4.4,4.4,0,0,1-1.036-3.635c-.032.089-.061.178-.089.267a4.549,4.549,0,0,0,.873,4.373,6.18,6.18,0,0,0,4.7,1.492,9.872,9.872,0,0,0,4.059-.856,38.878,38.878,0,0,0,3.976-2.745c1.787-1.151,3.843-1.727,4.816.223.928,1.859.869,3.824,2.87,5.053.947.568,2.149.833,2.755,1.753.757,1.164.422,3.169,1.74,3.622,1.725.591,2.936-2.684,4.693-2.194.879.246,1.217,1.325,1.208,2.236a6.376,6.376,0,0,0,.168,2.705c1.456-.066,3.256-.379,3.678-1.78a2.041,2.041,0,0,0,.08-.619C630.751,144.512,629.168,144.785,627.858,144.844Z" transform="translate(-595.536 -129.92)"/>
          </g>
        </g>
        <path id="Trazado_1320" data-name="Trazado 1320" d="M813.342,363.826l2.2,2.325s1.759,12.811,2.637,14.009,2.953,5.965,1.005,9.545c0,0-.629,1.948-.252,2.764s-2.825,4.9-2.825,4.9-4.208,3.767-5.089,4.333-5.526,5.087-7.1,5.149-2.083,2.011-2.083,2.011l-8.856.314s-4.892-.256-5.956.435c0,0,.568-7.474-4.9-12.374l6.97-2.512s2.639-1.136,3.455-2.323a4.264,4.264,0,0,1,2.082-1.569s1.946-1.382,2.009-2.135,2.38-1.677,2.38-1.677l-1.312-11.2.691-18.591s2.2-15.577,6.846-14.7S813.342,363.826,813.342,363.826Z" transform="translate(-728.296 -290.174)" opacity="0.1"/>
        <path id="Trazado_1321" data-name="Trazado 1321" d="M817.342,363.826l2.2,2.325s1.759,12.811,2.637,14.009,2.953,5.965,1.005,9.545c0,0-.627,1.948-.25,2.764s-2.827,4.9-2.827,4.9-4.208,3.767-5.089,4.333-5.526,5.087-7.1,5.149-2.083,2.011-2.083,2.011l-8.856.314s-4.9-.256-5.956.435c0,0,.568-7.474-4.9-12.374l6.971-2.512s2.639-1.136,3.455-2.323a4.266,4.266,0,0,1,2.082-1.569s1.946-1.382,2.009-2.135,2.38-1.677,2.38-1.677l-1.312-11.2.691-18.591s2.2-15.577,6.845-14.7S817.342,363.826,817.342,363.826Z" transform="translate(-731.539 -290.174)" fill="#d6e8f5"/>
        <path id="Trazado_1322" data-name="Trazado 1322" d="M907.84,551.539s6.469-1.7,8.165.379S907.84,551.539,907.84,551.539Z" transform="translate(-830.207 -459.107)" opacity="0.1"/>
        <path id="Trazado_1323" data-name="Trazado 1323" d="M899.88,569.44c2.2,1.539,8.981,1.6,8.981,1.6Z" transform="translate(-823.754 -474.151)" opacity="0.1"/>
        <path id="Trazado_1324" data-name="Trazado 1324" d="M917.46,610.08c.189.062,4.663,4.837,6.541,3.392S917.46,610.08,917.46,610.08Z" transform="translate(-838.006 -507.097)" opacity="0.1"/>
        <path id="Trazado_1325" data-name="Trazado 1325" d="M599.22,398.42s1.314,9.045.666,12.73S601.6,419.4,601.6,419.4Z" transform="translate(-580.014 -335.508)" opacity="0.1"/>
      </g>
      <g id="Grupo_1619" data-name="Grupo 1619" transform="translate(43.229 34.431)">
        <path id="Trazado_1326" data-name="Trazado 1326" d="M371.834,410.781c-1.782,1.4-3.083,4.7-4.025,8.335a89.663,89.663,0,0,0-2.181,13.686s-14.189-3.252-13.155-4.729c.65-.929-.223-7.928-.951-13-.434-3-.822-5.326-.822-5.326S376.712,406.937,371.834,410.781Z" transform="translate(-329.163 -379.324)" fill="#ffccd0"/>
        <path id="Trazado_1327" data-name="Trazado 1327" d="M371.834,409.454c-1.782,1.4-3.083,4.7-4.025,8.335a16.372,16.372,0,0,1-16.287-4.043c-.434-3-.822-5.328-.822-5.328S376.712,405.612,371.834,409.454Z" transform="translate(-329.163 -378.293)" opacity="0.1"/>
        <path id="Trazado_1328" data-name="Trazado 1328" d="M365.276,323.53a16.412,16.412,0,1,1-3.611-10.264A16.412,16.412,0,0,1,365.276,323.53Z" transform="translate(-314.978 -300.33)" fill="#ffccd0"/>
        <path id="Trazado_1329" data-name="Trazado 1329" d="M518.764,780.979h-4.678l-.394-8.262-.412-8.551s1.063-.158,2.755-.394l.684-.091h.056c.37,1.735.735,3.517,1.087,5.3a54.433,54.433,0,0,1,.911,9.578v.655C518.786,779.8,518.773,780.4,518.764,780.979Z" transform="translate(-455.528 -655.189)" opacity="0.1"/>
        <path id="Trazado_1330" data-name="Trazado 1330" d="M329.173,567.473H270.51c.254-.577.423-.927.423-.927s4.693-20.533,7.079-29.22a.113.113,0,0,0,0-.022,34.757,34.757,0,0,1,1.078-3.486h0a1.194,1.194,0,0,1,.1-.223c1.181-1.92,2.66-3.989.59-6.945s-1.337-15.962-1.337-15.962,2.513-11.086,5.172-17a7.952,7.952,0,0,1,1.688-2.45,6.918,6.918,0,0,1,.74-.628h0a6.5,6.5,0,0,1,.619-.412l.042-.027a8.936,8.936,0,0,1,3.637-1.129,10.376,10.376,0,0,1,2.729.076,40.723,40.723,0,0,1,10.509,2.9c7.438,3.268,9.689,7.647,9.734,7.738h0l.018.038c.3.7,4.664,10.89,6.237,15.646a6.67,6.67,0,0,1,.541,2.348c-.446,1.181,3.4,15.96,3.4,15.96s1.782,7.128,3.564,15.483c.078.347.151.695.223,1.047.318,1.517.635,3.063.94,4.606a54.146,54.146,0,0,1,.911,9.645Q329.2,566.039,329.173,567.473Z" transform="translate(-266.835 -441.685)" fill="#ff748e"/>
        <path id="Trazado_1331" data-name="Trazado 1331" d="M344.047,464.661s-4.047-1.559-4,.806.987,3.5.691,3.842.147,2.415.147,2.415,5.468,0,7.981,1.132,11.774,3.4,12.957,4.09,5.569,3.787,5.569,3.787l.394-5.863a33.446,33.446,0,0,0-11.97-5.664A47.739,47.739,0,0,1,344.047,464.661Z" transform="translate(-320.883 -422.384)" opacity="0.1"/>
        <path id="Trazado_1332" data-name="Trazado 1332" d="M344.047,463.331s-4.047-1.559-4,.806.987,3.5.691,3.842.147,2.415.147,2.415,5.468,0,7.981,1.134,11.774,3.4,12.957,4.087,5.569,3.787,5.569,3.787l.4-5.845a33.447,33.447,0,0,0-11.97-5.664A47.363,47.363,0,0,1,344.047,463.331Z" transform="translate(-320.883 -421.351)" fill="#ff748e"/>
        <path id="Trazado_1333" data-name="Trazado 1333" d="M412.85,528.43s7.734,8.373,7.34,10.692S412.85,528.43,412.85,528.43Z" transform="translate(-377.469 -472.341)" opacity="0.1"/>
        <path id="Trazado_1334" data-name="Trazado 1334" d="M434.665,741.85s-3,6.11-1.379,5.716S434.665,741.85,434.665,741.85Z" transform="translate(-392.978 -638.222)" fill="none"/>
        <path id="Trazado_1335" data-name="Trazado 1335" d="M329.118,664.22s-5.669,5.223-7.34,5.52,1.281,1.281,3.2.494,6.014-2.856,6.014-2.856Z" transform="translate(-306.299 -577.884)" opacity="0.1"/>
        <path id="Trazado_1336" data-name="Trazado 1336" d="M464.161,779.144h-13.22c-1.849-1.6-3.6-3.09-4.711-3.983a15.374,15.374,0,0,1-3.887-5.228c-.185-.385-.345-.746-.481-1.074a17.914,17.914,0,0,1-.642-1.726l9.79-5.814a15.293,15.293,0,0,1,1.521,1.488l.118.136a4.019,4.019,0,0,1,1.065,1.967c.049.695,1.982,3.384,3.958,5.965,2,2.626,4.058,5.137,4.194,5.306h0s.339.461.891,1.169C463.147,777.863,463.628,778.478,464.161,779.144Z" transform="translate(-399.519 -653.355)" fill="#ffccd0"/>
        <path id="Trazado_1337" data-name="Trazado 1337" d="M361.694,313.295a9.55,9.55,0,0,0-.953,3.341c-.176,3.408.109,11.028-3.664,12.739-1.869.842-3.869-1.007-5.918-1.051a4.811,4.811,0,0,0-3.727,2.074,22.439,22.439,0,0,0-2.112,3.88,26.5,26.5,0,0,1-2.047,3.453,8.688,8.688,0,0,1-.757.956A16.408,16.408,0,1,1,361.694,313.3Z" transform="translate(-315.006 -300.359)" opacity="0.1"/>
        <path id="Trazado_1338" data-name="Trazado 1338" d="M299.448,292.3c-.178,3.408.109,11.028-3.666,12.737-1.869.842-3.869-1-5.918-1.049a4.813,4.813,0,0,0-3.727,2.072,22.291,22.291,0,0,0-2.112,3.883,26.556,26.556,0,0,1-2.047,3.453,5.012,5.012,0,0,1-1.673,1.668c-1.23.642-2.72.281-4.038-.131q-2.566-.809-5.056-1.822a5.1,5.1,0,0,0,.058-.757c-.049.094-.1.18-.156.274l-.1.183c-.189.334-.374.668-.543,1.011-.065.131-.127.267-.183.4a5.124,5.124,0,0,0-.417,1.595,8.545,8.545,0,0,0,1.27,4.232c2.5,5.17,4.047,11.215,2.165,16.639-.815,2.359-2.227,4.455-3.259,6.734a21.756,21.756,0,0,0-1.521,12.87c.515,2.7,1.546,5.373,1.292,8.11-.446,4.711-4.508,8.217-8.578,10.627-2.2,1.3-4.889,2.45-7.224,1.426,1.488-1.737,1.871-4.141,2.192-6.408q1.316-9.277,2.64-18.564.528-3.7,1.054-7.391c.655-4.629,1.319-9.309.909-13.966-.3-3.433-1.14-7.077.347-10.184.786-1.646,2.187-3.009,2.624-4.782.359-1.441.024-2.974.261-4.442a7.559,7.559,0,0,1,.65-1.925,9.455,9.455,0,0,1,1.492-2.276,2.548,2.548,0,0,1-1.492-.911,2.558,2.558,0,0,0,.668-3.085,9.481,9.481,0,0,0-2.085-2.693,5.2,5.2,0,0,1-1.633-2.94c-.189-2.163,1.971-3.838,2.352-5.972.385-2.172-1.138-4.283-1.016-6.482.143-2.657,2.584-4.589,4.994-5.709a22.719,22.719,0,0,1,11.645-2c3.248.307,6.391,1.312,9.629,1.7,1.954.223,3.934.245,5.874.588a9.436,9.436,0,0,1,5.25,2.49C303.966,285.254,299.653,288.343,299.448,292.3Z" transform="translate(-254.01 -276.623)" fill="#f5c9b2"/>
        <path id="Trazado_1339" data-name="Trazado 1339" d="M351.279,602.372c-1.136-.492-3.2-.2-6.751-1.279s-4.232-5.963-4.232-5.963v-.016h0a16.348,16.348,0,0,0-2.6-3.381c-2.466-2.809-7.8-17-7.8-17s-4.727-5.076-4.577-6.947-.84-6.849-.742-12.418,10.641-9.262,10.641-9.262c20.3-3.6,15.519,19.8,14.978,21.578s2.268,6.562,2.268,6.562c-.4,2.085,1.626,5.313,1.626,5.313s.49,2.856.59,3.94a.665.665,0,0,0,.033.147c.325,1.022,2.976,1.949,4.054,2.513,1.134.593,4.78,5.765,4.78,5.765C364.332,595.725,352.411,602.871,351.279,602.372Z" transform="translate(-308.852 -485.791)" opacity="0.1"/>
        <path id="Trazado_1340" data-name="Trazado 1340" d="M353.937,598.411c-1.134-.494-3.2-.2-6.749-1.281s-4.232-5.961-4.232-5.961v-.016h0a16.149,16.149,0,0,0-2.6-3.381c-2.466-2.809-7.8-17-7.8-17s-4.727-5.074-4.58-6.945-.837-6.849-.74-12.414,10.634-9.255,10.634-9.255c20.3-3.6,15.519,19.8,14.978,21.578s2.268,6.562,2.268,6.562c-.4,2.085,1.626,5.313,1.626,5.313s.49,2.856.592,3.94a.558.558,0,0,0,.031.147c.325,1.022,2.976,1.949,4.056,2.513,1.132.59,4.78,5.765,4.78,5.765C366.992,591.768,355.07,598.914,353.937,598.411Z" transform="translate(-310.92 -482.721)" fill="#ff748e"/>
        <path id="Trazado_1341" data-name="Trazado 1341" d="M376.8,598.32s8.868,9.355,11.182,9.355S376.8,598.32,376.8,598.32Z" transform="translate(-349.449 -526.664)" opacity="0.1"/>
        <path id="Trazado_1342" data-name="Trazado 1342" d="M408.811,730.68c-1.134-.495-3.2-.2-6.749-1.281s-4.232-5.961-4.232-5.961v-.016h0c2.35-1.559,8.3-5.963,10.647-7.573a16.432,16.432,0,0,0,3.787-3.889c.325,1.022,2.976,1.949,4.056,2.513,1.132.59,4.78,5.765,4.78,5.765C421.867,724.037,409.945,731.183,408.811,730.68Z" transform="translate(-365.795 -614.99)" fill="#ff748e"/>
        <g id="Grupo_1617" data-name="Grupo 1617" transform="translate(0 4.28)" opacity="0.1">
          <path id="Trazado_1343" data-name="Trazado 1343" d="M302,406.158c.011.018.027.033.04.051.067-.085.136-.169.207-.249A1.659,1.659,0,0,1,302,406.158Z" transform="translate(-291.31 -381.431)"/>
          <path id="Trazado_1344" data-name="Trazado 1344" d="M269.867,436.477a8.4,8.4,0,0,1,1.374-3.412c-.405-.156-.811-.314-1.212-.479a5.048,5.048,0,0,0,.058-.755,8.658,8.658,0,0,0-1.4,3.464,8.538,8.538,0,0,0,1.27,4.232c2.5,5.168,4.047,11.213,2.165,16.639-.817,2.357-2.227,4.455-3.259,6.734a21.747,21.747,0,0,0-1.519,12.868c.51,2.7,1.544,5.373,1.29,8.11-.446,4.711-4.506,8.217-8.578,10.625a10.669,10.669,0,0,1-5.468,1.822,6.724,6.724,0,0,1-.575.791c2.337,1.031,5.025-.129,7.224-1.43,4.074-2.406,8.144-5.9,8.589-10.623.254-2.738-.78-5.408-1.292-8.11a21.764,21.764,0,0,1,1.515-12.868c1.025-2.276,2.45-4.377,3.259-6.734,1.882-5.426.336-11.471-2.165-16.639A8.6,8.6,0,0,1,269.867,436.477Z" transform="translate(-254.01 -401.539)"/>
          <path id="Trazado_1345" data-name="Trazado 1345" d="M360.381,296.464a6.438,6.438,0,0,0-.7-.624c2.7,3.5-1.2,6.478-1.392,10.246-.174,3.408.111,11.03-3.664,12.737-1.867.844-3.869-1-5.916-1.049a4.822,4.822,0,0,0-3.729,2.074,22.2,22.2,0,0,0-2.109,3.88,26.684,26.684,0,0,1-2.049,3.453,4.887,4.887,0,0,1-1.675,1.671c-1.225.639-2.715.281-4.036-.134q-1.927-.606-3.818-1.336a4.819,4.819,0,0,1-.058.693q2.493,1.016,5.059,1.822c1.319.414,2.809.773,4.036.134A5.012,5.012,0,0,0,342,328.357a26.239,26.239,0,0,0,2.047-3.45,22.228,22.228,0,0,1,2.112-3.882,4.823,4.823,0,0,1,3.727-2.072c2.049.045,4.052,1.893,5.918,1.049,3.776-1.706,3.488-9.329,3.664-12.737C359.673,303.3,363.985,300.215,360.381,296.464Z" transform="translate(-314.029 -295.84)"/>
        </g>
        <path id="Trazado_1346" data-name="Trazado 1346" d="M308.272,419.19c-.189.334-.374.668-.543,1.011-.065.131-.127.267-.183.4a35.984,35.984,0,0,0-5.6-4.838,9.5,9.5,0,0,1,1.492-2.276S307.222,415.488,308.272,419.19Z" transform="translate(-291.272 -383.004)" opacity="0.1"/>
        <path id="Trazado_1347" data-name="Trazado 1347" d="M308.376,416.948c-.875-3.963-4.934-6.108-4.934-6.108a9.457,9.457,0,0,0-1.492,2.276c1.673.915,4.756,3.985,5.778,5.025Z" transform="translate(-291.272 -380.944)" fill="#ff748e"/>
      </g>
    </g>
    <g id="Trazado_1470" data-name="Trazado 1470" transform="translate(151.183 179.662)" fill="#fff">
      <path d="M 31.87074279785156 2.377399921417236 L 0.5000032782554626 2.377399921417236 L 0.5000032782554626 0.4999998509883881 L 31.87074279785156 0.4999998509883881 L 31.87074279785156 2.377399921417236 Z" stroke="none"/>
      <path d="M 1.000003814697266 0.9999998807907104 L 1.000003814697266 1.877399921417236 L 31.37074279785156 1.877399921417236 L 31.37074279785156 0.9999998807907104 L 1.000003814697266 0.9999998807907104 M 3.814697265625e-06 -2.384185791015625e-07 L 32.37074279785156 -2.384185791015625e-07 L 32.37074279785156 2.877399921417236 L 3.814697265625e-06 2.877399921417236 L 3.814697265625e-06 -2.384185791015625e-07 Z" stroke="none" fill="#707070"/>
    </g>
    <g id="Grupo_1629" data-name="Grupo 1629" transform="translate(162.415 177.095)">
      <circle id="Elipse_315" data-name="Elipse 315" cx="3.663" cy="3.663" r="3.663" fill="#6c63ff"/>
      <g id="Grupo_1628" data-name="Grupo 1628" transform="translate(0.621 0.621)">
        <circle id="Elipse_316" data-name="Elipse 316" cx="3.042" cy="3.042" r="3.042" fill="#e8f5ff"/>
      </g>
    </g>
  </g>
</svg>
