<svg xmlns="http://www.w3.org/2000/svg" width="39.562" height="39.561" viewBox="0 0 39.562 39.561">
  <g id="Grupo_714" data-name="Grupo 714" transform="translate(0.75 0.75)">
    <path id="Trazado_1053" data-name="Trazado 1053" d="M445.721,166.566h0a19.031,19.031,0,0,1-19.032-19.03h0a19.031,19.031,0,0,1,19.032-19.031h0a19.031,19.031,0,0,1,19.03,19.031h0A19.031,19.031,0,0,1,445.721,166.566Z" transform="translate(-426.689 -128.505)" fill="none" stroke="#222221" stroke-miterlimit="10" stroke-width="1.5"/>
    <g id="Grupo_713" data-name="Grupo 713" transform="translate(8.597 8.596)">
      <path id="Trazado_1054" data-name="Trazado 1054" d="M445.721,138.981c2.786,0,3.115.011,4.215.061a5.751,5.751,0,0,1,1.938.36,3.449,3.449,0,0,1,1.98,1.98,5.775,5.775,0,0,1,.36,1.937c.05,1.1.06,1.43.06,4.217s-.01,3.116-.06,4.216a5.782,5.782,0,0,1-.36,1.938,3.449,3.449,0,0,1-1.98,1.98,5.757,5.757,0,0,1-1.938.359c-1.1.051-1.429.061-4.215.061s-3.117-.01-4.217-.061a5.763,5.763,0,0,1-1.938-.359,3.449,3.449,0,0,1-1.98-1.98,5.764,5.764,0,0,1-.359-1.938c-.05-1.1-.061-1.43-.061-4.216s.011-3.116.061-4.217a5.756,5.756,0,0,1,.359-1.937,3.449,3.449,0,0,1,1.98-1.98,5.756,5.756,0,0,1,1.938-.36c1.1-.05,1.431-.061,4.217-.061m0-1.88c-2.834,0-3.19.012-4.3.063a7.685,7.685,0,0,0-2.532.485,5.326,5.326,0,0,0-3.052,3.052,7.639,7.639,0,0,0-.485,2.533c-.051,1.113-.063,1.468-.063,4.3s.012,3.189.063,4.3a7.639,7.639,0,0,0,.485,2.533,5.328,5.328,0,0,0,3.052,3.051,7.657,7.657,0,0,0,2.532.486c1.113.05,1.469.062,4.3.062s3.188-.012,4.3-.062a7.658,7.658,0,0,0,2.533-.486,5.336,5.336,0,0,0,3.052-3.051,7.667,7.667,0,0,0,.485-2.533c.051-1.113.062-1.468.062-4.3s-.011-3.189-.062-4.3a7.667,7.667,0,0,0-.485-2.533,5.334,5.334,0,0,0-3.052-3.052,7.686,7.686,0,0,0-2.533-.485c-1.113-.051-1.468-.063-4.3-.063" transform="translate(-435.286 -137.101)" fill="#222221"/>
      <path id="Trazado_1055" data-name="Trazado 1055" d="M445.721,142.178a5.358,5.358,0,1,0,5.357,5.358,5.358,5.358,0,0,0-5.357-5.358m0,8.836a3.478,3.478,0,1,1,3.477-3.478,3.478,3.478,0,0,1-3.477,3.478" transform="translate(-435.286 -137.101)" fill="#222221"/>
      <path id="Trazado_1056" data-name="Trazado 1056" d="M452.542,141.966a1.252,1.252,0,1,1-1.252-1.252,1.253,1.253,0,0,1,1.252,1.252" transform="translate(-435.286 -137.101)" fill="#222221"/>
    </g>
  </g>
</svg>
