<svg xmlns="http://www.w3.org/2000/svg" width="83.554" height="76.994" viewBox="0 0 83.554 76.994">
  <g id="Grupo_1098" data-name="Grupo 1098" transform="translate(621.815 839.036)">
    <path id="Trazado_25171" data-name="Trazado 25171" d="M-560.14-762.042c-1.278-.866-2.61-1.664-3.825-2.61-4-3.117-7.835-6.45-11.953-9.4-6.031-4.313-9.513-4.116-15.418.414-2.157,1.656-4.186,3.486-6.4,5.051-1.558,1.1-3.336,1.888-6.148,3.439.26-3.972.33-6.829.658-9.656.47-4.047,1.342-8.054,1.656-12.109.5-6.5-1.325-9.262-7.3-11.777-3.185-1.341-6.534-2.356-9.551-3.993-1.441-.783-2.28-2.674-3.392-4.063,1.532-.817,3.022-2.227,4.6-2.335a108.5,108.5,0,0,1,11.821.152c7.712.311,11.382-1.8,14.476-8.967,1.707-3.959,2.76-8.2,4.456-12.166,1.32-3.087,3.177-5.945,4.836-8.978,4.415,3.056,8.882,14.079,7.3,18.632l-5.567-15.462-1.3-.059a57.552,57.552,0,0,0-3.141,5.93c-1.63,4.132-2.837,8.434-4.536,12.533-3.37,8.128-7.908,10.9-16.711,10.564-3.573-.136-7.145-.349-10.719-.4-.921-.012-1.849.453-4,1.025,2.328,1.369,3.736,2.379,5.286,3.069,3.042,1.353,6.2,2.442,9.24,3.8,3.856,1.723,6.083,4.783,5.938,9.031-.164,4.8-.735,9.584-1.175,14.372-.21,2.274-.525,4.539-.934,7.995,3.21-2.48,5.522-4.225,7.791-6.022,8.5-6.739,12.771-6.824,21.45-.25,3.6,2.726,7.086,5.594,11.38,9-.893-5.955-1.722-10.9-2.345-15.874a73.934,73.934,0,0,1-.618-9.234c0-5.377,1.738-7.429,6.795-9.246,4.633-1.666,9.192-3.546,13.752-5.411a5.907,5.907,0,0,0,2.887-2.681l-25.6-3.985q.038-.593.077-1.186c.4-.179.825-.559,1.19-.506,7.705,1.107,15.417,2.177,23.089,3.485,1.364.234,2.558,1.478,3.83,2.255-.946,1.176-1.651,2.848-2.879,3.44a127.308,127.308,0,0,1-13.928,5.926c-6.428,2.2-7.7,3.284-7.149,10.066.58,7.129,1.815,14.2,2.729,21.307.183,1.426.211,2.872.31,4.31C-559.5-762.424-559.818-762.232-560.14-762.042Z" fill="#ff8f00" fill-rule="evenodd"/>
  </g>
</svg>
