<svg xmlns="http://www.w3.org/2000/svg" width="39.562" height="39.561" viewBox="0 0 39.562 39.561">
  <g id="Grupo_712" data-name="Grupo 712" transform="translate(0.75 0.75)">
    <path id="Trazado_1051" data-name="Trazado 1051" d="M389.985,166.566h0a19.031,19.031,0,0,1-19.03-19.03h0a19.031,19.031,0,0,1,19.03-19.031h0a19.031,19.031,0,0,1,19.032,19.031h0A19.031,19.031,0,0,1,389.985,166.566Z" transform="translate(-370.955 -128.505)" fill="none" stroke="#222221" stroke-miterlimit="10" stroke-width="1.5"/>
    <path id="Trazado_1052" data-name="Trazado 1052" d="M387.086,159.039h4.633v-11.6h3.231l.345-3.884h-3.576v-2.212c0-.916.183-1.278,1.069-1.278H395.3v-4.031h-3.207c-3.447,0-5,1.518-5,4.424v3.1h-2.409v3.933h2.409Z" transform="translate(-370.955 -128.505)" fill="#222221"/>
  </g>
</svg>
