<svg xmlns="http://www.w3.org/2000/svg" width="59" height="63" viewBox="0 0 59 63">
  <g id="Grupo_1534" data-name="Grupo 1534" transform="translate(-759 -1060)">
    <g id="_001-dentist" data-name="001-dentist" transform="translate(761 1062)">
      <g id="Grupo_1334" data-name="Grupo 1334" transform="translate(25.567 10.751)">
        <g id="Grupo_1333" data-name="Grupo 1333">
          <ellipse id="Elipse_524" data-name="Elipse 524" cx="1.813" cy="1.813" rx="1.813" ry="1.813" fill="#38d5ae"/>
        </g>
      </g>
      <g id="Grupo_1336" data-name="Grupo 1336" transform="translate(0 -2)">
        <g id="Grupo_1335" data-name="Grupo 1335">
          <path id="Trazado_25324" data-name="Trazado 25324" d="M80.806,46.754l-13.513-6.12a15.31,15.31,0,0,0,6.159-11.791,5.722,5.722,0,0,0,.008-10.767V10.356h-.039V9.337A9.348,9.348,0,0,0,64.084,0H52.16a9.347,9.347,0,0,0-9.337,9.337v3.842h0v4.9a5.722,5.722,0,0,0,.008,10.767A15.314,15.314,0,0,0,49.2,40.788l-1.776.8L43.7,43.279h0l-7.674,3.476a8.977,8.977,0,0,0-5.263,8.161v7.946h3.683V54.915a5.286,5.286,0,0,1,3.1-4.806l5.225-2.367-1.862,8.946,8.087,6.173H58.37l-3.875-9.768h7.836l-3.875,9.768h9.376l8.087-6.172-1.862-8.948,5.23,2.369a5.286,5.286,0,0,1,3.1,4.806v7.946h3.683V54.915A8.977,8.977,0,0,0,80.806,46.754ZM69.776,15.148v1.67a7.314,7.314,0,0,1-2.9-2.779h2.863v1.109ZM52.16,3.683H64.084a5.66,5.66,0,0,1,5.654,5.654v1.019H65.8a7.975,7.975,0,0,0-15.327,0H46.506V9.337h0A5.66,5.66,0,0,1,52.16,3.683Zm10.27,9.1a4.293,4.293,0,1,1,.006-.219c0,.051,0,.1,0,.152l-.015,0C62.418,12.731,62.423,12.754,62.429,12.785Zm-13.1,1.254a8.077,8.077,0,0,1-2.823,2.77v-2.77H49.33ZM46.506,28.358V25.536l-1.8-.044a2.034,2.034,0,0,1,0-4.067l1.8-.044v-.522a11.314,11.314,0,0,0,5.122-3.7,7.965,7.965,0,0,0,12.977.068,10.668,10.668,0,0,0,5.171,3.576v.574l1.8.044a2.034,2.034,0,0,1,0,4.067l-1.8.044v2.822a11.635,11.635,0,1,1-23.27,0Zm3.733,30.82-5.254-4.01,1.937-9.307.628-.284,5.4,13.6Zm2.795-9.768h0L50.91,44.056,53.4,42.926a15.321,15.321,0,0,0,10.041-.2l-.077.17,2.55,1.155L63.792,49.41H53.034Zm13.553,9.768H63.88l5.4-13.6.628.284,1.937,9.307Z" transform="translate(-30.761)" fill="#38d5ae"/>
        </g>
      </g>
    </g>
    <rect id="Rectángulo_1147" data-name="Rectángulo 1147" width="59" height="63" transform="translate(759 1060)" fill="none"/>
  </g>
</svg>
