<svg xmlns="http://www.w3.org/2000/svg" width="59.065" height="63.063" viewBox="0 0 59.065 63.063">
  <g id="Grupo_1533" data-name="Grupo 1533" transform="translate(-759 -971)">
    <g id="_007-appointment" data-name="007-appointment" transform="translate(759 971)">
      <g id="Grupo_1354" data-name="Grupo 1354" transform="translate(0)">
        <g id="Grupo_1353" data-name="Grupo 1353">
          <path id="Trazado_25334" data-name="Trazado 25334" d="M74.671,35.869a8.7,8.7,0,0,0-5.438-5.648,11.34,11.34,0,0,0-7.422.182V3.306H51.693V0H48V3.306H30.044V0h-3.7V3.306H16.231V50.93H48.866a14.121,14.121,0,0,1,.523,2.283q.028.2.054.4c.785,6.092,2.418,9.178,4.992,9.435.1.01.2.015.3.015,3.3,0,4.432-5.728,4.816-9.211a6.224,6.224,0,0,1,.416-1.759,6.23,6.23,0,0,1,.416,1.759c.384,3.484,1.519,9.212,4.816,9.211.1,0,.2,0,.3-.015,2.574-.257,4.207-3.343,4.992-9.435q.026-.2.052-.387a15.138,15.138,0,0,1,2.5-6.344A12.5,12.5,0,0,0,74.671,35.869ZM19.926,7h6.423V9.4h3.7V7H48V9.4h3.7V7h6.423v8.628H19.926ZM46.9,46.889q.117.171.228.345h-27.2V19.324H58.115V30.4a11.341,11.341,0,0,0-7.422-.182,8.7,8.7,0,0,0-5.439,5.652A12.5,12.5,0,0,0,46.9,46.889ZM69.979,44.8a18.851,18.851,0,0,0-3.1,7.906q-.03.211-.058.43a17.124,17.124,0,0,1-1.477,5.752,18.756,18.756,0,0,1-1.29-5.446,8.462,8.462,0,0,0-1.358-4.009,3.35,3.35,0,0,0-5.461,0,8.461,8.461,0,0,0-1.358,4.009,18.764,18.764,0,0,1-1.29,5.446,17.127,17.127,0,0,1-1.477-5.753q-.029-.228-.06-.446a18.794,18.794,0,0,0-3.1-7.885,8.789,8.789,0,0,1-1.2-7.735,5.062,5.062,0,0,1,3.074-3.335,8.085,8.085,0,0,1,7,1.147l1.116.948,1.162-.941A8.086,8.086,0,0,1,68.1,33.739a5.061,5.061,0,0,1,3.073,3.333A8.789,8.789,0,0,1,69.979,44.8Z" transform="translate(-16.231)" fill="#38d5ae"/>
        </g>
      </g>
      <g id="Grupo_1356" data-name="Grupo 1356" transform="translate(9.98 24.39)">
        <g id="Grupo_1355" data-name="Grupo 1355">
          <rect id="Rectángulo_1124" data-name="Rectángulo 1124" width="3.695" height="3.695" fill="#38d5ae"/>
        </g>
      </g>
      <g id="Grupo_1358" data-name="Grupo 1358" transform="translate(17.289 24.39)">
        <g id="Grupo_1357" data-name="Grupo 1357">
          <rect id="Rectángulo_1125" data-name="Rectángulo 1125" width="3.695" height="3.695" fill="#38d5ae"/>
        </g>
      </g>
      <g id="Grupo_1360" data-name="Grupo 1360" transform="translate(24.596 24.39)">
        <g id="Grupo_1359" data-name="Grupo 1359">
          <rect id="Rectángulo_1126" data-name="Rectángulo 1126" width="3.695" height="3.695" fill="#38d5ae"/>
        </g>
      </g>
      <g id="Grupo_1362" data-name="Grupo 1362" transform="translate(31.904 24.39)">
        <g id="Grupo_1361" data-name="Grupo 1361">
          <rect id="Rectángulo_1127" data-name="Rectángulo 1127" width="3.695" height="3.695" fill="#38d5ae"/>
        </g>
      </g>
    </g>
    <rect id="Rectángulo_1146" data-name="Rectángulo 1146" width="59" height="63" transform="translate(759 971)" fill="none"/>
  </g>
</svg>
