<svg id="Grupo_242" data-name="Grupo 242" xmlns="http://www.w3.org/2000/svg" width="29.787" height="29.819" viewBox="0 0 29.787 29.819">
  <path id="Trazado_24346" data-name="Trazado 24346" d="M68.494,98.14l2.086-7.409a14.868,14.868,0,1,1,5.555,5.442Zm8.032-4.673.455.278a12.348,12.348,0,1,0-3.975-3.886l.307.477-1.2,4.267Z" transform="translate(-68.494 -68.321)" fill="#fff"/>
  <path id="Trazado_24347" data-name="Trazado 24347" d="M150.94,152.88l-.965-.053a1.167,1.167,0,0,0-.83.284,4.4,4.4,0,0,0-1.446,2.216,6.716,6.716,0,0,0,1.558,5.264,15.662,15.662,0,0,0,8.442,6.137,4.114,4.114,0,0,0,3.484-.431,3.116,3.116,0,0,0,1.356-1.978l.154-.72a.5.5,0,0,0-.28-.559l-3.262-1.5a.5.5,0,0,0-.605.149l-1.281,1.66a.366.366,0,0,1-.412.123,10.028,10.028,0,0,1-5.426-4.643.37.37,0,0,1,.047-.413L152.7,157a.5.5,0,0,0,.082-.523l-1.406-3.29A.5.5,0,0,0,150.94,152.88Z" transform="translate(-140.206 -144.928)" fill="#fff"/>
</svg>
