<svg xmlns="http://www.w3.org/2000/svg" width="59" height="63" viewBox="0 0 59 63">
  <g id="Grupo_1532" data-name="Grupo 1532" transform="translate(-670 -971)">
    <path id="Icon_awesome-whatsapp" data-name="Icon awesome-whatsapp" d="M43.849,9.744A25.565,25.565,0,0,0,3.626,40.585L0,53.823l13.55-3.557a25.479,25.479,0,0,0,12.214,3.108h.012a25.8,25.8,0,0,0,25.8-25.557A25.657,25.657,0,0,0,43.849,9.744ZM25.775,49.069A21.2,21.2,0,0,1,14.954,46.11l-.771-.46L6.147,47.757l2.141-7.84-.507-.806A21.283,21.283,0,1,1,47.257,27.818,21.479,21.479,0,0,1,25.775,49.069Zm11.65-15.91c-.633-.322-3.776-1.865-4.363-2.072s-1.013-.322-1.439.322-1.646,2.072-2.026,2.51-.748.484-1.381.161c-3.753-1.876-6.216-3.35-8.692-7.6-.656-1.128.656-1.048,1.876-3.488a1.183,1.183,0,0,0-.058-1.117c-.161-.322-1.439-3.465-1.969-4.743-.518-1.243-1.048-1.071-1.439-1.094-.368-.023-.794-.023-1.22-.023a2.366,2.366,0,0,0-1.7.794,7.176,7.176,0,0,0-2.233,5.33c0,3.143,2.291,6.182,2.6,6.608s4.5,6.873,10.913,9.647c4.052,1.75,5.641,1.9,7.667,1.6,1.232-.184,3.776-1.543,4.305-3.039a5.341,5.341,0,0,0,.368-3.039C38.484,33.632,38.058,33.47,37.425,33.16Z" transform="translate(674 974.75)" fill="#38d5ae"/>
    <rect id="Rectángulo_1145" data-name="Rectángulo 1145" width="59" height="63" transform="translate(670 971)" fill="none"/>
  </g>
</svg>
