<svg xmlns="http://www.w3.org/2000/svg" width="38" height="38" viewBox="0 0 38 38">
  <g id="Grupo_1533" data-name="Grupo 1533" transform="translate(-1209 -1296)">
    <g id="Grupo_1532" data-name="Grupo 1532" transform="translate(1216 1303)">
      <path id="Trazado_25128" data-name="Trazado 25128" d="M134.977,188.426H132.5a.5.5,0,0,1-.5-.5V179.5a.5.5,0,0,1,.5-.5h2.481a.5.5,0,0,1,.5.5v8.434A.5.5,0,0,1,134.977,188.426Zm-1.984-.992h1.488v-7.442h-1.488Z" transform="translate(-132 -163.621)" fill="#1d1b4c"/>
      <g id="Grupo_1004" data-name="Grupo 1004" transform="translate(2.48 0)">
        <circle id="Elipse_503" data-name="Elipse 503" cx="8.34" cy="8.34" r="8.34" transform="translate(6.513 2.134)" fill="#54febd"/>
        <path id="Trazado_25129" data-name="Trazado 25129" d="M147.693,190.816c-.1,0-.206,0-.309-.012l-9.926-.769a.5.5,0,0,1,.076-.989l9.927.769a2.961,2.961,0,0,0,1.552-.3l7.283-3.607-.812-.471a3.1,3.1,0,0,0-3.188-.072l-4.2,1.935a1.977,1.977,0,0,1-1.918-.145l-3.622-2.371a.5.5,0,0,1,.544-.83l3.622,2.371a.991.991,0,0,0,.96.072l4.216-1.939a4.045,4.045,0,0,1,4.119.14l.782.452a.987.987,0,0,1,.493.883,1,1,0,0,1-.547.862l-7.287,3.609A3.968,3.968,0,0,1,147.693,190.816Z" transform="translate(-137 -166.074)" fill="#1d1b4c"/>
        <path id="Trazado_25130" data-name="Trazado 25130" d="M141.029,181.423a.5.5,0,0,1-.227-.938l.147-.075c.551-.282,1.1-.564,1.648-.846q2.465-1.259,4.922-2.526a3.24,3.24,0,0,0-3.977-.293,17.622,17.622,0,0,1-5.985,2.016.5.5,0,0,1-.121-.985,16.681,16.681,0,0,0,5.654-1.913,4.22,4.22,0,0,1,5.071.416.989.989,0,0,1-.193,1.645q-2.448,1.262-4.917,2.524c-.545.282-1.1.564-1.648.847l-.147.075A.493.493,0,0,1,141.029,181.423Z" transform="translate(-137 -161.713)" fill="#1d1b4c"/>
        <path id="Trazado_25131" data-name="Trazado 25131" d="M154.93,165.86a8.932,8.932,0,0,1-4.125-1.014.5.5,0,1,1,.46-.879,7.824,7.824,0,0,0,3.664.9,7.93,7.93,0,0,0,6.1-13.01,6.852,6.852,0,0,0-2.387-1.944A7.931,7.931,0,0,0,148.831,162a.5.5,0,0,1-.761.637,8.922,8.922,0,0,1,10.984-13.622,7.775,7.775,0,0,1,2.737,2.213,8.921,8.921,0,0,1-6.862,14.633Z" transform="translate(-141.535 -148)" fill="#1d1b4c"/>
        <path id="Trazado_25132" data-name="Trazado 25132" d="M160,165.914c-.111,0-.222,0-.333,0a2.744,2.744,0,0,1-2.46-1.838.5.5,0,1,1,.929-.348,1.736,1.736,0,0,0,1.56,1.194c.205.005.412,0,.618,0l.323,0h.172a2.424,2.424,0,0,0,1.092-.147,2.042,2.042,0,0,0,1.055-1.832,2.009,2.009,0,0,0-1.229-1.911,2.893,2.893,0,0,0-.961-.079c-.1,0-.195,0-.291,0l-.261,0a3.664,3.664,0,0,1-1.382-.158,2.982,2.982,0,0,1-1.83-2.824,3.035,3.035,0,0,1,1.617-2.726A3.32,3.32,0,0,1,160.15,155h.16l.314,0c.219,0,.438,0,.657,0a2.744,2.744,0,0,1,2.46,1.838.5.5,0,0,1-.929.348,1.736,1.736,0,0,0-1.56-1.194c-.206-.006-.412,0-.618,0l-.323,0h-.167a2.448,2.448,0,0,0-1.1.147,2.031,2.031,0,0,0-1.053,1.836,2.005,2.005,0,0,0,1.184,1.89,2.837,2.837,0,0,0,1.017.1c.184,0,.365,0,.549-.007a3.706,3.706,0,0,1,1.3.132,2.983,2.983,0,0,1,1.9,2.847,3.019,3.019,0,0,1-1.616,2.73,3.31,3.31,0,0,1-1.53.246h-.164l-.314,0Z" transform="translate(-147.077 -151.527)" fill="#1d1b4c"/>
        <path id="Trazado_25133" data-name="Trazado 25133" d="M163.5,165.9a.5.5,0,0,1-.5-.5V153.5a.5.5,0,0,1,.992,0V165.4A.5.5,0,0,1,163.5,165.9Z" transform="translate(-150.101 -150.519)" fill="#1d1b4c"/>
      </g>
    </g>
    <rect id="Rectángulo_1148" data-name="Rectángulo 1148" width="38" height="38" transform="translate(1209 1296)" fill="none"/>
  </g>
</svg>
