<svg id="Grupo_1276" data-name="Grupo 1276" xmlns="http://www.w3.org/2000/svg" xmlns:xlink="http://www.w3.org/1999/xlink" width="117.655" height="69.973" viewBox="0 0 117.655 69.973">
  <defs>
    <linearGradient id="linear-gradient" y1="0.5" x2="1" y2="0.5" gradientUnits="objectBoundingBox">
      <stop offset="0" stop-color="#5abc7d"/>
      <stop offset="0" stop-color="#33ee73"/>
      <stop offset="1" stop-color="#38d5ae"/>
    </linearGradient>
    <linearGradient id="linear-gradient-2" x1="0.501" y1="1" x2="0.501" y2="-0.001" xlink:href="#linear-gradient"/>
    <linearGradient id="linear-gradient-3" x1="0.5" y1="0.999" x2="0.5" y2="0" xlink:href="#linear-gradient"/>
    <linearGradient id="linear-gradient-4" x1="0.5" y1="0.999" x2="0.5" y2="-0.001" xlink:href="#linear-gradient"/>
    <linearGradient id="linear-gradient-5" x1="-0.002" y1="0.5" x2="1" y2="0.5" xlink:href="#linear-gradient"/>
    <linearGradient id="linear-gradient-6" x1="-0.002" y1="0.499" x2="0.999" y2="0.499" xlink:href="#linear-gradient"/>
  </defs>
  <g id="Grupo_21" data-name="Grupo 21" transform="translate(88.061 13.623)">
    <g id="Grupo_20" data-name="Grupo 20">
      <path id="Trazado_21" data-name="Trazado 21" d="M557.353,191.331a1.48,1.48,0,0,1,1.441,1.441v4.673a1.48,1.48,0,0,1-1.441,1.441h-9.531v9.531a1.48,1.48,0,0,1-1.441,1.441h-4.673a1.48,1.48,0,0,1-1.441-1.441v-9.531h-9.625a1.48,1.48,0,0,1-1.441-1.441v-4.673a1.48,1.48,0,0,1,1.441-1.441h9.625v-9.09a1.48,1.48,0,0,1,1.441-1.441h4.673a1.48,1.48,0,0,1,1.441,1.441v9.113h9.531Z" transform="translate(-529.2 -180.8)" fill="url(#linear-gradient)"/>
    </g>
  </g>
  <g id="Grupo_22" data-name="Grupo 22">
    <ellipse id="Elipse_9" data-name="Elipse 9" cx="3.844" cy="3.844" rx="3.844" ry="3.844" transform="translate(0.058 25.408)" fill="url(#linear-gradient-2)"/>
    <path id="Trazado_22" data-name="Trazado 22" d="M180.527,117.9H180.5a3.621,3.621,0,0,0-3.6,3.6v7.741a3.6,3.6,0,1,0,7.207,0v-2.7c7,.953,10.345,5.045,10.345,13.228,0,8-3.51,11.856-10.345,12.856v-2.325a3.6,3.6,0,0,0-7.207,0v7.741a3.621,3.621,0,0,0,3.6,3.6h.023a21.876,21.876,0,0,0,0-43.752Z" transform="translate(-166.74 -117.9)" fill="url(#linear-gradient-3)"/>
    <ellipse id="Elipse_10" data-name="Elipse 10" cx="3.844" cy="3.844" rx="3.844" ry="3.844" transform="translate(0 11.274)" fill="url(#linear-gradient-4)"/>
  </g>
  <path id="Trazado_23" data-name="Trazado 23" d="M336.142,183.3V197.32a1.322,1.322,0,0,1-1.279,1.279h-5.37a1.322,1.322,0,0,1-1.279-1.279V194a11.546,11.546,0,0,1-10.229,5.6c-8.648,0-13.786-6.6-13.786-16.064,0-10,7.114-16.134,16.064-16.134C329.168,167.4,336.142,172.84,336.142,183.3Zm-11.229-.162c0-4.673-3.417-6.416-6.044-6.416a6.122,6.122,0,0,0-6.23,6.347c0,4.975,3.045,6.486,6.044,6.486A6.307,6.307,0,0,0,324.914,183.139Z" transform="translate(-266.446 -155.893)" fill="url(#linear-gradient-5)"/>
  <path id="Trazado_24" data-name="Trazado 24" d="M481.672,179.449a1.331,1.331,0,0,1-1.511,1.069,20.648,20.648,0,0,0-3.627-.372c-3.324,0-6.37,1.813-6.37,6.37v15.622a1.322,1.322,0,0,1-1.279,1.279h-6.207a1.322,1.322,0,0,1-1.279-1.279V185.4c0-10.3,7.346-13.274,14.39-13.042a27.409,27.409,0,0,1,5.835.767,1.283,1.283,0,0,1,1.069,1.581Z" transform="translate(-389.101 -160.689)" fill="url(#linear-gradient-6)"/>
  <g id="Grupo_587" data-name="Grupo 587">
    <g id="Grupo_582" data-name="Grupo 582" transform="translate(10.068 55.86)">
      <path id="Trazado_13" data-name="Trazado 13" d="M-.1-.384a.415.415,0,0,1,.485.233A3.3,3.3,0,0,0,3.55,1.612c1.2,0,3.137-.332,3.137-2,0-2.995-8.147-.565-8.277-5.726.1-2.927,2.586-4.258,5.27-4.258,2.2,0,4.14.733,5.077,3.162a.32.32,0,0,1-.194.464L7.3-6.208c-.163.066-.324,0-.453-.2A3.111,3.111,0,0,0,3.745-8.2C2.549-8.2.674-7.839.674-6.11c0,2.7,8.243.566,8.243,5.659,0,3.095-2.683,4.193-5.3,4.193C1.383,3.742-.75,2.911-1.525.514A.34.34,0,0,1-1.3.048Z" transform="translate(1.59 10.368)" fill="#42454a"/>
    </g>
    <g id="Grupo_583" data-name="Grupo 583" transform="translate(30.374 55.86)">
      <path id="Trazado_14" data-name="Trazado 14" d="M-.926-.271V6.018a.329.329,0,0,1-.355.367H-2.833a.33.33,0,0,1-.356-.367V4.487a5.719,5.719,0,0,1-4.559,2.3c-3.783.1-6.628-2.429-6.628-7.055A6.693,6.693,0,0,1-7.651-7.327C-3.868-7.327-.926-4.8-.926-.271m-2.263,0c0-2.963-1.617-4.858-4.462-4.858s-4.462,1.9-4.462,4.858c0,3.06,1.617,4.859,4.462,4.859,2.812,0,4.365-1.8,4.462-4.859" transform="translate(14.376 7.327)" fill="#42454a"/>
    </g>
    <g id="Grupo_584" data-name="Grupo 584" transform="translate(57.039 52.707)">
      <path id="Trazado_15" data-name="Trazado 15" d="M-.156-.635A.328.328,0,0,1-.51-.269H-2.062a.328.328,0,0,1-.356-.366V-16.764a.329.329,0,0,1,.356-.368H-.51a.329.329,0,0,1,.355.368Z" transform="translate(2.418 17.132)" fill="#42454a"/>
    </g>
    <g id="Grupo_585" data-name="Grupo 585" transform="translate(70.713 56.259)">
      <path id="Trazado_16" data-name="Trazado 16" d="M-.708-.014A.327.327,0,0,1-.353-.379H1.2a.327.327,0,0,1,.356.365v6.69c0,4.327-2.652,6.657-6.272,6.657S-10.991,11-10.991,6.676V-.014a.327.327,0,0,1,.356-.365h1.551a.329.329,0,0,1,.357.365v6.69c0,3.562,2.3,4.46,4.009,4.46s4.01-.9,4.01-4.46Z" transform="translate(10.991 0.379)" fill="#42454a"/>
    </g>
    <g id="Grupo_586" data-name="Grupo 586" transform="translate(92.822 50.871)">
      <path id="Trazado_17" data-name="Trazado 17" d="M-.9,0A.327.327,0,0,1-.547.366V12.045c0,4.526-2.942,7.055-6.725,7.055A6.7,6.7,0,0,1-14,12.045c0-4.56,2.846-7.156,6.63-7.056a5.725,5.725,0,0,1,4.559,2.3V.366A.328.328,0,0,1-2.454,0ZM-2.81,12.045c-.1-3.062-1.649-4.858-4.462-4.858-2.846,0-4.462,1.8-4.462,4.858,0,2.962,1.616,4.859,4.462,4.859s4.462-1.9,4.462-4.859" transform="translate(13.999)" fill="#42454a"/>
    </g>
  </g>
</svg>
