<svg xmlns="http://www.w3.org/2000/svg" width="69" height="76" viewBox="0 0 69 76">
  <g id="Grupo_1326" data-name="Grupo 1326" transform="translate(-1233 -1785)">
    <g id="Grupo_1319" data-name="Grupo 1319" transform="translate(1238 1787)">
      <g id="Grupo_1075" data-name="Grupo 1075" transform="translate(0 13.072)">
        <rect id="Rectángulo_1041" data-name="Rectángulo 1041" width="27.439" height="40.766" transform="translate(20.383 6.272)" fill="#54febd"/>
        <line id="Línea_141" data-name="Línea 141" x1="48.605" transform="translate(0 48.605)" fill="none" stroke="#1d1b4c" stroke-linecap="round" stroke-linejoin="round" stroke-width="2"/>
        <line id="Línea_142" data-name="Línea 142" x2="27.439" transform="translate(14.895 29.79)" fill="none" stroke="#1d1b4c" stroke-linecap="round" stroke-linejoin="round" stroke-width="2"/>
        <line id="Línea_143" data-name="Línea 143" x2="27.439" transform="translate(14.895 35.278)" fill="none" stroke="#1d1b4c" stroke-linecap="round" stroke-linejoin="round" stroke-width="2"/>
        <path id="Trazado_25172" data-name="Trazado 25172" d="M682.71,215.9V172H649v28.536" transform="translate(-637.241 -167.296)" fill="none" stroke="#1d1b4c" stroke-linecap="round" stroke-linejoin="round" stroke-width="2"/>
        <line id="Línea_144" data-name="Línea 144" y1="9.721" transform="translate(11.759 38.884)" fill="none" stroke="#1d1b4c" stroke-linecap="round" stroke-linejoin="round" stroke-width="2"/>
        <path id="Trazado_25173" data-name="Trazado 25173" d="M653,216.766V176h27.438v40.766" transform="translate(-638.105 -168.16)" fill="none" stroke="#1d1b4c" stroke-linecap="round" stroke-linejoin="round" stroke-width="2"/>
        <rect id="Rectángulo_1042" data-name="Rectángulo 1042" width="27.439" height="4.704" transform="translate(14.895)" fill="none" stroke="#1d1b4c" stroke-linecap="round" stroke-linejoin="round" stroke-width="2"/>
        <line id="Línea_145" data-name="Línea 145" y2="39.982" transform="translate(20.383 7.84)" fill="none" stroke="#1d1b4c" stroke-linecap="round" stroke-linejoin="round" stroke-width="2"/>
        <line id="Línea_146" data-name="Línea 146" y2="39.982" transform="translate(25.871 7.84)" fill="none" stroke="#1d1b4c" stroke-linecap="round" stroke-linejoin="round" stroke-width="2"/>
        <line id="Línea_147" data-name="Línea 147" y2="39.982" transform="translate(31.358 7.84)" fill="none" stroke="#1d1b4c" stroke-linecap="round" stroke-linejoin="round" stroke-width="2"/>
        <line id="Línea_148" data-name="Línea 148" y2="39.982" transform="translate(36.846 7.84)" fill="none" stroke="#1d1b4c" stroke-linecap="round" stroke-linejoin="round" stroke-width="2"/>
        <line id="Línea_149" data-name="Línea 149" x2="27.439" transform="translate(14.895 13.327)" fill="none" stroke="#1d1b4c" stroke-linecap="round" stroke-linejoin="round" stroke-width="2"/>
        <line id="Línea_150" data-name="Línea 150" x2="27.439" transform="translate(14.895 18.815)" fill="none" stroke="#1d1b4c" stroke-linecap="round" stroke-linejoin="round" stroke-width="2"/>
        <line id="Línea_151" data-name="Línea 151" x2="27.439" transform="translate(14.895 24.303)" fill="none" stroke="#1d1b4c" stroke-linecap="round" stroke-linejoin="round" stroke-width="2"/>
        <line id="Línea_152" data-name="Línea 152" x2="27.439" transform="translate(14.895 40.766)" fill="none" stroke="#1d1b4c" stroke-linecap="round" stroke-linejoin="round" stroke-width="2"/>
        <circle id="Elipse_512" data-name="Elipse 512" cx="5.488" cy="5.488" r="5.488" transform="translate(1.568 30.574)" fill="none" stroke="#1d1b4c" stroke-linecap="round" stroke-linejoin="round" stroke-width="2"/>
        <line id="Línea_153" data-name="Línea 153" y2="12.543" transform="translate(7.056 36.062)" fill="none" stroke="#1d1b4c" stroke-linecap="round" stroke-linejoin="round" stroke-width="2"/>
        <path id="Trazado_25174" data-name="Trazado 25174" d="M644.7,212a2.352,2.352,0,0,1-4.7,0" transform="translate(-635.296 -175.938)" fill="none" stroke="#1d1b4c" stroke-linecap="round" stroke-linejoin="round" stroke-width="2"/>
      </g>
      <g id="Grupo_1076" data-name="Grupo 1076" transform="translate(24.662 0)">
        <rect id="Rectángulo_1043" data-name="Rectángulo 1043" width="10.666" height="2.207" transform="translate(6.62 0.92) rotate(90)" fill="#54febd"/>
        <rect id="Rectángulo_1044" data-name="Rectángulo 1044" width="10.666" height="2.207" transform="translate(0.551 5.149)" fill="#54febd"/>
        <path id="Trazado_25175" data-name="Trazado 25175" d="M677.573,156.028a.183.183,0,0,1-.131-.054.192.192,0,0,1-.053-.13.2.2,0,0,1,.053-.131.185.185,0,0,1,.261.261A.184.184,0,0,1,677.573,156.028Z" transform="translate(-666.723 -150.695)" fill="#1d1b4c"/>
        <path id="Trazado_25176" data-name="Trazado 25176" d="M677.573,156.966a.182.182,0,1,1,.13-.053A.193.193,0,0,1,677.573,156.966Z" transform="translate(-666.723 -150.898)" fill="#1d1b4c"/>
        <path id="Trazado_25177" data-name="Trazado 25177" d="M677.573,157.9a.192.192,0,0,1-.131-.053.2.2,0,0,1-.053-.131.184.184,0,1,1,.368,0,.2.2,0,0,1-.053.131A.193.193,0,0,1,677.573,157.9Z" transform="translate(-666.723 -151.101)" fill="#1d1b4c"/>
        <path id="Trazado_25178" data-name="Trazado 25178" d="M664.906,156.028a.184.184,0,0,1-.184-.184.2.2,0,0,1,.053-.131.185.185,0,1,1,.13.315Z" transform="translate(-663.987 -150.695)" fill="#1d1b4c"/>
        <path id="Trazado_25179" data-name="Trazado 25179" d="M664.906,156.966a.194.194,0,0,1-.13-.053.189.189,0,0,1-.053-.13.184.184,0,1,1,.368,0,.184.184,0,0,1-.055.13A.187.187,0,0,1,664.906,156.966Z" transform="translate(-663.987 -150.898)" fill="#1d1b4c"/>
        <path id="Trazado_25180" data-name="Trazado 25180" d="M664.906,157.9a.193.193,0,0,1-.13-.053.2.2,0,0,1-.053-.131.183.183,0,0,1,.313-.13.187.187,0,0,1,.055.13.2.2,0,0,1-.053.131A.194.194,0,0,1,664.906,157.9Z" transform="translate(-663.987 -151.101)" fill="#1d1b4c"/>
        <path id="Trazado_25181" data-name="Trazado 25181" d="M671.14,161.1H668.2a.184.184,0,0,1-.183-.183v-4.046h-4.045a.184.184,0,0,1-.184-.184V153.74a.184.184,0,0,1,.184-.184h4.045v-4.046a.184.184,0,0,1,.183-.183h2.943a.184.184,0,0,1,.183.183v4.046h4.045a.184.184,0,0,1,.184.184v2.942a.184.184,0,0,1-.184.184h-4.045v4.046A.184.184,0,0,1,671.14,161.1Zm-2.759-.368h2.574v-4.046a.184.184,0,0,1,.184-.183h4.045v-2.575H671.14a.184.184,0,0,1-.184-.183v-4.046h-2.574v4.046a.184.184,0,0,1-.184.183h-4.045V156.5H668.2a.184.184,0,0,1,.184.183Z" transform="translate(-663.784 -149.326)" fill="#1d1b4c"/>
        <path id="Trazado_25182" data-name="Trazado 25182" d="M671.24,150.632a.188.188,0,0,1-.13-.053.192.192,0,0,1-.053-.131.189.189,0,0,1,.053-.13.183.183,0,0,1,.314.13.18.18,0,0,1-.183.183Z" transform="translate(-665.355 -149.529)" fill="#1d1b4c"/>
        <path id="Trazado_25183" data-name="Trazado 25183" d="M670.3,150.632a.194.194,0,0,1-.131-.053.191.191,0,0,1-.053-.131.188.188,0,0,1,.053-.13.193.193,0,0,1,.262,0,.2.2,0,0,1,.053.13.2.2,0,0,1-.053.131A.2.2,0,0,1,670.3,150.632Z" transform="translate(-665.152 -149.529)" fill="#1d1b4c"/>
        <path id="Trazado_25184" data-name="Trazado 25184" d="M672.177,150.632a.179.179,0,0,1-.183-.183.184.184,0,0,1,.368,0,.2.2,0,0,1-.054.131A.19.19,0,0,1,672.177,150.632Z" transform="translate(-665.558 -149.529)" fill="#1d1b4c"/>
        <path id="Trazado_25185" data-name="Trazado 25185" d="M671.24,151.571a.189.189,0,0,1-.13-.053.185.185,0,1,1,.314-.13.181.181,0,0,1-.183.183Z" transform="translate(-665.355 -149.732)" fill="#1d1b4c"/>
        <path id="Trazado_25186" data-name="Trazado 25186" d="M670.3,151.571a.194.194,0,0,1-.131-.053.187.187,0,0,1,0-.261.193.193,0,0,1,.262,0,.184.184,0,0,1-.131.314Z" transform="translate(-665.152 -149.732)" fill="#1d1b4c"/>
        <path id="Trazado_25187" data-name="Trazado 25187" d="M672.177,151.571a.2.2,0,0,1-.131-.053.19.19,0,0,1-.052-.13.184.184,0,1,1,.368,0,.2.2,0,0,1-.054.13A.191.191,0,0,1,672.177,151.571Z" transform="translate(-665.558 -149.732)" fill="#1d1b4c"/>
        <path id="Trazado_25188" data-name="Trazado 25188" d="M671.24,152.509a.189.189,0,0,1-.13-.053.186.186,0,0,1-.053-.13.184.184,0,0,1,.314-.131.188.188,0,0,1,0,.261A.2.2,0,0,1,671.24,152.509Z" transform="translate(-665.355 -149.935)" fill="#1d1b4c"/>
        <path id="Trazado_25189" data-name="Trazado 25189" d="M670.3,152.509a.194.194,0,0,1-.131-.053.189.189,0,0,1-.053-.13.184.184,0,0,1,.315-.131.184.184,0,0,1-.131.314Z" transform="translate(-665.152 -149.935)" fill="#1d1b4c"/>
        <path id="Trazado_25190" data-name="Trazado 25190" d="M672.177,152.509a.2.2,0,0,1-.131-.053.189.189,0,0,1-.052-.13.183.183,0,0,1,.313-.131.2.2,0,0,1,.054.131.183.183,0,0,1-.184.183Z" transform="translate(-665.558 -149.935)" fill="#1d1b4c"/>
        <path id="Trazado_25191" data-name="Trazado 25191" d="M671.24,153.447a.186.186,0,0,1-.13-.053.184.184,0,0,1,.261-.26.183.183,0,0,1-.131.314Z" transform="translate(-665.355 -150.137)" fill="#1d1b4c"/>
        <path id="Trazado_25192" data-name="Trazado 25192" d="M670.3,153.447a.184.184,0,0,1-.131-.053.186.186,0,0,1,0-.26.191.191,0,0,1,.262,0,.187.187,0,0,1,0,.26A.185.185,0,0,1,670.3,153.447Z" transform="translate(-665.152 -150.137)" fill="#1d1b4c"/>
        <path id="Trazado_25193" data-name="Trazado 25193" d="M672.177,153.447a.183.183,0,1,1,.13-.053A.187.187,0,0,1,672.177,153.447Z" transform="translate(-665.558 -150.137)" fill="#1d1b4c"/>
        <path id="Trazado_25194" data-name="Trazado 25194" d="M671.24,154.386a.182.182,0,0,1-.183-.184.184.184,0,0,1,.055-.131.184.184,0,0,1,.26.262A.2.2,0,0,1,671.24,154.386Z" transform="translate(-665.355 -150.34)" fill="#1d1b4c"/>
        <path id="Trazado_25195" data-name="Trazado 25195" d="M671.24,159.547a.186.186,0,0,1-.183-.184.184.184,0,0,1,.314-.131.184.184,0,0,1-.131.315Z" transform="translate(-665.355 -151.455)" fill="#1d1b4c"/>
        <path id="Trazado_25196" data-name="Trazado 25196" d="M671.24,160.485a.189.189,0,0,1-.13-.053.192.192,0,0,1-.053-.131.189.189,0,0,1,.053-.13.183.183,0,0,1,.314.13.181.181,0,0,1-.183.184Z" transform="translate(-665.355 -151.658)" fill="#1d1b4c"/>
        <path id="Trazado_25197" data-name="Trazado 25197" d="M670.3,160.485a.194.194,0,0,1-.131-.053.191.191,0,0,1-.053-.131.187.187,0,0,1,.053-.13.193.193,0,0,1,.262,0,.2.2,0,0,1,.053.13.2.2,0,0,1-.053.131A.2.2,0,0,1,670.3,160.485Z" transform="translate(-665.152 -151.658)" fill="#1d1b4c"/>
        <path id="Trazado_25198" data-name="Trazado 25198" d="M672.177,160.485a.2.2,0,0,1-.131-.053.185.185,0,0,1,.261-.261.193.193,0,0,1,.054.13.2.2,0,0,1-.054.131A.191.191,0,0,1,672.177,160.485Z" transform="translate(-665.558 -151.658)" fill="#1d1b4c"/>
        <path id="Trazado_25199" data-name="Trazado 25199" d="M671.24,161.424a.192.192,0,0,1-.13-.053.189.189,0,0,1-.053-.13.182.182,0,0,1,.055-.131.184.184,0,0,1,.26.261A.2.2,0,0,1,671.24,161.424Z" transform="translate(-665.355 -151.861)" fill="#1d1b4c"/>
        <path id="Trazado_25200" data-name="Trazado 25200" d="M670.3,161.423a.194.194,0,0,1-.131-.053.187.187,0,0,1,0-.261.193.193,0,0,1,.262,0,.184.184,0,0,1-.131.314Z" transform="translate(-665.152 -151.861)" fill="#1d1b4c"/>
        <path id="Trazado_25201" data-name="Trazado 25201" d="M672.177,161.423a.2.2,0,0,1-.131-.053.189.189,0,0,1,0-.261.192.192,0,0,1,.261,0,.2.2,0,0,1,.054.131.183.183,0,0,1-.184.183Z" transform="translate(-665.558 -151.861)" fill="#1d1b4c"/>
        <path id="Trazado_25202" data-name="Trazado 25202" d="M671.24,162.362a.185.185,0,0,1-.13-.314.183.183,0,0,1,.314.13.192.192,0,0,1-.053.131A.2.2,0,0,1,671.24,162.362Z" transform="translate(-665.355 -152.063)" fill="#1d1b4c"/>
        <path id="Trazado_25203" data-name="Trazado 25203" d="M670.3,162.361a.194.194,0,0,1-.131-.053.19.19,0,0,1-.053-.131.184.184,0,0,1,.315-.13.184.184,0,0,1-.131.314Z" transform="translate(-665.152 -152.063)" fill="#1d1b4c"/>
        <path id="Trazado_25204" data-name="Trazado 25204" d="M672.177,162.361a.2.2,0,0,1-.131-.053.185.185,0,1,1,.261-.261.184.184,0,0,1,0,.261A.19.19,0,0,1,672.177,162.361Z" transform="translate(-665.558 -152.063)" fill="#1d1b4c"/>
        <path id="Trazado_25205" data-name="Trazado 25205" d="M671.24,163.3a.184.184,0,1,1,.131-.314.189.189,0,0,1,0,.262A.2.2,0,0,1,671.24,163.3Z" transform="translate(-665.355 -152.266)" fill="#1d1b4c"/>
        <path id="Trazado_25206" data-name="Trazado 25206" d="M670.3,163.3a.2.2,0,0,1-.131-.053.188.188,0,0,1-.053-.131.191.191,0,0,1,.053-.131.2.2,0,0,1,.262,0,.183.183,0,0,1-.131.314Z" transform="translate(-665.152 -152.266)" fill="#1d1b4c"/>
        <path id="Trazado_25207" data-name="Trazado 25207" d="M672.177,163.3a.2.2,0,0,1-.131-.053.188.188,0,1,1,.131.053Z" transform="translate(-665.558 -152.266)" fill="#1d1b4c"/>
        <path id="Trazado_25208" data-name="Trazado 25208" d="M676.634,156.028a.185.185,0,0,1-.184-.184.2.2,0,0,1,.054-.131.194.194,0,0,1,.261,0,.2.2,0,0,1,.053.131.182.182,0,0,1-.055.13A.185.185,0,0,1,676.634,156.028Z" transform="translate(-666.52 -150.695)" fill="#1d1b4c"/>
        <path id="Trazado_25209" data-name="Trazado 25209" d="M675.7,156.028a.182.182,0,0,1-.183-.184.189.189,0,0,1,.052-.131.184.184,0,0,1,.314.131.182.182,0,0,1-.053.13A.19.19,0,0,1,675.7,156.028Z" transform="translate(-666.318 -150.695)" fill="#1d1b4c"/>
        <path id="Trazado_25210" data-name="Trazado 25210" d="M676.634,156.966a.182.182,0,1,1,.131-.053A.194.194,0,0,1,676.634,156.966Z" transform="translate(-666.52 -150.898)" fill="#1d1b4c"/>
        <path id="Trazado_25211" data-name="Trazado 25211" d="M675.7,156.966a.193.193,0,0,1-.131-.053.189.189,0,0,1-.052-.13.183.183,0,0,1,.314-.131.183.183,0,0,1,.053.131.189.189,0,0,1-.053.13A.192.192,0,0,1,675.7,156.966Z" transform="translate(-666.318 -150.898)" fill="#1d1b4c"/>
        <path id="Trazado_25212" data-name="Trazado 25212" d="M676.634,157.9a.192.192,0,0,1-.13-.053.2.2,0,0,1-.054-.131.185.185,0,0,1,.315-.13.189.189,0,0,1,.053.13.2.2,0,0,1-.053.131A.194.194,0,0,1,676.634,157.9Z" transform="translate(-666.52 -151.101)" fill="#1d1b4c"/>
        <path id="Trazado_25213" data-name="Trazado 25213" d="M675.7,157.9a.179.179,0,0,1-.183-.183.192.192,0,0,1,.052-.13.194.194,0,0,1,.261,0,.182.182,0,0,1,.053.13.181.181,0,0,1-.183.183Z" transform="translate(-666.318 -151.101)" fill="#1d1b4c"/>
        <path id="Trazado_25214" data-name="Trazado 25214" d="M674.758,156.028a.187.187,0,0,1-.131-.054.192.192,0,0,1-.053-.13.184.184,0,1,1,.368,0,.191.191,0,0,1-.053.13A.194.194,0,0,1,674.758,156.028Z" transform="translate(-666.115 -150.695)" fill="#1d1b4c"/>
        <path id="Trazado_25215" data-name="Trazado 25215" d="M673.82,156.966a.194.194,0,0,1-.13-.053.183.183,0,0,1-.053-.13.189.189,0,0,1,.053-.131.183.183,0,0,1,.314.131.189.189,0,0,1-.053.13A.194.194,0,0,1,673.82,156.966Z" transform="translate(-665.912 -150.898)" fill="#1d1b4c"/>
        <path id="Trazado_25216" data-name="Trazado 25216" d="M674.758,156.966a.184.184,0,1,1,.131-.314.188.188,0,0,1,0,.261A.2.2,0,0,1,674.758,156.966Z" transform="translate(-666.115 -150.898)" fill="#1d1b4c"/>
        <path id="Trazado_25217" data-name="Trazado 25217" d="M674.758,157.9a.189.189,0,0,1-.131-.053.2.2,0,0,1-.053-.131.184.184,0,0,1,.055-.13.191.191,0,0,1,.26,0,.188.188,0,0,1,.053.13.18.18,0,0,1-.183.183Z" transform="translate(-666.115 -151.101)" fill="#1d1b4c"/>
        <path id="Trazado_25218" data-name="Trazado 25218" d="M667.72,156.028a.182.182,0,0,1-.183-.184.184.184,0,1,1,.368,0,.183.183,0,0,1-.184.184Z" transform="translate(-664.595 -150.695)" fill="#1d1b4c"/>
        <path id="Trazado_25219" data-name="Trazado 25219" d="M668.659,156.966a.194.194,0,0,1-.131-.053.185.185,0,1,1,.261-.261.186.186,0,0,1,0,.261A.194.194,0,0,1,668.659,156.966Z" transform="translate(-664.798 -150.898)" fill="#1d1b4c"/>
        <path id="Trazado_25220" data-name="Trazado 25220" d="M667.72,156.966a.182.182,0,1,1,.131-.053A.193.193,0,0,1,667.72,156.966Z" transform="translate(-664.595 -150.898)" fill="#1d1b4c"/>
        <path id="Trazado_25221" data-name="Trazado 25221" d="M667.72,157.9a.192.192,0,0,1-.131-.053.2.2,0,0,1-.053-.131.184.184,0,1,1,.368,0,.2.2,0,0,1-.053.131A.194.194,0,0,1,667.72,157.9Z" transform="translate(-664.595 -151.101)" fill="#1d1b4c"/>
        <path id="Trazado_25222" data-name="Trazado 25222" d="M665.843,156.028a.191.191,0,0,1-.13-.054.189.189,0,0,1-.053-.13.191.191,0,0,1,.053-.131.194.194,0,0,1,.261,0,.2.2,0,0,1,.054.131.193.193,0,0,1-.054.13A.19.19,0,0,1,665.843,156.028Z" transform="translate(-664.189 -150.695)" fill="#1d1b4c"/>
        <path id="Trazado_25223" data-name="Trazado 25223" d="M666.782,156.028a.189.189,0,0,1-.13-.054.182.182,0,0,1-.053-.13.186.186,0,0,1,.053-.131.194.194,0,0,1,.261,0,.2.2,0,0,1,.052.131.192.192,0,0,1-.052.13A.19.19,0,0,1,666.782,156.028Z" transform="translate(-664.392 -150.695)" fill="#1d1b4c"/>
        <path id="Trazado_25224" data-name="Trazado 25224" d="M665.843,156.966a.194.194,0,0,1-.13-.053.186.186,0,0,1,0-.261.185.185,0,0,1,.315.131.186.186,0,0,1-.054.13A.193.193,0,0,1,665.843,156.966Z" transform="translate(-664.189 -150.898)" fill="#1d1b4c"/>
        <path id="Trazado_25225" data-name="Trazado 25225" d="M666.782,156.966a.192.192,0,0,1-.13-.053.187.187,0,0,1,0-.261.185.185,0,1,1,.13.314Z" transform="translate(-664.392 -150.898)" fill="#1d1b4c"/>
        <path id="Trazado_25226" data-name="Trazado 25226" d="M665.843,157.9a.193.193,0,0,1-.13-.053.186.186,0,0,1,0-.261.185.185,0,0,1,.315.13.2.2,0,0,1-.054.131A.192.192,0,0,1,665.843,157.9Z" transform="translate(-664.189 -151.101)" fill="#1d1b4c"/>
        <path id="Trazado_25227" data-name="Trazado 25227" d="M666.782,157.9a.192.192,0,0,1-.13-.053.187.187,0,0,1,0-.261.191.191,0,0,1,.261,0,.188.188,0,0,1,.052.129.179.179,0,0,1-.183.183Z" transform="translate(-664.392 -151.101)" fill="#1d1b4c"/>
      </g>
      <g id="Grupo_1077" data-name="Grupo 1077" transform="translate(33.913 44.953)">
        <circle id="Elipse_513" data-name="Elipse 513" cx="11.759" cy="11.759" r="11.759" fill="#ffc60b"/>
        <circle id="Elipse_514" data-name="Elipse 514" cx="11.759" cy="11.759" r="11.759" transform="translate(2.352 2.352)" fill="none" stroke="#1d1b4c" stroke-linecap="round" stroke-linejoin="round" stroke-width="2"/>
        <line id="Línea_154" data-name="Línea 154" x2="10.975" y2="10.975" transform="translate(8.624 8.624)" fill="none" stroke="#1d1b4c" stroke-linecap="round" stroke-linejoin="round" stroke-width="2"/>
        <line id="Línea_155" data-name="Línea 155" x1="10.975" y2="10.975" transform="translate(8.624 8.624)" fill="none" stroke="#1d1b4c" stroke-linecap="round" stroke-linejoin="round" stroke-width="2"/>
      </g>
    </g>
    <rect id="Rectángulo_1121" data-name="Rectángulo 1121" width="69" height="76" transform="translate(1233 1785)" fill="none"/>
  </g>
</svg>
