<svg xmlns="http://www.w3.org/2000/svg" width="69" height="76" viewBox="0 0 69 76">
  <g id="Grupo_1327" data-name="Grupo 1327" transform="translate(-1123 -1785)">
    <g id="Grupo_1324" data-name="Grupo 1324" transform="translate(1105.768 -514.477)">
      <g id="Grupo_1073" data-name="Grupo 1073" transform="translate(18 2303.245)">
        <ellipse id="Elipse_508" data-name="Elipse 508" cx="6" cy="6.5" rx="6" ry="6.5" transform="translate(29.232 1.232)" fill="#54febd"/>
        <path id="Rectángulo_1037" data-name="Rectángulo 1037" d="M4,0H16a4,4,0,0,1,4,4V18a0,0,0,0,1,0,0H0a0,0,0,0,1,0,0V4A4,4,0,0,1,4,0Z" transform="translate(21.232 17.232)" fill="#54febd"/>
        <circle id="Elipse_509" data-name="Elipse 509" cx="6.5" cy="6.5" r="6.5" transform="translate(27.232 0.232)" fill="none" stroke="#1d1b4c" stroke-linecap="round" stroke-linejoin="round" stroke-width="2"/>
        <path id="Rectángulo_1038" data-name="Rectángulo 1038" d="M4,0H15a4,4,0,0,1,4,4V20a0,0,0,0,1,0,0H0a0,0,0,0,1,0,0V4A4,4,0,0,1,4,0Z" transform="translate(24.232 13.232)" fill="none" stroke="#1d1b4c" stroke-linecap="round" stroke-linejoin="round" stroke-width="2"/>
        <line id="Línea_126" data-name="Línea 126" y1="12" transform="translate(29.232 21.232)" fill="none" stroke="#1d1b4c" stroke-linecap="round" stroke-linejoin="round" stroke-width="2"/>
        <line id="Línea_127" data-name="Línea 127" y1="12" transform="translate(37.232 21.232)" fill="none" stroke="#1d1b4c" stroke-linecap="round" stroke-linejoin="round" stroke-width="2"/>
        <ellipse id="Elipse_510" data-name="Elipse 510" cx="6.5" cy="6" rx="6.5" ry="6" transform="translate(2.232 35.232)" fill="#fff" stroke="#1d1b4c" stroke-linecap="round" stroke-linejoin="round" stroke-width="2"/>
        <path id="Rectángulo_1039" data-name="Rectángulo 1039" d="M4,0H15a4,4,0,0,1,4,4V20a0,0,0,0,1,0,0H0a0,0,0,0,1,0,0V4A4,4,0,0,1,4,0Z" transform="translate(0.232 47.232)" fill="#fff" stroke="#1d1b4c" stroke-linecap="round" stroke-linejoin="round" stroke-width="2"/>
        <line id="Línea_128" data-name="Línea 128" y1="11" transform="translate(5.232 56.232)" fill="none" stroke="#1d1b4c" stroke-linecap="round" stroke-linejoin="round" stroke-width="2"/>
        <line id="Línea_129" data-name="Línea 129" y1="11" transform="translate(14.232 56.232)" fill="none" stroke="#1d1b4c" stroke-linecap="round" stroke-linejoin="round" stroke-width="2"/>
        <ellipse id="Elipse_511" data-name="Elipse 511" cx="6.5" cy="6" rx="6.5" ry="6" transform="translate(51.232 35.232)" fill="#fff" stroke="#1d1b4c" stroke-linecap="round" stroke-linejoin="round" stroke-width="2"/>
        <path id="Rectángulo_1040" data-name="Rectángulo 1040" d="M4,0H16a4,4,0,0,1,4,4V20a0,0,0,0,1,0,0H0a0,0,0,0,1,0,0V4A4,4,0,0,1,4,0Z" transform="translate(47.232 47.232)" fill="#fff" stroke="#1d1b4c" stroke-linecap="round" stroke-linejoin="round" stroke-width="2"/>
        <line id="Línea_130" data-name="Línea 130" y1="11" transform="translate(53.232 56.232)" fill="none" stroke="#1d1b4c" stroke-linecap="round" stroke-linejoin="round" stroke-width="2"/>
        <line id="Línea_131" data-name="Línea 131" y1="11" transform="translate(62.232 56.232)" fill="none" stroke="#1d1b4c" stroke-linecap="round" stroke-linejoin="round" stroke-width="2"/>
        <line id="Línea_132" data-name="Línea 132" y2="10" transform="translate(33.232 37.232)" fill="none" stroke="#1d1b4c" stroke-linecap="round" stroke-linejoin="round" stroke-width="2"/>
        <line id="Línea_133" data-name="Línea 133" x1="9" y2="9" transform="translate(24.232 47.232)" fill="none" stroke="#1d1b4c" stroke-linecap="round" stroke-linejoin="round" stroke-width="2"/>
        <line id="Línea_134" data-name="Línea 134" x2="10" y2="9" transform="translate(33.232 47.232)" fill="none" stroke="#1d1b4c" stroke-linecap="round" stroke-linejoin="round" stroke-width="2"/>
        <line id="Línea_135" data-name="Línea 135" transform="translate(33.232 17.232)" fill="none" stroke="#1d1b4c" stroke-linecap="round" stroke-linejoin="round" stroke-width="2"/>
        <line id="Línea_136" data-name="Línea 136" transform="translate(58.232 52.232)" fill="none" stroke="#1d1b4c" stroke-linecap="round" stroke-linejoin="round" stroke-width="2"/>
        <line id="Línea_137" data-name="Línea 137" transform="translate(9.232 52.232)" fill="none" stroke="#1d1b4c" stroke-linecap="round" stroke-linejoin="round" stroke-width="2"/>
        <line id="Línea_138" data-name="Línea 138" transform="translate(9.232 55.232)" fill="none" stroke="#1d1b4c" stroke-linecap="round" stroke-linejoin="round" stroke-width="2"/>
        <line id="Línea_139" data-name="Línea 139" transform="translate(58.232 55.232)" fill="none" stroke="#1d1b4c" stroke-linecap="round" stroke-linejoin="round" stroke-width="2"/>
        <line id="Línea_140" data-name="Línea 140" transform="translate(33.232 21.232)" fill="none" stroke="#1d1b4c" stroke-linecap="round" stroke-linejoin="round" stroke-width="2"/>
      </g>
    </g>
    <rect id="Rectángulo_1122" data-name="Rectángulo 1122" width="69" height="76" transform="translate(1123 1785)" fill="none"/>
  </g>
</svg>
