<?xml version="1.0" encoding="utf-8"?>
<!-- Generator: Adobe Illustrator 24.1.0, SVG Export Plug-In . SVG Version: 6.00 Build 0)  -->
<svg version="1.1" id="Layer_1" xmlns="http://www.w3.org/2000/svg" xmlns:xlink="http://www.w3.org/1999/xlink" x="0px" y="0px"
	 viewBox="0 0 83.6 77" style="enable-background:new 0 0 83.6 77;" xml:space="preserve">
<style type="text/css">
	.st0{fill-rule:evenodd;clip-rule:evenodd;fill:#FFFFFF;}
</style>
<g id="Grupo_1098" transform="translate(621.815 839.036)">
	<path id="Trazado_25171" class="st0" d="M-560.1-762c-1.3-0.9-2.6-1.7-3.8-2.6c-4-3.1-7.8-6.5-12-9.4c-6-4.3-9.5-4.1-15.4,0.4
		c-2.2,1.7-4.2,3.5-6.4,5.1c-1.6,1.1-3.3,1.9-6.1,3.4c0.3-4,0.3-6.8,0.7-9.7c0.5-4,1.3-8.1,1.7-12.1c0.5-6.5-1.3-9.3-7.3-11.8
		c-3.2-1.3-6.5-2.4-9.6-4c-1.4-0.8-2.3-2.7-3.4-4.1c1.5-0.8,3-2.2,4.6-2.3c3.9-0.2,7.9-0.1,11.8,0.2c7.7,0.3,11.4-1.8,14.5-9
		c1.7-4,2.8-8.2,4.5-12.2c1.3-3.1,3.2-5.9,4.8-9c4.4,3.1,8.9,14.1,7.3,18.6l-5.6-15.5l-1.3-0.1c-1.2,1.9-2.2,3.9-3.1,5.9
		c-1.6,4.1-2.8,8.4-4.5,12.5c-3.4,8.1-7.9,10.9-16.7,10.6c-3.6-0.1-7.1-0.3-10.7-0.4c-0.9,0-1.8,0.5-4,1c2.3,1.4,3.7,2.4,5.3,3.1
		c3,1.4,6.2,2.4,9.2,3.8c3.9,1.7,6.1,4.8,5.9,9c-0.2,4.8-0.7,9.6-1.2,14.4c-0.2,2.3-0.5,4.5-0.9,8c3.2-2.5,5.5-4.2,7.8-6
		c8.5-6.7,12.8-6.8,21.5-0.2c3.6,2.7,7.1,5.6,11.4,9c-0.9-6-1.7-10.9-2.3-15.9c-0.4-3.1-0.6-6.1-0.6-9.2c0-5.4,1.7-7.4,6.8-9.2
		c4.6-1.7,9.2-3.5,13.8-5.4c1.2-0.5,2.3-1.5,2.9-2.7l-25.6-4c0-0.4,0.1-0.8,0.1-1.2c0.4-0.2,0.8-0.6,1.2-0.5
		c7.7,1.1,15.4,2.2,23.1,3.5c1.4,0.2,2.6,1.5,3.8,2.3c-0.9,1.2-1.7,2.8-2.9,3.4c-4.5,2.2-9.2,4.2-13.9,5.9
		c-6.4,2.2-7.7,3.3-7.1,10.1c0.6,7.1,1.8,14.2,2.7,21.3c0.2,1.4,0.2,2.9,0.3,4.3C-559.5-762.4-559.8-762.2-560.1-762z"/>
</g>
</svg>
