<svg xmlns="http://www.w3.org/2000/svg" width="44" height="42" viewBox="0 0 44 42">
  <g id="Grupo_1560" data-name="Grupo 1560" transform="translate(-4106 -273)">
    <g id="Grupo_1552" data-name="Grupo 1552" transform="translate(53.625 -167)">
      <g id="Elipse_522" data-name="Elipse 522" transform="translate(4058 442)" fill="#fff" stroke="rgba(112,112,112,0.01)" stroke-width="1">
        <circle cx="19" cy="19" r="19" stroke="none"/>
        <circle cx="19" cy="19" r="18.5" fill="none"/>
      </g>
      <g id="Grupo_1174" data-name="Grupo 1174" transform="translate(4054.375 442)">
        <path id="Trazado_1053" data-name="Trazado 1053" d="M445.788,166.7h0a19.1,19.1,0,0,1-19.1-19.1h0a19.1,19.1,0,0,1,19.1-19.1h0a19.1,19.1,0,0,1,19.1,19.1h0A19.1,19.1,0,0,1,445.788,166.7Z" transform="translate(-426.689 -128.505)" fill="none" stroke="#1d1b4c" stroke-miterlimit="10" stroke-width="3"/>
        <g id="Grupo_713" data-name="Grupo 713" transform="translate(8.627 8.626)">
          <path id="Trazado_1054" data-name="Trazado 1054" d="M445.758,138.988c2.8,0,3.126.011,4.23.061a5.771,5.771,0,0,1,1.945.361,3.461,3.461,0,0,1,1.987,1.987,5.8,5.8,0,0,1,.361,1.944c.05,1.1.06,1.435.06,4.232s-.01,3.127-.06,4.231a5.807,5.807,0,0,1-.361,1.945,3.461,3.461,0,0,1-1.987,1.987,5.777,5.777,0,0,1-1.945.36c-1.1.051-1.434.061-4.23.061s-3.128-.01-4.232-.061a5.784,5.784,0,0,1-1.945-.36,3.461,3.461,0,0,1-1.987-1.987,5.784,5.784,0,0,1-.36-1.945c-.05-1.1-.061-1.435-.061-4.231s.011-3.127.061-4.232a5.776,5.776,0,0,1,.36-1.944,3.461,3.461,0,0,1,1.987-1.987,5.777,5.777,0,0,1,1.945-.361c1.1-.05,1.436-.061,4.232-.061m0-1.887c-2.844,0-3.2.012-4.318.063a7.712,7.712,0,0,0-2.541.487,5.345,5.345,0,0,0-3.063,3.063,7.664,7.664,0,0,0-.487,2.542c-.051,1.117-.063,1.473-.063,4.317s.012,3.2.063,4.317a7.665,7.665,0,0,0,.487,2.542,5.347,5.347,0,0,0,3.063,3.062,7.684,7.684,0,0,0,2.541.488c1.117.05,1.474.062,4.318.062s3.2-.012,4.316-.062a7.685,7.685,0,0,0,2.542-.488,5.355,5.355,0,0,0,3.063-3.062,7.7,7.7,0,0,0,.487-2.542c.051-1.117.062-1.473.062-4.317s-.011-3.2-.062-4.317a7.7,7.7,0,0,0-.487-2.542,5.353,5.353,0,0,0-3.063-3.063,7.713,7.713,0,0,0-2.542-.487c-1.117-.051-1.473-.063-4.316-.063" transform="translate(-435.286 -137.101)" fill="#1d1b4c"/>
          <path id="Trazado_1055" data-name="Trazado 1055" d="M445.74,142.178a5.377,5.377,0,1,0,5.376,5.377,5.377,5.377,0,0,0-5.376-5.377m0,8.867a3.49,3.49,0,1,1,3.489-3.49,3.49,3.49,0,0,1-3.489,3.49" transform="translate(-435.268 -137.083)" fill="#1d1b4c"/>
          <path id="Trazado_1056" data-name="Trazado 1056" d="M452.551,141.97a1.256,1.256,0,1,1-1.256-1.256,1.257,1.257,0,0,1,1.256,1.256" transform="translate(-435.234 -137.088)" fill="#1d1b4c"/>
        </g>
      </g>
    </g>
    <rect id="Rectángulo_1154" data-name="Rectángulo 1154" width="44" height="42" transform="translate(4106 273)" fill="none"/>
  </g>
</svg>
