<svg id="Componente_14_2" data-name="Componente 14 – 2" xmlns="http://www.w3.org/2000/svg" width="27.011" height="20.778" viewBox="0 0 27.011 20.778">
  <g id="Grupo_1309" data-name="Grupo 1309">
    <path id="Trazado_25315" data-name="Trazado 25315" d="M4.5,5C3.672,5,3,5.465,3,6.039s.672,1.039,1.5,1.039H28.51c.829,0,1.5-.465,1.5-1.039S29.339,5,28.51,5Z" transform="translate(-3 -5)" fill="#3c4357"/>
    <path id="Trazado_25316" data-name="Trazado 25316" d="M4.5,9C3.672,9,3,9.465,3,10.039s.672,1.039,1.5,1.039H28.51c.829,0,1.5-.465,1.5-1.039S29.339,9,28.51,9Z" transform="translate(-3 -2.767)" fill="#3c4357"/>
    <path id="Trazado_25317" data-name="Trazado 25317" d="M3,14.039C3,13.465,3.672,13,4.5,13H28.51c.829,0,1.5.465,1.5,1.039s-.672,1.039-1.5,1.039H4.5C3.672,15.078,3,14.613,3,14.039Z" transform="translate(-3 -0.533)" fill="#3c4357"/>
    <path id="Trazado_25318" data-name="Trazado 25318" d="M4.5,17c-.829,0-1.5.465-1.5,1.039s.672,1.039,1.5,1.039H28.51c.829,0,1.5-.465,1.5-1.039S29.339,17,28.51,17Z" transform="translate(-3 1.7)" fill="#3c4357"/>
  </g>
</svg>
