<svg xmlns="http://www.w3.org/2000/svg" width="44" height="42" viewBox="0 0 44 42">
  <g id="Grupo_1559" data-name="Grupo 1559" transform="translate(-4261 -273)">
    <rect id="Rectángulo_1156" data-name="Rectángulo 1156" width="44" height="42" transform="translate(4261 273)" fill="none"/>
    <g id="Grupo_1557" data-name="Grupo 1557" transform="translate(261.594 167.231)">
      <g id="Grupo_1543" data-name="Grupo 1543" transform="translate(4002.406 107.769)">
        <path id="Trazado_25238" data-name="Trazado 25238" d="M257.437,415.334l-1.653,1.568a10.354,10.354,0,0,1-7,2.762c-3.386.023-6.358-1.949-9.082-3.622a51.141,51.141,0,0,1-9.54-7.554,50.417,50.417,0,0,1-8.308-10.936,9.066,9.066,0,0,1,.576-9.549,10.032,10.032,0,0,1,1.244-1.434L225.344,385l8.37,7.917-2.47,2.329a1.812,1.812,0,0,0-.248,2.387,50.35,50.35,0,0,0,13.081,12.352,2.068,2.068,0,0,0,2.52-.234l2.47-2.329Z" transform="translate(-217.437 -385)" fill="#fff"/>
        <path id="Trazado_25239" data-name="Trazado 25239" d="M243.323,411.968l3.67-3.481a2.091,2.091,0,0,1,2.845,0l5.689,5.395a1.84,1.84,0,0,1,0,2.7l-2.845,2.7a10.524,10.524,0,0,1-7.13,2.826c-3.449.022-6.474-1.993-9.252-3.705a52.058,52.058,0,0,1-9.72-7.728,51.439,51.439,0,0,1-8.468-11.185,9.3,9.3,0,0,1,.587-9.763,9.772,9.772,0,0,1,1.269-1.466l2.845-2.7a2.09,2.09,0,0,1,2.845,0l5.689,5.394a1.838,1.838,0,0,1,0,2.7l-3.67,3.481a1.845,1.845,0,0,0-.251,2.437,51.264,51.264,0,0,0,13.326,12.637A2.109,2.109,0,0,0,243.323,411.968Z" transform="translate(-217 -385)" fill="none" stroke="#1d1b4c" stroke-linecap="round" stroke-linejoin="round" stroke-width="2"/>
        <path id="Trazado_25240" data-name="Trazado 25240" d="M222.166,406.654a10.441,10.441,0,0,1-.941-2.681,10.956,10.956,0,0,1-.2-2.822" transform="translate(-217.464 -392)" fill="none" stroke="#1d1b4c" stroke-linecap="round" stroke-linejoin="round" stroke-width="2"/>
        <line id="Línea_217" data-name="Línea 217" y2="1.768" transform="translate(18.652 7.867)" fill="none" stroke="#1d1b4c" stroke-linecap="round" stroke-linejoin="round" stroke-width="2"/>
        <line id="Línea_218" data-name="Línea 218" y2="1.768" transform="translate(18.652 10.061)" fill="none" stroke="#1d1b4c" stroke-linecap="round" stroke-linejoin="round" stroke-width="2"/>
        <line id="Línea_219" data-name="Línea 219" x1="1.768" transform="translate(30.973 19.743)" fill="none" stroke="#1d1b4c" stroke-linecap="round" stroke-linejoin="round" stroke-width="2"/>
        <line id="Línea_220" data-name="Línea 220" x1="1.768" transform="translate(27.128 19.743)" fill="none" stroke="#1d1b4c" stroke-linecap="round" stroke-linejoin="round" stroke-width="2"/>
        <line id="Línea_221" data-name="Línea 221" x1="1.25" y2="1.25" transform="translate(27.145 10.323)" fill="none" stroke="#1d1b4c" stroke-linecap="round" stroke-linejoin="round" stroke-width="2"/>
        <line id="Línea_222" data-name="Línea 222" x1="1.25" y2="1.25" transform="translate(24.475 12.834)" fill="none" stroke="#1d1b4c" stroke-linecap="round" stroke-linejoin="round" stroke-width="2"/>
        <line id="Línea_223" data-name="Línea 223" x1="0.676" y2="1.634" transform="translate(24.611 6.305)" fill="none" stroke="#1d1b4c" stroke-linecap="round" stroke-linejoin="round" stroke-width="2"/>
        <line id="Línea_224" data-name="Línea 224" x1="0.676" y2="1.634" transform="translate(23.16 7.474)" fill="none" stroke="#1d1b4c" stroke-linecap="round" stroke-linejoin="round" stroke-width="2"/>
        <line id="Línea_225" data-name="Línea 225" x1="0.677" y2="1.633" transform="translate(21.709 10.743)" fill="none" stroke="#1d1b4c" stroke-linecap="round" stroke-linejoin="round" stroke-width="2"/>
        <line id="Línea_226" data-name="Línea 226" x1="1.634" y2="0.676" transform="translate(31.178 13.257)" fill="none" stroke="#1d1b4c" stroke-linecap="round" stroke-linejoin="round" stroke-width="2"/>
        <line id="Línea_227" data-name="Línea 227" x1="1.634" y2="0.677" transform="translate(29.787 14.623)" fill="none" stroke="#1d1b4c" stroke-linecap="round" stroke-linejoin="round" stroke-width="2"/>
        <line id="Línea_228" data-name="Línea 228" x1="1.634" y2="0.677" transform="translate(26.309 15.989)" fill="none" stroke="#1d1b4c" stroke-linecap="round" stroke-linejoin="round" stroke-width="2"/>
        <line id="Línea_229" data-name="Línea 229" x1="11.962" y1="11.961" transform="translate(6.25 2.714)" fill="none" stroke="#1d1b4c" stroke-linecap="round" stroke-linejoin="round" stroke-width="2"/>
        <line id="Línea_230" data-name="Línea 230" x1="11.962" y1="11.962" transform="translate(24.431 19.723)" fill="none" stroke="#1d1b4c" stroke-linecap="round" stroke-linejoin="round" stroke-width="2"/>
      </g>
    </g>
  </g>
</svg>
