<svg xmlns="http://www.w3.org/2000/svg" width="44" height="42" viewBox="0 0 44 42">
  <g id="Grupo_1562" data-name="Grupo 1562" transform="translate(-4018 -273)">
    <rect id="Rectángulo_1153" data-name="Rectángulo 1153" width="44" height="42" transform="translate(4018 273)" fill="none"/>
    <g id="Grupo_1561" data-name="Grupo 1561" transform="translate(36 3.994)">
      <g id="Grupo_1544" data-name="Grupo 1544" transform="translate(3223 153.339)">
        <g id="Grupo_1203" data-name="Grupo 1203" transform="translate(762 115.667)">
          <path id="Trazado_25241" data-name="Trazado 25241" d="M769.591,148.365l-1.84,9.027,6.52-4.784a18.373,18.373,0,0,0,9.878,2.848,17.8,17.8,0,1,0-18.227-17.793A17.415,17.415,0,0,0,769.591,148.365Z" transform="translate(-762.375 -116.069)" fill="#fff"/>
          <path id="Trazado_25242" data-name="Trazado 25242" d="M764.472,157.28a.486.486,0,0,1-.358-.177,1.26,1.26,0,0,1-.22-1.071l1.818-9.11a19.551,19.551,0,1,1,15.851,8.123,19.384,19.384,0,0,1-10.176-2.865l-6.541,4.9A.492.492,0,0,1,764.472,157.28Zm17.091-39.737c-10.113,0-18.341,7.99-18.341,17.814a17.3,17.3,0,0,0,3.6,10.566,1.288,1.288,0,0,1,.18,1.023l-1.263,7.137,5.179-3.717a.448.448,0,0,1,.611-.122,18.5,18.5,0,0,0,10.034,2.927c10.112,0,18.34-7.991,18.34-17.814S791.675,117.543,781.563,117.543Z" transform="translate(-762 -115.667)" fill="#1d1b4c"/>
        </g>
        <path id="Trazado_25243" data-name="Trazado 25243" d="M791.2,150.745c-2.033,0-3.818-1.167-5.393-2.2l-.3-.2a31.759,31.759,0,0,1-5.873-4.922,32.779,32.779,0,0,1-5.115-7.125,6.435,6.435,0,0,1,1.177-7.506l1.7-1.7a1.576,1.576,0,0,1,2.23,0l3.4,3.4a1.576,1.576,0,0,1,0,2.231l-2.191,2.19a.837.837,0,0,0-.107,1.053,30.952,30.952,0,0,0,7.862,7.858.792.792,0,0,0,.455.141h0a.853.853,0,0,0,.6-.247l2.19-2.191a1.579,1.579,0,0,1,2.232,0l3.4,3.4a1.577,1.577,0,0,1,0,2.231l-1.7,1.7a6.5,6.5,0,0,1-4.52,1.889Z" transform="translate(-3.112 -2.807)" fill="#1d1b4c"/>
      </g>
    </g>
  </g>
</svg>
