<svg xmlns="http://www.w3.org/2000/svg" width="71" height="58" viewBox="0 0 71 58">
  <g id="Grupo_1541" data-name="Grupo 1541" transform="translate(-954 -2694)">
    <g id="Grupo_1537" data-name="Grupo 1537" transform="translate(-1425 -173.027)">
      <g id="Grupo_1115" data-name="Grupo 1115" transform="translate(2388 2869.027)">
        <g id="Grupo_79" data-name="Grupo 79" transform="translate(13.41 0)">
          <g id="Grupo_36" data-name="Grupo 36" transform="translate(10.368 9.745)">
            <rect id="Rect치ngulo_22" data-name="Rect치ngulo 22" width="19.741" height="2.609" fill="#33ec78"/>
          </g>
          <g id="Grupo_37" data-name="Grupo 37" transform="translate(10.085 1.446)">
            <path id="Trazado_36" data-name="Trazado 36" d="M48.509,21.418H36.6a4.494,4.494,0,0,1-4.5-4.5V9.1a4.494,4.494,0,0,1,4.5-4.5H48.478a4.494,4.494,0,0,1,4.5,4.5v7.827A4.468,4.468,0,0,1,48.509,21.418ZM36.6,5.763A3.334,3.334,0,0,0,33.263,9.1v7.827A3.334,3.334,0,0,0,36.6,20.255H48.478a3.334,3.334,0,0,0,3.332-3.332V9.1a3.334,3.334,0,0,0-3.332-3.332H36.6Z" transform="translate(-32.1 -4.6)"/>
          </g>
          <g id="Grupo_38" data-name="Grupo 38" transform="translate(7.79 10.373)">
            <path id="Trazado_37" data-name="Trazado 37" d="M47.619,35.789a2.626,2.626,0,0,0-1.729.66,8.991,8.991,0,0,0-15.152,0,2.608,2.608,0,1,0-1.729,4.558c.094,0,.22-.031.314-.031,0,.094-.031.22-.031.314a9.022,9.022,0,0,0,18.044,0,1.07,1.07,0,0,0-.031-.314c.094,0,.189.031.314.031a2.609,2.609,0,1,0,0-5.218Z" transform="translate(-25.897 -31.734)" fill="#fff"/>
            <path id="Trazado_38" data-name="Trazado 38" d="M37.248,49.644a9.563,9.563,0,0,1-9.556-9.3A3.181,3.181,0,0,1,24.8,37.164a3.22,3.22,0,0,1,3.206-3.206,3.037,3.037,0,0,1,1.572.44,9.557,9.557,0,0,1,15.4,0,3.123,3.123,0,0,1,1.572-.44,3.2,3.2,0,0,1,.314,6.381A9.661,9.661,0,0,1,37.248,49.644ZM28.887,39.082l-.031.817v.157a8.425,8.425,0,0,0,16.849,0V39.9l-.031-.817.754.094h.157a2.043,2.043,0,0,0,0-4.087,1.982,1.982,0,0,0-1.32.5l-.5.44-.377-.566a8.4,8.4,0,0,0-14.146,0l-.377.566-.5-.44a2.037,2.037,0,1,0-1.32,3.584H28.2Z" transform="translate(-24.8 -30.5)"/>
          </g>
          <g id="Grupo_41" data-name="Grupo 41" transform="translate(15.461 5.941)">
            <g id="Grupo_39" data-name="Grupo 39">
              <ellipse id="Elipse_21" data-name="Elipse 21" cx="4.652" cy="4.652" rx="4.652" ry="4.652" transform="translate(0.283 0.283)" fill="#38d6ad"/>
              <path id="Trazado_39" data-name="Trazado 39" d="M54.135,28.771a4.935,4.935,0,1,1,4.935-4.935A4.924,4.924,0,0,1,54.135,28.771Zm0-9.273a4.338,4.338,0,1,0,4.307,4.338A4.354,4.354,0,0,0,54.135,19.5Z" transform="translate(-49.2 -18.9)" fill="#fff"/>
            </g>
            <g id="Grupo_40" data-name="Grupo 40" transform="translate(2.609 2.609)">
              <ellipse id="Elipse_22" data-name="Elipse 22" cx="2.043" cy="2.043" rx="2.043" ry="2.043" transform="translate(0.283 0.283)" fill="#fff"/>
              <path id="Trazado_40" data-name="Trazado 40" d="M59.826,31.852a2.326,2.326,0,1,1,2.326-2.326A2.321,2.321,0,0,1,59.826,31.852Zm0-4.055A1.724,1.724,0,0,0,58.1,29.526,1.729,1.729,0,1,0,59.826,27.8Z" transform="translate(-57.5 -27.2)" fill="#fff"/>
            </g>
          </g>
          <g id="Grupo_42" data-name="Grupo 42" transform="translate(9.834 29.094)">
            <path id="Trazado_41" data-name="Trazado 41" d="M35.163,86.963,34,94.508l2.892,2.326L34,98.563l3.458,4.652h5.218L39.218,85.8" transform="translate(-33.151 -85.706)" fill="#fff"/>
            <path id="Trazado_42" data-name="Trazado 42" d="M41.548,103.575H35.324L31.3,98.2l2.735-1.635L31.52,94.553l1.195-7.89,1.163.189-1.132,7.2,3.3,2.641L33,98.546l2.923,3.867h4.212L36.8,85.72l1.132-.22Z" transform="translate(-31.3 -85.5)"/>
          </g>
          <g id="Grupo_43" data-name="Grupo 43" transform="translate(20.993 29.094)">
            <path id="Trazado_43" data-name="Trazado 43" d="M76.544,86.963l1.163,7.544-2.892,2.326,2.892,1.729-3.489,4.652H69L72.489,85.8" transform="translate(-68.308 -85.706)" fill="#fff"/>
            <path id="Trazado_44" data-name="Trazado 44" d="M73.024,103.575H66.8L70.415,85.5l1.132.22-3.332,16.692h4.212l2.923-3.867L72.3,96.691,75.57,94.05l-1.1-7.2,1.132-.189,1.226,7.89-2.515,2.012L77.048,98.2Z" transform="translate(-66.8 -85.5)"/>
          </g>
          <g id="Grupo_44" data-name="Grupo 44" transform="translate(13.92 16.472)">
            <path id="Trazado_45" data-name="Trazado 45" d="M47.758,51.849a1.289,1.289,0,0,0-1.195-.817,1.259,1.259,0,0,0-1.195.817l-1.069-.44a2.452,2.452,0,0,1,4.527,0Z" transform="translate(-44.3 -49.9)"/>
          </g>
          <g id="Grupo_45" data-name="Grupo 45" transform="translate(22.062 16.472)">
            <path id="Trazado_46" data-name="Trazado 46" d="M73.658,51.849a1.289,1.289,0,0,0-1.195-.817,1.259,1.259,0,0,0-1.195.817l-1.069-.44a2.452,2.452,0,0,1,4.527,0Z" transform="translate(-70.2 -49.9)"/>
          </g>
          <g id="Grupo_46" data-name="Grupo 46" transform="translate(16.215 23.137)">
            <path id="Trazado_47" data-name="Trazado 47" d="M55.624,73.144A4.348,4.348,0,0,1,51.6,70.472L52.669,70a3.189,3.189,0,0,0,2.955,1.949A3.239,3.239,0,0,0,58.579,70l1.069.44A4.377,4.377,0,0,1,55.624,73.144Z" transform="translate(-51.6 -70)"/>
          </g>
          <g id="Grupo_47" data-name="Grupo 47" transform="translate(12.411 30.068)">
            <path id="Trazado_48" data-name="Trazado 48" d="M40.066,88.883,39.5,95.264l3.489,3.489L39.5,101.08l1.729,2.326h3.489L41.543,88.6Z" transform="translate(-39.5 -88.6)" fill="#33ec78"/>
          </g>
          <g id="Grupo_48" data-name="Grupo 48" transform="translate(23.445 30.068)">
            <path id="Trazado_49" data-name="Trazado 49" d="M79.221,89.166l.6,6.381-3.489,3.489,3.489,2.326-1.76,2.326H74.6L77.775,88.6Z" transform="translate(-74.6 -88.6)" fill="#33ec78"/>
          </g>
          <g id="Grupo_49" data-name="Grupo 49" transform="translate(16.041 3.566)">
            <path id="Trazado_50" data-name="Trazado 50" d="M53.672,13.846l-.409.346a.306.306,0,0,1-.44-.031l-1.7-1.949a.306.306,0,0,1,.031-.44l.409-.346a.306.306,0,0,1,.44.031l1.7,1.949A.306.306,0,0,1,53.672,13.846Z" transform="translate(-51.045 -11.345)" fill="#f4c04e"/>
          </g>
          <g id="Grupo_50" data-name="Grupo 50" transform="translate(19.736)">
            <path id="Trazado_51" data-name="Trazado 51" d="M63.649,6.067h-.534a.3.3,0,0,1-.314-.314V.314A.338.338,0,0,1,63.114,0h.534a.338.338,0,0,1,.314.314V5.753A.338.338,0,0,1,63.649,6.067Z" transform="translate(-62.8)" fill="#f4c04e"/>
          </g>
          <g id="Grupo_51" data-name="Grupo 51" transform="translate(22.598 3.459)">
            <path id="Trazado_52" data-name="Trazado 52" d="M72.531,14.114l-.472-.283a.348.348,0,0,1-.126-.44l1.289-2.232a.348.348,0,0,1,.44-.126l.472.251a.348.348,0,0,1,.126.44l-1.289,2.232A.33.33,0,0,1,72.531,14.114Z" transform="translate(-71.903 -11.003)" fill="#f4c04e"/>
          </g>
          <g id="Grupo_52" data-name="Grupo 52" transform="translate(0 28.622)">
            <path id="Trazado_53" data-name="Trazado 53" d="M.263,103.8c-.5-3.332-.472-8.11,2.421-12.04A15.933,15.933,0,0,1,5.7,88.747,24.571,24.571,0,0,1,15.2,84l.283,1.132a23.41,23.41,0,0,0-9.053,4.527,14.565,14.565,0,0,0-2.8,2.8c-2.672,3.615-2.672,8.079-2.2,11.191Z" transform="translate(-0.017 -84)"/>
          </g>
          <g id="Grupo_53" data-name="Grupo 53" transform="translate(25.394 28.622)">
            <path id="Trazado_54" data-name="Trazado 54" d="M96.015,103.8l-1.163-.157c.472-3.112.44-7.576-2.2-11.191a14.565,14.565,0,0,0-2.8-2.8A23.412,23.412,0,0,0,80.8,85.132L81.083,84a24.571,24.571,0,0,1,9.493,4.747,16.9,16.9,0,0,1,3.018,3.018C96.486,95.694,96.486,100.472,96.015,103.8Z" transform="translate(-80.8 -84)"/>
          </g>
        </g>
        <g id="XMLID_1_" transform="translate(16.889 32)">
          <path id="XMLID_18_" d="M20.607,5.1H15.35a.331.331,0,0,1-.35-.35V3.35A.331.331,0,0,1,15.35,3h5.257a.331.331,0,0,1,.35.35v1.4A.331.331,0,0,1,20.607,5.1Z" transform="translate(-10.094 -2.299)" fill="#54febd"/>
          <path id="XMLID_17_" d="M7.577,18l.491.911,1.086.175-.771.7L8.558,20.8l-.981-.491L6.6,20.8l.21-1.016L6,19.086l1.086-.175Z" transform="translate(-4.248 -12.042)" fill="#54febd"/>
          <path id="XMLID_16_" d="M20.577,18l.491.911,1.086.175-.771.7.175,1.016-.981-.491L19.6,20.8l.21-1.016-.806-.7,1.086-.175Z" transform="translate(-12.692 -12.042)" fill="#54febd"/>
          <path id="XMLID_15_" d="M33.577,18l.491.911,1.086.175-.771.7.175,1.016-.981-.491L32.6,20.8l.21-1.016-.806-.7,1.086-.175Z" transform="translate(-21.136 -12.042)" fill="#54febd"/>
          <path id="XMLID_14_" d="M7.577,33l.491.911,1.086.175-.771.7L8.558,35.8l-.981-.491L6.6,35.8l.21-1.016L6,34.086l1.086-.175Z" transform="translate(-4.248 -21.785)" fill="#54febd"/>
          <path id="XMLID_13_" d="M20.577,33l.491.911,1.086.175-.771.7.175,1.016-.981-.491L19.6,35.8l.21-1.016-.806-.7,1.086-.175Z" transform="translate(-12.692 -21.785)" fill="#54febd"/>
          <path id="XMLID_12_" d="M7.577,48l.491.911,1.086.175-.771.7L8.558,50.8l-.981-.491L6.6,50.8l.21-1.016L6,49.086l1.086-.175Z" transform="translate(-4.248 -31.528)" fill="#54febd"/>
          <path id="XMLID_11_" d="M11.864,3H16.07a.7.7,0,0,1,.7.7V23.327a.7.7,0,0,1-.7.7H1.7a.7.7,0,0,1-.7-.7V3.7A.7.7,0,0,1,1.7,3H5.906" transform="translate(-1 -2.299)" fill="#fff" stroke="#000" stroke-linecap="round" stroke-linejoin="round" stroke-miterlimit="10" stroke-width="2"/>
          <path id="XMLID_10_" d="M20.607,3.1H15.35a.331.331,0,0,1-.35-.35V1.35A.331.331,0,0,1,15.35,1h5.257a.331.331,0,0,1,.35.35v1.4A.331.331,0,0,1,20.607,3.1Z" transform="translate(-10.094 -1)" fill="#fff" stroke="#000" stroke-linecap="round" stroke-linejoin="round" stroke-miterlimit="10" stroke-width="1"/>
          <path id="XMLID_9_" d="M7.577,15l.491.911,1.086.175-.771.7L8.558,17.8l-.981-.491L6.6,17.8l.21-1.016L6,16.086l1.086-.175Z" transform="translate(-4.248 -10.094)" fill="#f4c04e" stroke="#000" stroke-linecap="round" stroke-linejoin="round" stroke-miterlimit="10" stroke-width="1"/>
          <path id="XMLID_8_" d="M20.577,15l.491.911,1.086.175-.771.7.175,1.016-.981-.491L19.6,17.8l.21-1.016-.806-.7,1.086-.175Z" transform="translate(-12.692 -10.094)" fill="#f4c04e" stroke="#000" stroke-linecap="round" stroke-linejoin="round" stroke-miterlimit="10" stroke-width="1"/>
          <path id="XMLID_7_" d="M33.577,15l.491.911,1.086.175-.771.7.175,1.016-.981-.491L32.6,17.8l.21-1.016-.806-.7,1.086-.175Z" transform="translate(-21.136 -10.094)" fill="#f4c04e" stroke="#000" stroke-linecap="round" stroke-linejoin="round" stroke-miterlimit="10" stroke-width="1"/>
          <path id="XMLID_6_" d="M7.577,30l.491.911,1.086.175-.771.7L8.558,32.8l-.981-.491L6.6,32.8l.21-1.016L6,31.086l1.086-.175Z" transform="translate(-4.248 -19.837)" fill="#f4c04e" stroke="#000" stroke-linecap="round" stroke-linejoin="round" stroke-miterlimit="10" stroke-width="1"/>
          <path id="XMLID_5_" d="M20.577,30l.491.911,1.086.175-.771.7.175,1.016-.981-.491L19.6,32.8l.21-1.016-.806-.7,1.086-.175Z" transform="translate(-12.692 -19.837)" fill="#f4c04e" stroke="#000" stroke-linecap="round" stroke-linejoin="round" stroke-miterlimit="10" stroke-width="1"/>
          <path id="XMLID_4_" d="M7.577,45l.491.911,1.086.175-.771.7L8.558,47.8l-.981-.491L6.6,47.8l.21-1.016L6,46.086l1.086-.175Z" transform="translate(-4.248 -29.58)" fill="#f4c04e" stroke="#000" stroke-linecap="round" stroke-linejoin="round" stroke-miterlimit="10" stroke-width="1"/>
          <line id="XMLID_3_" transform="translate(14.369 20.327)" fill="none" stroke="#1d1b4c" stroke-linecap="round" stroke-linejoin="round" stroke-miterlimit="10" stroke-width="2"/>
          <line id="XMLID_2_" y1="2.103" transform="translate(14.369 17.173)" fill="none" stroke="#000" stroke-linecap="round" stroke-linejoin="round" stroke-miterlimit="10" stroke-width="2"/>
        </g>
        <g id="Grupo_81" data-name="Grupo 81" transform="translate(0 7.438)">
          <path id="XMLID_2_2" data-name="XMLID_2_" d="M8.886,19.664l6.019-5.4a5.548,5.548,0,0,0,1.868-4.151h0a3.944,3.944,0,1,0-7.886-.125,3.9,3.9,0,0,0-4.109-3.9A3.928,3.928,0,0,0,1,10.118H1a5.482,5.482,0,0,0,1.868,4.151Z" transform="translate(-1 -4.01)" fill="#f4c04e"/>
          <path id="XMLID_1_2" data-name="XMLID_1_" d="M8.886,14.664l6.019-5.4a5.548,5.548,0,0,0,1.868-4.151h0A3.982,3.982,0,0,0,13,1.091a3.9,3.9,0,0,0-4.109,3.9,3.9,3.9,0,0,0-4.109-3.9A3.928,3.928,0,0,0,1,5.118H1A5.482,5.482,0,0,0,2.868,9.268Z" transform="translate(-1 -1.085)" fill="none" stroke="#000" stroke-linecap="round" stroke-linejoin="round" stroke-miterlimit="10" stroke-width="2"/>
        </g>
      </g>
    </g>
    <rect id="Rect치ngulo_1151" data-name="Rect치ngulo 1151" width="71" height="58" transform="translate(954 2694)" fill="none"/>
  </g>
</svg>
