<svg xmlns="http://www.w3.org/2000/svg" width="71" height="58" viewBox="0 0 71 58">
  <g id="Grupo_1540" data-name="Grupo 1540" transform="translate(-954 -2627)">
    <g id="Grupo_1535" data-name="Grupo 1535" transform="translate(833 270.462)">
      <g id="Grupo_1110" data-name="Grupo 1110" transform="translate(132 2363.538)">
        <g id="Grupo_702" data-name="Grupo 702" transform="translate(0 0)">
          <circle id="Elipse_41" data-name="Elipse 41" cx="4.912" cy="4.912" r="4.912" transform="translate(17.562)" fill="#33ed75"/>
          <g id="piggybank" transform="translate(0 1.149)">
            <g id="Grupo_87" data-name="Grupo 87" transform="translate(24.597 30.44)">
              <g id="Grupo_86" data-name="Grupo 86">
                <path id="Trazado_1045" data-name="Trazado 1045" d="M253.022,352.2a.827.827,0,0,0-.827.827V354.8a.827.827,0,0,0,1.654,0v-1.764A.827.827,0,0,0,253.022,352.2Z" transform="translate(-252.195 -352.204)"/>
              </g>
            </g>
            <g id="Grupo_89" data-name="Grupo 89" transform="translate(0 0)">
              <g id="Grupo_88" data-name="Grupo 88">
                <path id="Trazado_1046" data-name="Trazado 1046" d="M49.518,58.278a1.635,1.635,0,0,0-1.163-.481H46.311c-.026,0-.044-.029-.049-.056a16.94,16.94,0,0,0-10.175-12.26,8.4,8.4,0,0,0-2.951-4.8,7.719,7.719,0,0,0-3.352-1.541.8.8,0,0,0-.909.787v4.3H25.985a5.893,5.893,0,0,0-11.357.156A16.922,16.922,0,0,0,0,61.138C0,70.581,4.908,78.265,6.412,80.4a2.494,2.494,0,0,0,2.036,1.051h3.389a2.5,2.5,0,0,0,2.495-2.492v-1.1a17.126,17.126,0,0,0,2.6.2h7.7v.9a2.5,2.5,0,0,0,2.495,2.492h3.722a2.507,2.507,0,0,0,2.439-1.97l.409-1.9a16.939,16.939,0,0,0,11.511-9.7h3.15A1.646,1.646,0,0,0,50,66.228V59.441A1.632,1.632,0,0,0,49.518,58.278ZM20.329,41.572a4.292,4.292,0,0,1,3.925,6.045H16.4a4.292,4.292,0,0,1,3.925-6.045ZM48.408,66.228a.053.053,0,0,1-.053.053H45.8a16.819,16.819,0,0,0,.777-4.254.8.8,0,0,0-1.59-.082A15.338,15.338,0,0,1,34.069,75.823l1.112-5.186a.8.8,0,0,0-1.557-.333l-1.9,8.839a.907.907,0,0,1-.882.713H27.123a.9.9,0,0,1-.9-.9V75.56a.8.8,0,0,0-1.592,0v.9h-7.7a15.511,15.511,0,0,1-2.6-.221V70.47a.8.8,0,0,0-1.592,0v8.484a.9.9,0,0,1-.9.9H8.448a.887.887,0,0,1-.735-.377c-1.436-2.033-6.121-9.365-6.121-18.341A15.332,15.332,0,0,1,14.44,46.016a5.9,5.9,0,0,0,.264,1.6h-.319a.8.8,0,1,0,0,1.591h11.89a.8.8,0,1,0,0-1.591h-.319a5.9,5.9,0,0,0,.266-1.75c0-.018,0-.035,0-.053h2.655v1.75a.8.8,0,0,0,1.592,0V40.972c1.511.571,4.352,2.325,4.352,7.44a.8.8,0,0,0,1.592,0c0-.337-.012-.693-.04-1.06A15.346,15.346,0,0,1,44.7,58.059a1.656,1.656,0,0,0,1.61,1.329h2.044a.053.053,0,0,1,.053.053v6.787Z" transform="translate(0 -39.132)"/>
              </g>
            </g>
            <g id="Grupo_91" data-name="Grupo 91" transform="translate(34.691 16.911)">
              <g id="Grupo_90" data-name="Grupo 90" transform="translate(0 0)">
                <path id="Trazado_1047" data-name="Trazado 1047" d="M364.163,215.364a3.633,3.633,0,0,0-6.762,0,.827.827,0,1,0,1.55.578,1.98,1.98,0,0,1,3.662,0,.827.827,0,1,0,1.55-.578Z" transform="translate(-357.349 -213.061)"/>
              </g>
            </g>
            <g id="Grupo_93" data-name="Grupo 93" transform="translate(16.302 13.969)">
              <g id="Grupo_92" data-name="Grupo 92" transform="translate(0 0)">
                <path id="Trazado_1048" data-name="Trazado 1048" d="M162.6,198.133v-4.226c1.622.2,2.757.949,2.757,1.632a.827.827,0,0,0,1.654,0c0-1.691-1.88-3.05-4.411-3.3v-.1a.827.827,0,1,0-1.654,0v.1c-2.531.246-4.411,1.605-4.411,3.3,0,2.415,2.386,3.287,4.411,3.856v4.227c-1.622-.2-2.757-.949-2.757-1.632a.827.827,0,1,0-1.654,0c0,1.691,1.88,3.05,4.411,3.3v.1a.827.827,0,0,0,1.654,0v-.1c2.531-.246,4.411-1.605,4.411-3.3C167.011,199.574,164.625,198.7,162.6,198.133Zm-1.654-.47c-2.037-.639-2.757-1.22-2.757-2.125,0-.683,1.134-1.434,2.757-1.632Zm1.654,5.958v-3.756c2.037.639,2.757,1.22,2.757,2.124C165.357,202.672,164.222,203.424,162.6,203.621Z" transform="translate(-156.535 -191.32)" fill="#f4c04e"/>
              </g>
            </g>
          </g>
        </g>
      </g>
    </g>
    <rect id="Rectángulo_1152" data-name="Rectángulo 1152" width="71" height="58" transform="translate(954 2627)" fill="none"/>
  </g>
</svg>
