<svg xmlns="http://www.w3.org/2000/svg" width="72.847" height="58.742" viewBox="0 0 72.847 58.742">
  <g id="Grupo_1542" data-name="Grupo 1542" transform="translate(-952.788 -2757)">
    <g id="Grupo_1536" data-name="Grupo 1536" transform="translate(-1730.75 219.137)">
      <g id="Grupo_1112" data-name="Grupo 1112" transform="translate(2640 2537.863)">
        <g id="Grupo_706" data-name="Grupo 706" transform="translate(44.75 0)">
          <g id="XMLID_1_" transform="translate(11.863 0) rotate(14)">
            <path id="XMLID_21_" d="M8.7,4.746A4.587,4.587,0,0,1,13.05,0,4.587,4.587,0,0,1,17.4,4.746c0,5.22-4.825,4.9-8.7,9.491C4.825,9.649,0,9.966,0,4.746A4.587,4.587,0,0,1,4.35,0,4.587,4.587,0,0,1,8.7,4.746Z" transform="translate(11.864 20.564)" fill="#f4c04e"/>
            <path id="XMLID_20_" d="M9.491,4.746H0V.791A.747.747,0,0,1,.791,0H8.7a.747.747,0,0,1,.791.791Z" transform="translate(16.609 1.582)" fill="#33ed75"/>
            <path id="XMLID_19_" d="M8.7,4.746A4.587,4.587,0,0,1,13.05,0,4.587,4.587,0,0,1,17.4,4.746c0,5.22-4.825,4.9-8.7,9.491C4.825,9.649,0,9.966,0,4.746A4.587,4.587,0,0,1,4.35,0,4.587,4.587,0,0,1,8.7,4.746Z" transform="translate(11.864 22.937)" fill="none" stroke="#000" stroke-linecap="round" stroke-linejoin="round" stroke-miterlimit="10" stroke-width="2"/>
            <path id="XMLID_18_" d="M9.491,4.746H0V.791A.747.747,0,0,1,.791,0H8.7a.747.747,0,0,1,.791.791Z" transform="translate(15.818 0)" fill="none" stroke="#000" stroke-linecap="round" stroke-linejoin="round" stroke-miterlimit="10" stroke-width="2"/>
            <ellipse id="XMLID_17_" cx="20.564" cy="20.564" rx="20.564" ry="20.564" transform="translate(0 7.909)" fill="none" stroke="#000" stroke-linecap="round" stroke-linejoin="round" stroke-miterlimit="10" stroke-width="2"/>
            <path id="XMLID_16_" d="M12.655,25.309A12.655,12.655,0,1,1,25.309,12.655,12.692,12.692,0,0,1,12.655,25.309Z" transform="translate(7.909 15.818)" fill="none" stroke="#000" stroke-linecap="round" stroke-linejoin="round" stroke-miterlimit="10" stroke-width="2"/>
            <line id="XMLID_15_" y2="1.582" transform="translate(20.564 44.291)" fill="none" stroke="#000" stroke-linecap="round" stroke-linejoin="round" stroke-miterlimit="10" stroke-width="2"/>
            <line id="XMLID_14_" y2="1.582" transform="translate(20.564 11.073)" fill="none" stroke="#000" stroke-linecap="round" stroke-linejoin="round" stroke-miterlimit="10" stroke-width="2"/>
            <line id="XMLID_13_" x1="1.582" transform="translate(3.164 28.473)" fill="none" stroke="#000" stroke-linecap="round" stroke-linejoin="round" stroke-miterlimit="10" stroke-width="2"/>
            <line id="XMLID_12_" x1="1.582" transform="translate(36.382 28.473)" fill="none" stroke="#000" stroke-linecap="round" stroke-linejoin="round" stroke-miterlimit="10" stroke-width="2"/>
            <line id="XMLID_11_" x1="1.186" y2="1.186" transform="translate(8.226 39.625)" fill="none" stroke="#000" stroke-linecap="round" stroke-linejoin="round" stroke-miterlimit="10" stroke-width="2"/>
            <line id="XMLID_10_" x1="1.186" y2="1.186" transform="translate(31.716 16.135)" fill="none" stroke="#000" stroke-linecap="round" stroke-linejoin="round" stroke-miterlimit="10" stroke-width="2"/>
            <line id="XMLID_9_" x1="1.186" y1="1.186" transform="translate(8.226 16.135)" fill="none" stroke="#000" stroke-linecap="round" stroke-linejoin="round" stroke-miterlimit="10" stroke-width="2"/>
            <line id="XMLID_8_" x1="1.186" y1="1.186" transform="translate(31.716 39.625)" fill="none" stroke="#000" stroke-linecap="round" stroke-linejoin="round" stroke-miterlimit="10" stroke-width="2"/>
            <path id="XMLID_7_" d="M6.011,2.215l-3.8,3.8L.237,4.034a.765.765,0,0,1,0-1.107L2.926.237a.765.765,0,0,1,1.107,0Z" transform="translate(1.107 6.644)" fill="none" stroke="#000" stroke-linecap="round" stroke-linejoin="round" stroke-miterlimit="10" stroke-width="2"/>
            <path id="XMLID_6_" d="M0,2.215l3.8,3.8L5.774,4.034a.765.765,0,0,0,0-1.107L3.085.237a.765.765,0,0,0-1.107,0Z" transform="translate(34.009 6.644)" fill="none" stroke="#000" stroke-linecap="round" stroke-linejoin="round" stroke-miterlimit="10" stroke-width="2"/>
            <line id="XMLID_5_" x1="2.056" y1="2.056" transform="translate(5.22 10.756)" fill="none" stroke="#000" stroke-linecap="round" stroke-linejoin="round" stroke-miterlimit="10" stroke-width="2"/>
            <line id="XMLID_4_" x1="2.056" y2="2.056" transform="translate(33.851 10.756)" fill="none" stroke="#000" stroke-linecap="round" stroke-linejoin="round" stroke-miterlimit="10" stroke-width="2"/>
            <line id="XMLID_3_" y1="3.243" transform="translate(22.146 4.746)" fill="none" stroke="#000" stroke-linecap="round" stroke-linejoin="round" stroke-miterlimit="10" stroke-width="2"/>
            <line id="XMLID_2_" y1="3.243" transform="translate(18.982 4.746)" fill="none" stroke="#000" stroke-linecap="round" stroke-linejoin="round" stroke-miterlimit="10" stroke-width="2"/>
          </g>
          <g id="Grupo_705" data-name="Grupo 705" transform="matrix(0.985, 0.174, -0.174, 0.985, 40.376, 29.066)">
            <path id="XMLID_9_2" data-name="XMLID_9_" d="M1.373,16.471h13.04V0H1.373A1.377,1.377,0,0,0,0,1.373V15.1A1.377,1.377,0,0,0,1.373,16.471Z" transform="translate(15.098 4.392)" fill="#1ea6c6"/>
            <path id="XMLID_8_2" data-name="XMLID_8_" d="M1.373,16.471h13.04V0H1.373A1.377,1.377,0,0,0,0,1.373V15.1A1.334,1.334,0,0,0,1.373,16.471Z" transform="translate(17.157 5.696)" fill="none" stroke="#1d1b4c" stroke-linecap="round" stroke-linejoin="round" stroke-miterlimit="10" stroke-width="2"/>
            <path id="XMLID_7_2" data-name="XMLID_7_" d="M5.49,3.431H1.716A1.7,1.7,0,0,1,0,1.716H0A1.7,1.7,0,0,1,1.716,0H6.177" transform="translate(0 10.569)" fill="none" stroke="#1d1b4c" stroke-linecap="round" stroke-linejoin="round" stroke-miterlimit="10" stroke-width="2"/>
            <path id="XMLID_6_2" data-name="XMLID_6_" d="M15.785,3.431H1.716A1.7,1.7,0,0,1,0,1.716H0A1.7,1.7,0,0,1,1.716,0H4.8" transform="translate(1.373 17.432)" fill="none" stroke="#1d1b4c" stroke-linecap="round" stroke-linejoin="round" stroke-miterlimit="10" stroke-width="2"/>
            <path id="XMLID_5_2" data-name="XMLID_5_" d="M4.8,3.431H1.716A1.7,1.7,0,0,1,0,1.716H0A1.7,1.7,0,0,1,1.716,0H5.49" transform="translate(0.686 14)" fill="none" stroke="#1d1b4c" stroke-linecap="round" stroke-linejoin="round" stroke-miterlimit="10" stroke-width="2"/>
            <path id="XMLID_4_2" data-name="XMLID_4_" d="M6.177,10.569H1.716A1.7,1.7,0,0,1,0,8.853H0A1.7,1.7,0,0,1,1.716,7.137H8.167L5.628,2.4A1.678,1.678,0,0,1,6.314.137,2.919,2.919,0,0,1,7.069,0a1.568,1.568,0,0,1,1.3.686L13.04,7.137h4.118" transform="translate(0 0)" fill="none" stroke="#1d1b4c" stroke-linecap="round" stroke-linejoin="round" stroke-miterlimit="10" stroke-width="2"/>
            <line id="XMLID_3_2" data-name="XMLID_3_" y2="16.402" transform="translate(22.648 5.765)" fill="none" stroke="#1d1b4c" stroke-linecap="round" stroke-linejoin="round" stroke-miterlimit="10" stroke-width="2"/>
            <line id="XMLID_2_2" data-name="XMLID_2_" transform="translate(19.902 20.177)" fill="none" stroke="#1d1b4c" stroke-linecap="round" stroke-linejoin="round" stroke-miterlimit="10" stroke-width="2"/>
            <line id="XMLID_1_2" data-name="XMLID_1_" y2="2.745" transform="translate(25.393 10.569)" fill="none" stroke="#1d1b4c" stroke-linecap="round" stroke-linejoin="round" stroke-miterlimit="10" stroke-width="2"/>
          </g>
        </g>
      </g>
    </g>
    <rect id="Rectángulo_1150" data-name="Rectángulo 1150" width="71" height="58" transform="translate(954 2757)" fill="none"/>
  </g>
</svg>
