<svg xmlns="http://www.w3.org/2000/svg" width="24.347" height="24.346" viewBox="0 0 24.347 24.346">
  <path id="Icon_awesome-check-circle" data-name="Icon awesome-check-circle" d="M24.909,12.736A12.173,12.173,0,1,1,12.736.563,12.173,12.173,0,0,1,24.909,12.736ZM11.328,19.181l9.032-9.032a.785.785,0,0,0,0-1.111L19.249,7.928a.785.785,0,0,0-1.111,0l-7.366,7.366L7.333,11.855a.785.785,0,0,0-1.111,0L5.112,12.966a.785.785,0,0,0,0,1.111l5.1,5.1A.785.785,0,0,0,11.328,19.181Z" transform="translate(-0.563 -0.563)" fill="#38d5ae"/>
</svg>
